<svg xmlns="http://www.w3.org/2000/svg" xmlns:xlink="http://www.w3.org/1999/xlink" width="64" height="64" viewBox="0 0 64 64">
  <defs>
    <style>
      .cls-1 {
        fill: #fff;
      }

      .cls-2 {
        clip-path: url(#clip-path);
      }

      .cls-3 {
        clip-path: url(#clip-path-2);
      }

      .cls-4 {
        fill: #434750;
      }

      .cls-5 {
        fill: #fdfcfc;
      }

      .cls-6 {
        fill: #ee2f60;
      }

      .cls-7 {
        fill: #fdbf16;
      }
    </style>
    <clipPath id="clip-path">
      <circle id="Ellipse_1807" data-name="Ellipse 1807" class="cls-1" cx="32" cy="32" r="32" transform="translate(-24123 -24032)"/>
    </clipPath>
    <clipPath id="clip-path-2">
      <rect id="Rectangle_5419" data-name="Rectangle 5419" class="cls-1" width="64" height="64"/>
    </clipPath>
  </defs>
  <g id="Mask_Group_506" data-name="Mask Group 506" class="cls-2" transform="translate(24123 24032)">
    <g id="gas.359f61f1" class="cls-3" transform="translate(-24123 -24032)">
      <path id="Path_29866" data-name="Path 29866" class="cls-1" d="M32.005,64.01A32.005,32.005,0,1,0,0,32.005,32,32,0,0,0,32.005,64.01Z"/>
      <path id="Path_29867" data-name="Path 29867" class="cls-4" d="M32.005,1.689A30.311,30.311,0,1,0,62.3,32.005,30.311,30.311,0,0,0,32.005,1.689ZM32.71,5.92a.472.472,0,0,1,.4-.03c.576.407,1.132.844,1.679,1.252-.924.526-1.857,1.013-2.742,1.579a26.961,26.961,0,0,0-2.175,1.629.433.433,0,0,1-.626.05c-.487-.348-1-.666-1.55-1.033A29.467,29.467,0,0,1,32.71,5.92ZM10.688,36.882c.348.586.7,1.152,1.063,1.778-.209.159-.387.3-.626.477-.358-.626-.7-1.232-1.053-1.857C10.3,37.131,10.48,37.021,10.688,36.882ZM9.526,34.051c-.248.119-.526.258-.844.417C8.334,33.545,8,32.641,7.649,31.7c.328-.169.626-.318.973-.5C8.93,32.174,9.228,33.088,9.526,34.051ZM6.655,22.946A12.483,12.483,0,0,0,7.7,21.933c.139,1.629.288,3.238.417,4.847a.34.34,0,0,1-.149.268c-.377.278-.775.546-1.232.864-.159-.924-.308-1.778-.447-2.632a9.013,9.013,0,0,0-.119-.924A1.2,1.2,0,0,1,6.655,22.946ZM55.08,19.728c.258.765.467,1.54.7,2.324-1.381-.2-2.692-.417-4.013-.576-.934-.109-1.877-.159-2.821-.209a.508.508,0,0,1-.517-.348c-.3-.656-.646-1.281-.993-1.957,1.162,0,2.295-.06,3.427.02,1.271.079,2.523.278,3.785.457A.631.631,0,0,1,55.08,19.728Zm-1.55-5.463c-.864,0-1.738-.04-2.6.01-5.632.308-11.115,1.2-16.161,3.934A27.43,27.43,0,0,0,21.4,33.992a19.765,19.765,0,0,0-1.083,7.251c.04,1.043.03,1.023,1.063.834a1.267,1.267,0,0,0,.973-.745c.149-.308.288-.636.407-.954a20.729,20.729,0,0,1,5.93-8.413,25.4,25.4,0,0,1,9.605-5.056,30.6,30.6,0,0,1,9.933-1.242c1.867.1,3.725.5,5.583.765a15.447,15.447,0,0,1,5.712,2.354.615.615,0,0,1,.278.407A28,28,0,0,1,41.193,58.328a26.766,26.766,0,0,1-10.827,1.52A27.427,27.427,0,0,1,10.728,50.1C9.7,48.921,8.831,47.62,7.9,46.369l.109-.109c.616.318,1.242.626,1.848.954a12.377,12.377,0,0,0,7.182,1.4,13.248,13.248,0,0,0,5.493-1.838c0-1.132-.01-2.275-.01-3.407a14.568,14.568,0,0,1-5.066,1.748,11.075,11.075,0,0,1-8.215-1.53A14.443,14.443,0,0,1,4.877,38.78a4.443,4.443,0,0,1-.338-1.331,27.411,27.411,0,0,1-.526-6.556c.01-.169.03-.348.04-.457.6,1.569,1.093,3.218,1.848,4.738a20.037,20.037,0,0,0,6.327,7.569,7.379,7.379,0,0,0,3.288,1.291,2.386,2.386,0,0,0,1.867-.775c-.656-.745-1.311-1.42-1.887-2.165a19.527,19.527,0,0,1-3.04-6.228,26.635,26.635,0,0,1-1.2-7.907c-.01-2.265.05-4.53.209-6.794a29.453,29.453,0,0,1,2-8.841,2.169,2.169,0,0,1,.606-.874A27.618,27.618,0,0,1,26.522,4.47c.119-.02.248-.03.377-.04-1.023.755-2.066,1.44-3.04,2.225a25.736,25.736,0,0,0-8.572,12.586,26.605,26.605,0,0,0-1.152,9.347,38.31,38.31,0,0,0,1.579,9.645A14.574,14.574,0,0,0,17.8,42.524c.407.566.427.576,1.083.338a.09.09,0,0,1,.05-.01c.755-.278.7-.278.616-1.093a33.7,33.7,0,0,1-.129-3.467,33.151,33.151,0,0,1,.963-7.847,23.429,23.429,0,0,1,5.533-10.48,26.713,26.713,0,0,1,9.536-6.427,42.685,42.685,0,0,1,8.8-2.553c1.7-.3,3.437-.407,5.165-.556a1.164,1.164,0,0,1,.745.268,24.224,24.224,0,0,1,3.4,3.447A.418.418,0,0,0,53.531,14.264ZM42.892,21.575c-1.55.328-3.079.646-4.6.993a.553.553,0,0,1-.646-.169c-.318-.377-.675-.715-1.073-1.132.993-.348,1.977-.715,2.97-1.043.576-.189,1.172-.318,1.758-.487a.466.466,0,0,1,.586.219C42.226,20.522,42.584,21.079,42.892,21.575Zm-8.751,2.364c-1.123.755-2.245,1.5-3.407,2.275-.258-.169-.586-.377-.973-.636.348-.3.646-.6.983-.844.685-.517,1.391-1,2.076-1.51a.393.393,0,0,1,.626.06A7.021,7.021,0,0,0,34.141,23.939ZM28.648,28.33C28.1,29,27.585,29.621,27.029,30.3c-.318-.189-.6-.348-.944-.546.546-.7,1.063-1.371,1.609-2.076C28.042,27.913,28.35,28.121,28.648,28.33Zm-3.069,4.142c-.367.566-.715,1.122-1.073,1.679-.258-.089-.487-.169-.775-.278.328-.646.646-1.281.993-1.947C25.022,32.114,25.28,32.283,25.578,32.472Zm-2.344,3.943c-.248.536-.477,1.033-.735,1.569-.129-.02-.288-.04-.5-.079.2-.6.4-1.162.6-1.768C22.857,36.247,23.045,36.326,23.234,36.415ZM12.4,40.727c.189-.119.338-.219.507-.328.348.278.705.566,1.1.874-.119.139-.238.278-.387.457C13.211,41.4,12.824,41.074,12.4,40.727ZM24.923,14.711c-.854,1.182-1.679,2.344-2.533,3.5a.479.479,0,0,1-.358.139c-.536-.089-1.063-.209-1.728-.338.914-1.3,1.768-2.543,2.652-3.775a.489.489,0,0,1,.457-.1C23.919,14.3,24.426,14.513,24.923,14.711ZM16.857,31.816V29.164h1.1c-.069.854-.129,1.7-.2,2.573C17.463,31.767,17.155,31.8,16.857,31.816Zm.844,3.109v1.867c-.109.04-.268.109-.5.2-.089-.665-.179-1.311-.278-2.016C17.224,34.955,17.433,34.945,17.7,34.925Zm-.338-9.307c.377-1.252.735-2.473,1.1-3.685.586.06,1.083.109,1.6.169-.407,1.113-.785,2.2-1.192,3.268a.437.437,0,0,1-.3.248C18.2,25.638,17.82,25.618,17.363,25.618Z"/>
      <path id="Path_29868" data-name="Path 29868" class="cls-5" d="M50.153,10.678a1.184,1.184,0,0,0-.745-.268c-1.728.159-3.467.258-5.165.556a43.313,43.313,0,0,0-8.8,2.553,27.061,27.061,0,0,0-9.536,6.427,23.43,23.43,0,0,0-5.533,10.48,33.216,33.216,0,0,0-.963,7.847,33.737,33.737,0,0,0,.129,3.467c.07.825.139.815-.616,1.093a.089.089,0,0,1-.05.01c-.646.238-.675.228-1.083-.338A14.818,14.818,0,0,1,15.7,38.213a38.765,38.765,0,0,1-1.579-9.645,26.872,26.872,0,0,1,1.152-9.347A25.781,25.781,0,0,1,23.849,6.635c.973-.785,2.017-1.47,3.05-2.225-.139.01-.258.02-.377.04a27.688,27.688,0,0,0-12.466,5.97,2.349,2.349,0,0,0-.606.874,29.157,29.157,0,0,0-2,8.841c-.159,2.255-.219,4.53-.209,6.794a26.733,26.733,0,0,0,1.2,7.907,19.224,19.224,0,0,0,3.04,6.228c.576.735,1.232,1.411,1.887,2.165A2.367,2.367,0,0,1,15.506,44a7.378,7.378,0,0,1-3.288-1.291A20.038,20.038,0,0,1,5.89,35.144c-.745-1.53-1.242-3.179-1.848-4.738-.01.109-.03.278-.04.457a28.471,28.471,0,0,0,.526,6.556,4.444,4.444,0,0,0,.338,1.331,14.549,14.549,0,0,0,4.361,4.808,11.122,11.122,0,0,0,8.215,1.53,14.637,14.637,0,0,0,5.066-1.748.978.978,0,0,1,.616-.874c1.222-.626,2.424-1.271,3.626-1.927a.876.876,0,0,0,.368-.457c.377-1.281.745-2.563,1.093-3.854a4.356,4.356,0,0,1,1.51-2.036,14.8,14.8,0,0,1,5.761-3.079,1.35,1.35,0,0,1,1.49.467,1.752,1.752,0,0,1,.288.616,35.084,35.084,0,0,1,1.42,7.122,55.409,55.409,0,0,1-.089,5.741c-.02.576-.109,1.152-.169,1.728a4.943,4.943,0,0,1-1.758,3.01,14.893,14.893,0,0,1-3.953,2.622,24.39,24.39,0,0,1-6.477,2.374c-.954.169-1.927.229-2.9.308-.487.04-.785-.318-.785-.854V47.391c0-.219-.01-.427-.02-.646a13.25,13.25,0,0,1-5.493,1.838,12.3,12.3,0,0,1-7.182-1.4c-.606-.338-1.232-.636-1.848-.954l-.109.109c.944,1.252,1.818,2.553,2.831,3.735a27.519,27.519,0,0,0,19.638,9.745A26.642,26.642,0,0,0,41.193,58.3,28,28,0,0,0,59.8,29.164a.615.615,0,0,0-.278-.407A15.416,15.416,0,0,0,53.808,26.4c-1.858-.268-3.715-.665-5.583-.765a30.567,30.567,0,0,0-9.933,1.242,25.4,25.4,0,0,0-9.605,5.056,20.73,20.73,0,0,0-5.93,8.413c-.129.318-.258.636-.407.954a1.247,1.247,0,0,1-.973.745c-1.023.189-1.023.209-1.063-.834A20.191,20.191,0,0,1,21.4,33.962a27.431,27.431,0,0,1,13.37-15.784c5.046-2.722,10.529-3.616,16.161-3.933.864-.05,1.738-.01,2.6-.01.01-.05.01-.1.02-.139A26.287,26.287,0,0,0,50.153,10.678ZM14.463,51.693a1.091,1.091,0,0,1-1.023-1.063,1.033,1.033,0,0,1,1.063-1,1.011,1.011,0,0,1,1.013,1.043A1.047,1.047,0,0,1,14.463,51.693Zm6.079,2.364a1.8,1.8,0,0,1-1.877,1,1.926,1.926,0,0,1-1.48-1.659,2.806,2.806,0,0,1,.387-1.758c.228-.377.477-.745.715-1.132.228-.367.437-.735.705-1.172.546.973,1.083,1.877,1.569,2.811A2,2,0,0,1,20.542,54.057Zm4.629,4.232a1.2,1.2,0,0,1-1.162-1.281A1.226,1.226,0,0,1,25.3,55.845a1.21,1.21,0,0,1,1.162,1.281A1.226,1.226,0,0,1,25.171,58.288Zm7.251,0A1.794,1.794,0,0,1,30.6,56.421,1.823,1.823,0,0,1,32.442,54.6a1.876,1.876,0,0,1,1.838,1.887A1.829,1.829,0,0,1,32.422,58.288Zm7.291-1.6a2.707,2.707,0,1,1,.01-5.414,2.707,2.707,0,1,1-.01,5.414Zm7.857-4.808a5.18,5.18,0,0,1-5.7-3.417,7.149,7.149,0,0,1,.377-6.039c.556-1.132,1.3-2.185,1.957-3.268.864-1.42,1.738-2.841,2.632-4.281.368.666.755,1.371,1.162,2.066.964,1.639,1.947,3.258,2.9,4.907a9.252,9.252,0,0,1,1.242,3.367C52.517,48.107,50.808,51.355,47.57,51.881ZM54.5,42.474a1.838,1.838,0,1,1,1.847-1.808A1.823,1.823,0,0,1,54.5,42.474ZM41.561,30.624c1.242-.745,2.483-1.5,3.745-2.235a1.406,1.406,0,0,1,.685-.2c3.01.03,6.019.089,9.029.129a.693.693,0,0,1,.546.149.481.481,0,0,1,.119.268c.139.3.3.586.457.874.109.189.209.387.318.576a11.469,11.469,0,0,1,1.411,3.328,2.94,2.94,0,0,1-.8,2.732,1.8,1.8,0,0,1-2.652.03,3.188,3.188,0,0,1-.8-3.069,11.272,11.272,0,0,1,.526-1.54c-2.384.04-4.758.069-7.142.129a1.363,1.363,0,0,0-.665.248c-1.619,1.172-3.228,2.354-4.847,3.536-.507-1.331-1-2.652-1.53-4.023C40.468,31.28,41.014,30.952,41.561,30.624Zm-3.755.914,1.013-.387a.517.517,0,0,1,.725.318c.566,1.54,1.162,3.079,1.639,4.649a1.787,1.787,0,0,1-.864,2.215c-.417.248-.824.526-1.261.8-.1-.775-.139-1.5-.3-2.2-.368-1.6-.775-3.2-1.192-4.788C37.468,31.836,37.488,31.647,37.806,31.538Z"/>
      <path id="Path_29869" data-name="Path 29869" class="cls-6" d="M22.559,54.266c0,.546.3.894.785.854a28.132,28.132,0,0,0,2.9-.308,25.1,25.1,0,0,0,6.476-2.374,14.816,14.816,0,0,0,3.953-2.622,5,5,0,0,0,1.758-3.01c.06-.576.149-1.152.169-1.728a52.829,52.829,0,0,0,.089-5.741,35.073,35.073,0,0,0-1.421-7.122,1.673,1.673,0,0,0-.288-.616,1.35,1.35,0,0,0-1.49-.467,14.927,14.927,0,0,0-5.761,3.079,4.406,4.406,0,0,0-1.51,2.036c-.348,1.291-.715,2.573-1.093,3.854a.837.837,0,0,1-.367.457c-1.2.656-2.414,1.3-3.626,1.927a.957.957,0,0,0-.616.874c0,1.132.01,2.275.01,3.407.01.219.02.427.02.646C22.559,49.706,22.559,51.981,22.559,54.266Zm4.2-8.364c2.235-1.212,4.46-2.434,6.695-3.645.3-.169.616-.318,1.023-.527.089.457.2.844.248,1.232a8.811,8.811,0,0,1-.318,4.063A3.5,3.5,0,0,1,32.5,49.229c-1.7.765-3.357,1.629-5.026,2.453-.755.377-1.043.209-1.033-.626,0-1.52.01-3.049,0-4.569A.554.554,0,0,1,26.761,45.9Z"/>
      <path id="Path_29870" data-name="Path 29870" class="cls-5" d="M47.422,18.973c.348.665.7,1.3.993,1.957a.525.525,0,0,0,.517.348c.944.05,1.887.1,2.821.209,1.321.159,2.632.377,4.013.576-.229-.785-.437-1.569-.7-2.324a.6.6,0,0,0-.437-.288c-1.262-.169-2.523-.368-3.785-.457C49.726,18.914,48.584,18.973,47.422,18.973Z"/>
      <path id="Path_29871" data-name="Path 29871" class="cls-5" d="M29.86,10.361c.715-.566,1.421-1.142,2.175-1.629.884-.566,1.818-1.053,2.742-1.579-.546-.417-1.1-.844-1.679-1.252a.472.472,0,0,0-.4.03A28.935,28.935,0,0,0,27.675,9.4c.546.358,1.063.675,1.55,1.033A.465.465,0,0,0,29.86,10.361Z"/>
      <path id="Path_29872" data-name="Path 29872" class="cls-5" d="M41.292,19.757c-.586.169-1.182.288-1.758.487-.993.328-1.977.685-2.97,1.043.4.417.755.755,1.073,1.132a.557.557,0,0,0,.646.169c1.52-.348,3.049-.665,4.6-.993-.308-.5-.656-1.053-1-1.609A.444.444,0,0,0,41.292,19.757Z"/>
      <path id="Path_29873" data-name="Path 29873" class="cls-5" d="M22.956,14.234c-.884,1.222-1.738,2.463-2.652,3.775.666.139,1.192.248,1.728.338a.432.432,0,0,0,.358-.139c.844-1.152,1.679-2.314,2.533-3.5-.5-.2-1-.407-1.51-.576A.542.542,0,0,0,22.956,14.234Z"/>
      <path id="Path_29874" data-name="Path 29874" class="cls-5" d="M6.288,25.271c.139.854.288,1.709.447,2.632.467-.318.854-.586,1.232-.864a.389.389,0,0,0,.149-.268c-.129-1.609-.268-3.209-.417-4.847a11.232,11.232,0,0,1-1.043,1.023,1.178,1.178,0,0,0-.5,1.4A7.129,7.129,0,0,1,6.288,25.271Z"/>
      <path id="Path_29875" data-name="Path 29875" class="cls-5" d="M18.575,25.608a.438.438,0,0,0,.3-.248c.4-1.073.785-2.146,1.192-3.268-.517-.05-1.013-.109-1.6-.169-.358,1.212-.725,2.434-1.1,3.685C17.82,25.618,18.2,25.638,18.575,25.608Z"/>
      <path id="Path_29876" data-name="Path 29876" class="cls-5" d="M32.82,23.235c-.685.507-1.391.993-2.076,1.51-.338.248-.636.546-.983.844.387.248.715.457.973.636,1.162-.775,2.285-1.52,3.407-2.275a8.38,8.38,0,0,1-.7-.646A.389.389,0,0,0,32.82,23.235Z"/>
      <path id="Path_29877" data-name="Path 29877" class="cls-5" d="M8.692,34.469c.318-.159.6-.288.844-.417-.308-.963-.6-1.887-.9-2.851-.348.179-.646.328-.973.5C8.007,32.641,8.344,33.545,8.692,34.469Z"/>
      <path id="Path_29878" data-name="Path 29878" class="cls-5" d="M26.1,29.751c.348.2.626.367.944.546.556-.675,1.073-1.3,1.619-1.967-.308-.209-.606-.417-.954-.656Z"/>
      <path id="Path_29879" data-name="Path 29879" class="cls-5" d="M17.97,29.164h-1.1v2.652c.3-.03.6-.05.914-.079C17.841,30.873,17.9,30.028,17.97,29.164Z"/>
      <path id="Path_29880" data-name="Path 29880" class="cls-5" d="M24.505,34.151c.358-.566.705-1.113,1.073-1.679-.3-.189-.556-.348-.854-.536-.338.666-.665,1.3-.993,1.947C24.028,33.973,24.257,34.062,24.505,34.151Z"/>
      <path id="Path_29881" data-name="Path 29881" class="cls-5" d="M11.752,38.661c-.368-.616-.715-1.192-1.063-1.778-.209.139-.387.248-.616.4.358.626.7,1.232,1.053,1.858C11.374,38.959,11.553,38.82,11.752,38.661Z"/>
      <path id="Path_29882" data-name="Path 29882" class="cls-5" d="M17.7,36.793V34.926c-.268.02-.477.03-.775.05.1.705.189,1.351.278,2.016C17.434,36.9,17.6,36.833,17.7,36.793Z"/>
      <path id="Path_29883" data-name="Path 29883" class="cls-5" d="M22.5,37.984c.248-.536.487-1.043.735-1.569-.189-.079-.377-.169-.626-.278-.209.606-.4,1.172-.6,1.768C22.21,37.945,22.369,37.964,22.5,37.984Z"/>
      <path id="Path_29884" data-name="Path 29884" class="cls-5" d="M12.9,40.4c-.169.109-.318.209-.507.328.427.348.8.675,1.212,1.013.159-.179.268-.318.387-.457C13.609,40.955,13.251,40.677,12.9,40.4Z"/>
      <path id="Path_29885" data-name="Path 29885" class="cls-7" d="M50.889,41.849c-.944-1.649-1.937-3.268-2.9-4.907-.407-.7-.785-1.4-1.162-2.066-.884,1.44-1.758,2.861-2.632,4.281-.665,1.083-1.4,2.126-1.957,3.268a7.149,7.149,0,0,0-.377,6.039,5.18,5.18,0,0,0,5.7,3.417c3.238-.526,4.947-3.775,4.559-6.665A9.01,9.01,0,0,0,50.889,41.849Z"/>
      <path id="Path_29886" data-name="Path 29886" class="cls-6" d="M46.339,32.064A1.194,1.194,0,0,1,47,31.816c2.384-.06,4.758-.089,7.142-.129.4-.01.785-.04,1.182-.03s.556-.169.526-.566c-.06-.785-.109-1.569-.159-2.354a.481.481,0,0,0-.119-.268.746.746,0,0,0-.546-.149c-3.01-.04-6.02-.1-9.029-.129a1.405,1.405,0,0,0-.685.2c-1.252.735-2.493,1.49-3.745,2.235-.546.328-1.093.656-1.6.954.517,1.371,1.023,2.682,1.53,4.023Q43.9,33.827,46.339,32.064Z"/>
      <path id="Path_29887" data-name="Path 29887" class="cls-7" d="M39.723,51.266a2.707,2.707,0,1,0-.01,5.414,2.707,2.707,0,1,0,.01-5.414Z"/>
      <path id="Path_29888" data-name="Path 29888" class="cls-7" d="M55.844,31.091c.03.4-.119.576-.526.566-.387-.01-.785.02-1.182.03a10.829,10.829,0,0,0-.526,1.54,3.164,3.164,0,0,0,.8,3.069,1.8,1.8,0,0,0,2.652-.03,2.922,2.922,0,0,0,.8-2.732,11.583,11.583,0,0,0-1.411-3.328c-.109-.189-.219-.387-.318-.576-.159-.288-.308-.576-.457-.874C55.745,29.521,55.785,30.306,55.844,31.091Z"/>
      <path id="Path_29889" data-name="Path 29889" class="cls-6" d="M38.75,36.932c.159.7.2,1.421.3,2.2.437-.288.844-.566,1.261-.8a1.8,1.8,0,0,0,.864-2.215C40.7,34.538,40.1,33,39.535,31.458a.514.514,0,0,0-.725-.318l-1.013.387c-.318.119-.328.3-.248.616C37.985,33.743,38.393,35.332,38.75,36.932Z"/>
      <path id="Path_29890" data-name="Path 29890" class="cls-7" d="M18.993,49.349c-.268.437-.477.815-.705,1.172-.238.377-.487.745-.715,1.132a2.792,2.792,0,0,0-.387,1.758,1.938,1.938,0,0,0,1.48,1.659,1.776,1.776,0,0,0,1.877-1,2.027,2.027,0,0,0,.02-1.907C20.076,51.226,19.539,50.322,18.993,49.349Z"/>
      <path id="Path_29891" data-name="Path 29891" class="cls-7" d="M32.452,54.6a1.817,1.817,0,0,0-1.838,1.818,1.788,1.788,0,0,0,1.818,1.867,1.858,1.858,0,0,0,1.867-1.8A1.9,1.9,0,0,0,32.452,54.6Z"/>
      <path id="Path_29892" data-name="Path 29892" class="cls-7" d="M54.5,38.8a1.838,1.838,0,1,0,0,3.675,1.838,1.838,0,1,0,0-3.675Z"/>
      <path id="Path_29893" data-name="Path 29893" class="cls-7" d="M25.3,55.845a1.225,1.225,0,0,0-1.291,1.162A1.228,1.228,0,1,0,25.3,55.845Z"/>
      <path id="Path_29894" data-name="Path 29894" class="cls-7" d="M14.5,49.626a1.033,1.033,0,0,0-1.063,1,1.076,1.076,0,0,0,1.023,1.063,1.047,1.047,0,0,0,1.053-1.023A1.006,1.006,0,0,0,14.5,49.626Z"/>
      <path id="Path_29895" data-name="Path 29895" class="cls-5" d="M26.443,51.057c0,.824.278.993,1.033.626,1.669-.824,3.328-1.689,5.026-2.453a3.477,3.477,0,0,0,1.907-2.205,9.088,9.088,0,0,0,.318-4.063c-.05-.4-.149-.785-.248-1.232-.417.209-.725.358-1.023.526-2.235,1.212-4.46,2.434-6.7,3.645a.568.568,0,0,0-.318.586Zm.924-5.136c1.977-1.063,3.953-2.116,5.92-3.179.318-.169.616-.387.964-.606.02.07.05.139.069.209a3.6,3.6,0,0,1-2.056,3.894,18.767,18.767,0,0,1-5.235.983,1.643,1.643,0,0,1-.229-.02C26.641,46.308,26.631,46.308,27.367,45.921Z"/>
      <path id="Path_29896" data-name="Path 29896" class="cls-6" d="M27.029,47.223a18.767,18.767,0,0,0,5.235-.983,3.6,3.6,0,0,0,2.056-3.894c-.02-.07-.04-.129-.069-.209-.348.219-.646.427-.963.606-1.977,1.063-3.953,2.116-5.92,3.179-.735.4-.735.4-.566,1.291C26.879,47.213,26.959,47.223,27.029,47.223Z"/>
    </g>
  </g>
</svg>
