<svg xmlns:xlink="http://www.w3.org/1999/xlink" viewBox="0 0 384 378.35" width="24" height="24" color="text" xmlns="http://www.w3.org/2000/svg" class="sc-bdnxRM iUqPbL"><path d="M227.62 138.59c-2.17-.38-3.19-2.18-4.47-3.67" fill="#ECD894"></path><ellipse cx="192" cy="189.18" rx="192" ry="189.18" fill="#B19E65"></ellipse><ellipse cx="191.06" cy="189.41" rx="184" ry="182.59" fill="#CEB882"></ellipse><ellipse cx="191.5" cy="189.39" rx="176.96" ry="174.36" fill="#231F20"></ellipse><ellipse cx="192" cy="189.2" rx="192" ry="189.15" fill="none"></ellipse><path d="M220.32 145.21a14 14 0 002 .51c5.1 1.62 10.36 2.64 15.46 4.19 4.43 1.35 9 2.08 13.38 3.54s8.75 2.2 13.07 3.5a24.3 24.3 0 003.08 1 .29.29 0 01.15.5c-1.37 1.18-2.8 1.93-4 3a65.1 65.1 0 01-6 4.36c-2.79 1.91-5.53 3.88-8.12 6-1.21 1-3.78-1-4.37-1.28-3.88-2-7.72-3.82-11.56-5.76-3.47-1.75-7-3.38-10.39-5.34a1.56 1.56 0 01-.75-1.08c-.79-4.26-1.91-8.45-2.54-12.73zM160.69 144.76a14.15 14.15 0 01-2 .51c-5.09 1.62-10.36 2.64-15.46 4.19-4.43 1.35-9 2.08-13.38 3.54s-8.75 2.2-13.07 3.5a24.3 24.3 0 01-3.08 1 .29.29 0 00-.15.5c1.37 1.18 2.81 1.93 4 3a67 67 0 006 4.36c2.79 1.9 5.53 3.88 8.13 6 1.2 1 3.77-1 4.37-1.28 3.87-2 7.71-3.82 11.55-5.76 3.47-1.75 7-3.38 10.39-5.34a1.62 1.62 0 00.76-1.09c.79-4.25 1.9-8.44 2.54-12.73zM116.69 256.59q-3.34-11.73-6.71-23.5-2.19-7.65-4.41-15.28a2.73 2.73 0 01.35-2.41c4.23-6.58 8.37-13.21 12.55-19.82 2.48-3.9 5-7.78 7.48-11.68 2-3.08 3.92-6.16 5.89-9.25q5.39 10.35 10.76 20.69 5.51 10.65 11 21.3c3 5.88 6 11.76 9.13 17.6.6 1.14.46 1.62-.75 2.07-4.29 1.58-33.05 14.48-35.7 15.93-2.43 1.28-8.63 4.46-9.59 4.35zM264.3 257.07l6.71-23.48c1.46-5.09 2.95-10.18 4.41-15.28a2.65 2.65 0 00-.35-2.4c-4.22-6.58-8.36-13.22-12.55-19.82-2.47-3.91-5-7.79-7.48-11.69q-2.94-4.6-5.88-9.25-5.4 10.36-10.77 20.7-5.51 10.64-11 21.3c-3 5.87-6 11.75-9.13 17.6-.6 1.13-.46 1.62.76 2.07 4.28 1.57 33.05 14.47 35.69 15.92 2.41 1.3 8.64 4.47 9.59 4.33zM164.35 234.91c-2.74-5.31-5.41-10.45-8.07-15.61q-7-13.61-14-27.23-4.14-8-8.35-16c-1.12-2.12-1.16-2.11 1-3 3.46-1.44 6.82-3.1 10.19-4.7 2.65-1.26 5.45-2.21 8-3.64 1.77-1 3.65-1.68 5.45-2.57a1.3 1.3 0 011.93.42c3.16 4.29 6.31 8.58 9.57 12.79 1.93 2.49 3.81 5 5.7 7.52q6.63 8.83 13.33 17.61c.36.46.47.76.06 1.3q-4.09 5.4-8.1 10.86c-3.86 5.22-7.63 10.51-11.57 15.67a62.22 62.22 0 01-5.14 6.58zM216.57 234.91l8.06-15.61q7-13.61 14-27.23 4.14-8 8.35-16c1.12-2.12 1.16-2.11-1-3-3.45-1.44-6.81-3.1-10.19-4.7-2.65-1.26-5.45-2.21-8-3.64-1.77-1-3.65-1.68-5.45-2.57a1.3 1.3 0 00-1.93.42c-3.16 4.29-6.31 8.58-9.57 12.79-1.93 2.49-3.81 5-5.7 7.52q-6.63 8.83-13.33 17.61c-.35.46-.47.76-.06 1.3q4.1 5.4 8.11 10.86c3.85 5.22 7.62 10.51 11.56 15.67a61.06 61.06 0 005.15 6.58zM265.81 257.06c0-1.63 6.72-22.24 9.47-31.1.62-2 1.22-4 1.82-6 .18-.62.39-.88 1.16-.57 3.94 1.61 7.74 3.53 11.65 5.2 1.61.68 3.19 1.48 4.81 2.15 3.61 1.49 7 3.35 10.7 4.74 1 .39 2 1.13 3.07 1.51a.82.82 0 01.57.93c-.16 6.19-.32 12.38-.43 18.57 0 .93-.34 1.19-1.25 1.26-11.54.84-41.57 3.31-41.57 3.31zM114.74 256.52c0-1.63-6.72-22.23-9.47-31.09-.62-2-1.22-4-1.82-6-.19-.62-.4-.88-1.16-.57-3.94 1.61-7.74 3.53-11.66 5.2-1.6.68-3.18 1.48-4.81 2.15-3.6 1.49-7 3.35-10.69 4.74-1 .39-2 1.13-3.07 1.51a.82.82 0 00-.57.93c.16 6.19.32 12.38.43 18.57 0 .93.34 1.19 1.25 1.26 11.54.81 41.57 3.3 41.57 3.3zM276.97 216.1c-2.81-4.48-5.55-8.87-8.32-13.24-1.75-2.75-3.54-5.46-5.29-8.21-4.19-6.6-8.35-13.23-12.57-19.81-.51-.8-.42-1.11.32-1.68 3.56-2.69 6.95-5.59 10.45-8.35 2.25-1.78 4.54-3.53 6.66-5.47.68-.62 1-.53 1.35.36q3.74 9.51 7.58 19c1.69 4.2 3.43 8.38 5.13 12.58q3 7.37 5.95 14.72c.17.41.41.8-.11 1.22-3.7 2.92-7.37 5.86-11.15 8.88zM130.81 173.85c-.42.75-.76 1.43-1.16 2.06q-6.25 9.75-12.53 19.5-4.53 7.05-9 14.13c-1.2 1.88-2.39 3.77-3.53 5.69-.43.73-.78.72-1.4.23-3.14-2.48-6.28-5-9.47-7.36-.83-.64-.26-1.25-.08-1.75 1.09-3 2.3-6 3.42-9q5.54-14.76 11.06-29.62c1-2.66 2.06-5.31 3-8 .39-1.1.81-1 1.58-.37 3.72 3 7.39 6.12 11.21 9 2 1.54 3.9 3.26 6 4.71.32.25.6.52.9.78zM70.06 253.03c-4.3-2.36-8.54-4.56-12.65-7s-8.25-4.68-12.37-7l-12.64-7.18c-1.74-1-3.53-1.94-5.25-3a8.24 8.24 0 012.31-2.06 96.15 96.15 0 008.36-6.2 1.83 1.83 0 012.38 0c2.39 1.37 5.12 1.88 7.58 3 3.41 1.6 7.06 2.57 10.45 4.13 2.4 1.1 4.87 1.94 7.34 2.83 1.37.49 2.51 1.49 4 1.77.48.09.53.4.53.79zM352.85 228.83c-3.23 1.79-6.46 3.48-9.6 5.33-4.44 2.61-8.94 5.1-13.42 7.63-3.78 2.13-7.58 4.21-11.27 6.47-2.7 1.65-5.7 2.77-8.19 4.76a.74.74 0 01-.31.09v-10c0-2.86.18-5.72.23-8.59a1.52 1.52 0 011.15-1.64c3.58-1.41 7.15-2.87 10.66-4.43 2.87-1.27 5.93-2.11 8.68-3.58 3.12-1.68 6.65-2.33 9.66-4.22a1.41 1.41 0 012.13.33 1.94 1.94 0 00.52.51q3.64 2.63 7.3 5.23a7.9 7.9 0 012.46 2.11zM189.61 199.36v-1.33-26.59c0-1.22-.42-1.56-1.5-1.93-4.76-1.63-9.73-2.51-14.48-4.1-3.61-1.22-7.33-2-11.32-3.21 9.13 12.61 18.35 24.85 27.26 37.16zM190.64 199.71v-1.32-26.6c0-1.22.42-1.56 1.49-1.93 4.76-1.62 9.73-2.5 14.48-4.1 3.62-1.22 7.33-2 11.32-3.21-9.13 12.61-18.35 24.85-27.26 37.16zM66.7 220.1a10.17 10.17 0 00.48 1.26c1.58 3.19 3.18 6.36 4.76 9.54.2.41 1.22 0 1.45-.13 4.06-1.84 8.16-3.61 12.18-5.54 5.5-2.64 11-5.34 16.59-7.73.88-.38 1.13-.76.12-1.36a58.61 58.61 0 01-7.81-5.51c-1.95-1.64-3.49-1.93-5.26-1-.33.18-2 1.22-3.27 1.76-3.32 1.48-9.4 4-12.37 5.25-2.08.87-4.16 1.79-6.21 2.76-.24.19-.78.12-.66.7zM314.41 220.25a12.88 12.88 0 01-.47 1.26c-1.58 3.19-3.18 6.36-4.76 9.54-.2.41-1.23 0-1.46-.14-4.06-1.84-8.15-3.61-12.17-5.53-5.51-2.64-11-5.34-16.59-7.74-.89-.37-1.14-.75-.12-1.35a58.41 58.41 0 007.81-5.52c2-1.64 3.48-1.92 5.25-1 .33.18 2.05 1.22 3.27 1.76 3.32 1.48 9.41 4 12.38 5.25 2.07.87 4.16 1.79 6.2 2.76.29.18.78.13.66.71zM311.66 230.72c1.24-3.67 2.35-6.94 3.43-10.23a1.54 1.54 0 011.2-1c5-1.45 9.71-3.58 14.64-5.17 2-.65 4-1.51 6.06-2.26.75-.28 1.18-.16 1.48.65.51 1.33 1.12 2.62 1.71 3.91.31.66.35 1.12-.52 1.38s-1.5.63-2.26.94c-3.71 1.5-7.28 3.32-10.9 5-2.65 1.24-5.44 2.21-8 3.63-2.1 1.18-4.38 2.02-6.84 3.15zM69.76 231.07c-1.24-3.67-2.35-6.94-3.43-10.23a1.54 1.54 0 00-1.2-1c-5-1.45-9.71-3.58-14.64-5.16-2-.66-4-1.52-6.06-2.27-.76-.27-1.18-.16-1.49.65-.5 1.33-1.11 2.62-1.71 3.91-.3.67-.34 1.12.52 1.38s1.51.63 2.27.94c3.7 1.5 7.28 3.32 10.9 5 2.65 1.24 5.44 2.21 8 3.64 2.1 1.17 4.34 1.99 6.84 3.14zM217.12 145.23c.7 4.67 1.32 9.06 2 13.43.16 1-.26 1.08-1 1.25-6.22 1.54-12.5 2.77-18.75 4.15-2 .45-4.07 1.08-6.64 1.54zM163.57 144.76c-.7 4.67-1.32 9.06-2 13.43-.16 1 .26 1.08 1 1.25 6.22 1.54 12.5 2.77 18.75 4.15 2.06.45 4.08 1.08 6.64 1.54zM342.01 213.29c-1-.52-1.75-1-2.57-1.38-.54-.26-.55-.63-.41-1.13 1.18-4.26 2.34-8.53 3.51-12.8.12-.42.15-.91.87-.68.51.15.62.35.55.85-.62 4.79-1.29 9.97-1.95 15.14zM39.77 213.81c1-.53 1.75-1 2.56-1.38.54-.27.56-.64.42-1.14-1.18-4.26-2.34-8.53-3.51-12.79-.12-.43-.15-.92-.88-.69-.5.16-.61.35-.54.86.62 4.78 1.3 9.92 1.95 15.14zM346.63 199.55l7.59-12.73-.5 40.39-10.14-9.09 2.22-15M34.23 199.55l-7.59-12.73.5 40.39 10.15-9.09-2.22-15M353.05 186.92l-5.33 6.95-11.75-12.17 17.08 5.22zM27.53 186.14l5.33 6.96 11.74-12.18-17.07 5.22z" fill="#B19E65"></path></svg>