<svg xmlns="http://www.w3.org/2000/svg" xmlns:xlink="http://www.w3.org/1999/xlink" width="114" height="64" viewBox="0 0 114 64">
  <defs>
    <style>
      .cls-1 {
        fill: #fff;
      }

      .cls-2 {
        clip-path: url(#clip-path);
      }

      .cls-3 {
        fill: url(#linear-gradient);
      }

      .cls-4 {
        fill: url(#linear-gradient-2);
      }

      .cls-5 {
        fill: #997c43;
      }

      .cls-6 {
        fill: url(#linear-gradient-3);
      }

      .cls-7 {
        clip-path: url(#clip-path-2);
      }

      .cls-8 {
        fill: #f0b90b;
        stroke: #f0b90b;
        stroke-width: 0.19px;
      }
    </style>
    <clipPath id="clip-path">
      <circle id="Ellipse_1805" data-name="Ellipse 1805" class="cls-1" cx="32" cy="32" r="32" transform="translate(-24757 -24305)"/>
    </clipPath>
    <linearGradient id="linear-gradient" x1="0.863" y1="0.895" x2="0.137" y2="0.105" gradientUnits="objectBoundingBox">
      <stop offset="0" stop-color="#ba8500"/>
      <stop offset="0.502" stop-color="#fffad1"/>
      <stop offset="1" stop-color="#c29431"/>
    </linearGradient>
    <linearGradient id="linear-gradient-2" x1="0.245" y1="0.834" x2="0.755" y2="0.166" gradientUnits="objectBoundingBox">
      <stop offset="0" stop-color="#ba8500"/>
      <stop offset="0.502" stop-color="#ede28e"/>
      <stop offset="1" stop-color="#c29431"/>
    </linearGradient>
    <linearGradient id="linear-gradient-3" x1="0.886" y1="0.875" x2="0.114" y2="0.125" xlink:href="#linear-gradient"/>
    <clipPath id="clip-path-2">
      <circle id="Ellipse_2031" data-name="Ellipse 2031" class="cls-1" cx="31" cy="31" r="31" transform="translate(-24425.578 -22055.555)"/>
    </clipPath>
  </defs>
  <g id="Group_852" data-name="Group 852" transform="translate(24757 24305)">
    <g id="Mask_Group_152" data-name="Mask Group 152" class="cls-2">
      <g id="Layer_x0020_1" transform="translate(-27861.379 -27409.432)">
        <g id="_2717798304480" transform="translate(3104.378 3104.432)">
          <circle id="Ellipse_2081" data-name="Ellipse 2081" class="cls-3" cx="32" cy="32" r="32"/>
          <circle id="Ellipse_2082" data-name="Ellipse 2082" class="cls-4" cx="28.973" cy="28.973" r="28.973" transform="translate(3.027 3.027)"/>
          <path id="Path_19827" data-name="Path 19827" class="cls-5" d="M3470.754,3327.135a28.93,28.93,0,0,1,26.9,39.537,28.917,28.917,0,1,0-54.2-20.186,28.921,28.921,0,0,1,27.3-19.351Z" transform="translate(-3438.739 -3324.037)"/>
          <path id="Path_19828" data-name="Path 19828" class="cls-5" d="M3642.7,3681.852a1.333,1.333,0,0,1,.216,0,1.019,1.019,0,0,1,.031,2.028q-.732.09-1.534.144c-.536.03-1.047.048-1.534.048a25.168,25.168,0,0,1-14.071-46.034,1.02,1.02,0,0,1,1.143,1.69l-.2.132a23.127,23.127,0,0,0,13.127,42.167c.5,0,.975-.018,1.414-.043S3642.208,3681.912,3642.7,3681.852Zm-3.35-25.261a2.393,2.393,0,0,1,1.119.271l18.2-10.654-16.983,12.123a2.387,2.387,0,0,1,.1.7v.03l1.211.884a1.058,1.058,0,0,1,.133.1h0a1.211,1.211,0,0,1-.777,2.141,1.2,1.2,0,0,1-.927-.432l-.715-.7a2.449,2.449,0,0,1-2.773-.043l-.945.673a1.211,1.211,0,1,1-1.305-2.015l1.233-.722a2.331,2.331,0,0,1,.385-1.233l-7.654-7.5,8.922,6.509A2.337,2.337,0,0,1,3639.345,3656.591Zm1.131-14.775a1.017,1.017,0,0,1,.06-2.032,19.175,19.175,0,0,1,9.475,2.894,1.02,1.02,0,0,1-1.077,1.732,17.132,17.132,0,0,0-8.459-2.595Zm-10.011-4.043a1.021,1.021,0,1,1-.83-1.865,25.164,25.164,0,0,1,27.4,4.584,1.02,1.02,0,1,1-1.39,1.492c-.4-.373-.812-.728-1.239-1.077a23.162,23.162,0,0,0-22.29-3.8C3631.56,3637.309,3631.012,3637.526,3630.465,3637.772Zm27.325,30.255a1.022,1.022,0,0,1,1.823.927,22.153,22.153,0,0,1-40.277-1.756,1.021,1.021,0,0,1,1.352-1.318,1.018,1.018,0,0,1,.543.56c.06.138.12.282.18.427a20.108,20.108,0,0,0,36.174,1.557c.066-.131.138-.264.2-.4Zm-4.446,1.4a1.018,1.018,0,0,1,1.605,1.253,19.129,19.129,0,1,1-18.722-30.555,1.02,1.02,0,0,1,.735,1.865.989.989,0,0,1-.349.138,17.089,17.089,0,1,0,16.731,27.3Zm-33.208-6.684a1.02,1.02,0,0,1-2,.385c-.132-.686-.234-1.39-.307-2.106a21.2,21.2,0,0,1-.1-2.119,22.159,22.159,0,0,1,34.552-18.355c.313.21.626.432.932.668a1.018,1.018,0,0,1-1.227,1.625l-.313-.229a20.111,20.111,0,0,0-31.9,16.292c0,.668.03,1.311.09,1.925.054.6.138,1.191.252,1.793Z" transform="translate(-3607.6 -3626.366)"/>
          <path id="Path_19829" data-name="Path 19829" class="cls-6" d="M3669.933,3623.906a1.347,1.347,0,0,1,.222,0,1.02,1.02,0,0,1,.025,2.027c-.487.06-1,.108-1.528.138s-1.053.054-1.534.054a25.175,25.175,0,0,1-14.077-46.041,1.022,1.022,0,1,1,1.143,1.7l-.193.133a23.127,23.127,0,0,0,13.127,42.167c.5,0,.969-.018,1.414-.043S3669.445,3623.966,3669.933,3623.906Zm-3.345-25.261a2.413,2.413,0,0,1,1.119.271l18.193-10.654-16.977,12.123a2.381,2.381,0,0,1,.1.7l-.006.03,1.215.885a1.245,1.245,0,0,1,.127.1h.006a1.213,1.213,0,1,1-1.709,1.709l-.715-.7a2.453,2.453,0,0,1-2.773-.043l-.939.667a1.211,1.211,0,1,1-1.311-2.009l1.233-.722a2.446,2.446,0,0,1,.385-1.233l-7.646-7.5,8.916,6.509a2.387,2.387,0,0,1,.782-.126Zm1.124-14.775a1.017,1.017,0,1,1,.066-2.032,19.2,19.2,0,0,1,4.927.823,18.986,18.986,0,0,1,4.541,2.07,1.02,1.02,0,0,1-1.077,1.732,17,17,0,0,0-4.055-1.853,17.306,17.306,0,0,0-4.4-.74Zm-10-4.043a1.021,1.021,0,1,1-.83-1.865,25.175,25.175,0,0,1,27.4,4.584,1.02,1.02,0,1,1-1.39,1.492c-.4-.373-.819-.728-1.245-1.077a23.158,23.158,0,0,0-22.286-3.8c-.556.2-1.111.415-1.651.662Zm27.325,30.255a1.02,1.02,0,1,1,1.817.927,22.149,22.149,0,0,1-40.271-1.756,1.022,1.022,0,0,1,1.895-.764c.054.145.115.289.173.433a20.108,20.108,0,0,0,36.175,1.556c.074-.13.14-.263.212-.395Zm-4.451,1.4a1.012,1.012,0,0,1,.661-.379.982.982,0,0,1,.77.2,1.009,1.009,0,0,1,.173,1.427,19.128,19.128,0,1,1-18.722-30.555,1.02,1.02,0,1,1,.385,2,17.091,17.091,0,1,0,16.731,27.3Zm-33.2-6.684a1.023,1.023,0,1,1-2.009.385c-.132-.686-.234-1.39-.3-2.105s-.1-1.432-.1-2.119a22.151,22.151,0,0,1,34.544-18.355c.319.211.632.433.932.668a1.018,1.018,0,1,1-1.227,1.624l-.307-.228a20.111,20.111,0,0,0-31.9,16.291c0,.667.03,1.311.09,1.925.06.6.144,1.191.259,1.793Z" transform="translate(-3634.464 -3569.226)"/>
        </g>
      </g>
    </g>
    <g id="Group_851" data-name="Group 851">
      <circle id="Ellipse_1806" data-name="Ellipse 1806" class="cls-1" cx="32" cy="32" r="32" transform="translate(-24707 -24305)"/>
      <g id="Mask_Group_151" data-name="Mask Group 151" class="cls-7" transform="translate(-280.422 -2248.445)">
        <g id="Layer_2" data-name="Layer 2" transform="translate(-24422.795 -22052.881)">
          <g id="Layer_1" data-name="Layer 1">
            <path id="Path_19710" data-name="Path 19710" class="cls-8" d="M29.671.135l6.985,7.156-17.588,17.6L12.082,17.9Z" transform="translate(-1.479 -0.135)"/>
            <path id="Path_19711" data-name="Path 19711" class="cls-8" d="M40.274,12.084l6.985,7.156-28.192,28.2-6.985-6.988Z" transform="translate(-1.479 -1.476)"/>
            <path id="Path_19712" data-name="Path 19712" class="cls-8" d="M7.118,24.034,14.1,31.19,7.118,38.177.133,31.19Z" transform="translate(-0.133 -2.818)"/>
            <path id="Path_19713" data-name="Path 19713" class="cls-8" d="M52.223,24.034l6.985,7.156-28.192,28.2-6.985-6.988Z" transform="translate(-2.825 -2.818)"/>
          </g>
        </g>
      </g>
    </g>
  </g>
</svg>
