<svg xmlns="http://www.w3.org/2000/svg" xmlns:xlink="http://www.w3.org/1999/xlink" width="114" height="64" viewBox="0 0 114 64">
  <defs>
    <style>
      .cls-1, .cls-5 {
        fill: #fff;
      }

      .cls-2 {
        clip-path: url(#clip-path);
      }

      .cls-3 {
        fill: #103f68;
      }

      .cls-4, .cls-6 {
        fill: none;
      }

      .cls-4 {
        stroke: #fff;
        stroke-width: 2.125px;
      }

      .cls-4, .cls-5, .cls-6 {
        fill-rule: evenodd;
      }

      .cls-6 {
        stroke: #979797;
        stroke-width: 0.125px;
      }

      .cls-7 {
        clip-path: url(#clip-path-2);
      }

      .cls-8 {
        fill: #2775ca;
      }
    </style>
    <clipPath id="clip-path">
      <circle id="Ellipse_1734" data-name="Ellipse 1734" class="cls-1" cx="32" cy="32" r="32" transform="translate(-24083 -9037)"/>
    </clipPath>
    <clipPath id="clip-path-2">
      <circle id="Ellipse_202" data-name="Ellipse 202" class="cls-1" cx="32" cy="32" r="32"/>
    </clipPath>
  </defs>
  <g id="Group_9734" data-name="Group 9734" transform="translate(-17318 23245)">
    <g id="Group_9708" data-name="Group 9708" transform="translate(1054 465)">
      <g id="Mask_Group_283" data-name="Mask Group 283" class="cls-2" transform="translate(40347 -14673)">
        <g id="Page-1" transform="translate(-24083 -9037)">
          <circle id="Oval" class="cls-3" cx="32" cy="32" r="32"/>
          <path id="Polygon" class="cls-4" d="M32.188,11.164,50.232,21.582V42.418L32.188,52.836,14.143,42.418V21.582Z"/>
          <path id="Path" class="cls-5" d="M24.379,19.561l-1.686,7.632H41.121l-1.8-7.632Z"/>
          <path id="Path-2" class="cls-5" d="M22.626,29.8,17.637,33.54l6.8,11.908h2.735l3.212-3.02v-1.5l-3.335-3.2v-5.1Z"/>
          <path id="Path-2-2" data-name="Path-2" class="cls-5" d="M38.372-29.745l-4.989-3.742,6.8-11.908h2.735l3.211,3.02v1.5l-3.335,3.2v5.1Z" transform="translate(79.513) rotate(180)"/>
          <path id="Path-3" class="cls-6"/>
          <path id="Path-4" class="cls-5" d="M27.068,28.362l1.623,4.257-.5,4.771,7.4-.024-.452-4.747,1.6-4.257Z"/>
        </g>
      </g>
      <g id="Mask_Group_50" data-name="Mask Group 50" class="cls-7" transform="translate(16314 -23710)">
        <g id="usd-coin-usdc-logo" transform="translate(0)">
          <path id="Path_5250" data-name="Path 5250" class="cls-8" d="M32,64A31.923,31.923,0,1,0,9.35,54.65,32,32,0,0,0,32,64Z" transform="translate(0)"/>
          <path id="Path_5251" data-name="Path 5251" class="cls-1" d="M40.8,37.067c0-4.667-2.8-6.267-8.4-6.933-4-.533-4.8-1.6-4.8-3.467s1.333-3.067,4-3.067c2.4,0,3.733.8,4.4,2.8a1,1,0,0,0,.933.667h2.133A.911.911,0,0,0,40,26.133V26a6.661,6.661,0,0,0-6-5.467v-3.2c0-.533-.4-.933-1.067-1.067h-2c-.533,0-.933.4-1.067,1.067V20.4c-4,.533-6.533,3.2-6.533,6.533,0,4.4,2.667,6.133,8.267,6.8,3.733.667,4.933,1.467,4.933,3.6s-1.867,3.6-4.4,3.6c-3.467,0-4.667-1.467-5.067-3.467a.974.974,0,0,0-.933-.8H23.867a.911.911,0,0,0-.933.933v.133c.533,3.333,2.667,5.733,7.067,6.4v3.2c0,.533.4.933,1.067,1.067h2c.533,0,.933-.4,1.067-1.067v-3.2c4-.667,6.667-3.467,6.667-7.067Z" transform="translate(0)"/>
          <path id="Path_5252" data-name="Path 5252" class="cls-1" d="M25.2,51.067a19.952,19.952,0,0,1,0-37.467,1.338,1.338,0,0,0,.8-1.333V10.4a1.013,1.013,0,0,0-.8-1.067.8.8,0,0,0-.533.133,23.994,23.994,0,0,0,0,45.733.811.811,0,0,0,1.2-.533C26,54.533,26,54.4,26,54.133V52.267A1.776,1.776,0,0,0,25.2,51.067Zm14.133-41.6a.811.811,0,0,0-1.2.533c-.133.133-.133.267-.133.533V12.4a1.769,1.769,0,0,0,.8,1.333,19.952,19.952,0,0,1,0,37.467,1.338,1.338,0,0,0-.8,1.333V54.4a1.013,1.013,0,0,0,.8,1.067.8.8,0,0,0,.533-.133,24.1,24.1,0,0,0,0-45.867Z" transform="translate(0)"/>
        </g>
      </g>
    </g>
  </g>
</svg>
