<svg xmlns="http://www.w3.org/2000/svg" xmlns:xlink="http://www.w3.org/1999/xlink" width="114" height="64" viewBox="0 0 114 64">
  <defs>
    <style>
      .cls-1, .cls-5 {
        fill: #fff;
      }

      .cls-2 {
        clip-path: url(#clip-path);
      }

      .cls-3 {
        fill: #103f68;
      }

      .cls-4, .cls-6 {
        fill: none;
      }

      .cls-4 {
        stroke: #fff;
        stroke-width: 2.125px;
      }

      .cls-4, .cls-5, .cls-6 {
        fill-rule: evenodd;
      }

      .cls-6 {
        stroke: #979797;
        stroke-width: 0.125px;
      }

      .cls-7 {
        clip-path: url(#clip-path-2);
      }

      .cls-8 {
        fill: #1969ff;
      }
    </style>
    <clipPath id="clip-path">
      <circle id="Ellipse_1859" data-name="Ellipse 1859" class="cls-1" cx="32" cy="32" r="32" transform="translate(-24083 -9037)"/>
    </clipPath>
    <clipPath id="clip-path-2">
      <circle id="Ellipse_1759" data-name="Ellipse 1759" class="cls-1" cx="32" cy="32" r="32" transform="translate(19050 -23246)"/>
    </clipPath>
  </defs>
  <g id="Group_9740" data-name="Group 9740" transform="translate(-19000 23246)">
    <g id="Mask_Group_328" data-name="Mask Group 328" class="cls-2" transform="translate(43083 -14209)">
      <g id="Page-1" transform="translate(-24083 -9037)">
        <circle id="Oval" class="cls-3" cx="32" cy="32" r="32"/>
        <path id="Polygon" class="cls-4" d="M32.188,11.164,50.232,21.582V42.418L32.188,52.836,14.143,42.418V21.582Z"/>
        <path id="Path" class="cls-5" d="M24.379,19.561l-1.686,7.632H41.121l-1.8-7.632Z"/>
        <path id="Path-2" class="cls-5" d="M22.626,29.8,17.637,33.54l6.8,11.908h2.735l3.212-3.02v-1.5l-3.335-3.2v-5.1Z"/>
        <path id="Path-2-2" data-name="Path-2" class="cls-5" d="M38.372-29.745l-4.989-3.742,6.8-11.908h2.735l3.211,3.02v1.5l-3.335,3.2v5.1Z" transform="translate(79.513) rotate(180)"/>
        <path id="Path-3" class="cls-6"/>
        <path id="Path-4" class="cls-5" d="M27.068,28.362l1.623,4.257-.5,4.771,7.4-.024-.452-4.747,1.6-4.257Z"/>
      </g>
    </g>
    <g id="Mask_Group_335" data-name="Mask Group 335" class="cls-7">
      <g id="circle" transform="translate(19050 -23246)">
        <g id="Fantom-circle">
          <circle id="Oval-2" data-name="Oval" class="cls-8" cx="32" cy="32" r="32"/>
          <path id="Shape" class="cls-1" d="M30.06,10.176a4.44,4.44,0,0,1,3.8,0l11,5.8a1.859,1.859,0,0,1,1.07,1.379h.011V46.507a1.813,1.813,0,0,1-1.08,1.517l-11,5.8a4.44,4.44,0,0,1-3.8,0l-11-5.8A1.8,1.8,0,0,1,18,46.507c0-.059,0-.107,0-.147V17.551q0-.061,0-.121v-.075h0a1.772,1.772,0,0,1,1.052-1.379ZM44.188,33.563,33.853,39.029a4.42,4.42,0,0,1-3.791,0L19.75,33.575V46.417l10.312,5.425a4.42,4.42,0,0,0,1.86.658h.036a4.338,4.338,0,0,0,1.82-.608l10.41-5.522ZM16.276,45.875a5.419,5.419,0,0,0,.384,2.37,3.006,3.006,0,0,0,1.11,1.156l.033.023c.127.087.268.177.438.284l.2.124.619.377-.887,1.48-.692-.422-.116-.072c-.2-.125-.366-.232-.521-.337-1.654-1.125-2.271-2.352-2.283-4.9v-.078ZM31.125,25.813a1.57,1.57,0,0,0-.223.1L19.917,31.726l-.033.018-.009.005.017.01.025.014L30.9,37.592a1.57,1.57,0,0,0,.223.1Zm1.75,0V37.688a1.568,1.568,0,0,0,.224-.1l10.984-5.818.033-.018.009-.005-.017-.01-.025-.014L33.1,25.908A1.568,1.568,0,0,0,32.875,25.813Zm11.313-6.375-9.875,5.188,9.875,5.188Zm-24.437,0V29.813l9.875-5.187Zm13.339-7.711a2.729,2.729,0,0,0-2.178,0L19.917,17.539l-.033.018-.009.005.017.01.025.014L30.911,23.4a2.728,2.728,0,0,0,2.178,0l10.994-5.812.033-.018.009-.005-.017-.01-.025-.014Zm12.736.586.692.422.116.072c.2.125.366.232.521.337,1.654,1.125,2.271,2.352,2.283,4.9v.078H47.724a5.419,5.419,0,0,0-.384-2.37,3.005,3.005,0,0,0-1.11-1.155l-.033-.023c-.127-.087-.268-.177-.438-.284l-.2-.124-.619-.377Z"/>
        </g>
      </g>
    </g>
  </g>
</svg>
