<svg xmlns="http://www.w3.org/2000/svg" xmlns:xlink="http://www.w3.org/1999/xlink" width="114" height="64" viewBox="0 0 114 64">
  <defs>
    <style>
      .cls-1, .cls-7 {
        fill: #fff;
      }

      .cls-2 {
        clip-path: url(#clip-path);
      }

      .cls-3 {
        clip-path: url(#clip-path-2);
      }

      .cls-4 {
        clip-path: url(#clip-path-3);
      }

      .cls-5 {
        fill: #103f68;
      }

      .cls-102, .cls-6, .cls-8 {
        fill: none;
      }

      .cls-6 {
        stroke: #fff;
        stroke-width: 2.125px;
      }

      .cls-100, .cls-101, .cls-103, .cls-104, .cls-105, .cls-106, .cls-107, .cls-13, .cls-14, .cls-15, .cls-16, .cls-17, .cls-18, .cls-19, .cls-20, .cls-21, .cls-22, .cls-23, .cls-24, .cls-25, .cls-26, .cls-27, .cls-28, .cls-29, .cls-30, .cls-31, .cls-32, .cls-33, .cls-34, .cls-35, .cls-36, .cls-37, .cls-38, .cls-39, .cls-40, .cls-41, .cls-42, .cls-43, .cls-44, .cls-45, .cls-46, .cls-47, .cls-48, .cls-49, .cls-50, .cls-51, .cls-52, .cls-53, .cls-54, .cls-55, .cls-56, .cls-57, .cls-58, .cls-59, .cls-6, .cls-60, .cls-61, .cls-62, .cls-63, .cls-64, .cls-65, .cls-66, .cls-67, .cls-68, .cls-69, .cls-7, .cls-70, .cls-71, .cls-72, .cls-73, .cls-74, .cls-75, .cls-76, .cls-77, .cls-78, .cls-79, .cls-8, .cls-80, .cls-81, .cls-82, .cls-83, .cls-84, .cls-85, .cls-86, .cls-87, .cls-88, .cls-89, .cls-90, .cls-91, .cls-92, .cls-93, .cls-94, .cls-95, .cls-96, .cls-97, .cls-98, .cls-99 {
        fill-rule: evenodd;
      }

      .cls-8 {
        stroke: #979797;
        stroke-width: 0.125px;
      }

      .cls-9 {
        clip-path: url(#clip-path-4);
      }

      .cls-10 {
        fill: #988430;
      }

      .cls-11 {
        fill: #7a6a2a;
      }

      .cls-12 {
        fill: #ba9f33;
      }

      .cls-13 {
        fill: #cfb66c;
      }

      .cls-14 {
        fill: #e2cc85;
      }

      .cls-15 {
        fill: #f1d789;
      }

      .cls-16 {
        fill: #f4ecb4;
      }

      .cls-17 {
        fill: #f3e19d;
      }

      .cls-18 {
        fill: #f2e8b0;
      }

      .cls-19 {
        fill: #f5eec0;
      }

      .cls-20 {
        fill: #e6db9d;
      }

      .cls-21 {
        fill: #e5cb7a;
      }

      .cls-22 {
        fill: #d8c173;
      }

      .cls-23 {
        fill: #e0cd81;
      }

      .cls-24 {
        fill: #dfc57c;
      }

      .cls-25 {
        fill: #e5cc7c;
      }

      .cls-26 {
        fill: #d2c281;
      }

      .cls-27 {
        fill: #e2c270;
      }

      .cls-28 {
        fill: #ccb360;
      }

      .cls-29 {
        fill: #d5b457;
      }

      .cls-30 {
        fill: #d2b257;
      }

      .cls-31 {
        fill: #d2b159;
      }

      .cls-32 {
        fill: #c2a44d;
      }

      .cls-33 {
        fill: #caa13e;
      }

      .cls-34 {
        fill: #b59544;
      }

      .cls-35 {
        fill: #c89d3a;
      }

      .cls-36 {
        fill: #ceb052;
      }

      .cls-37 {
        fill: #cca847;
      }

      .cls-38 {
        fill: #c39d3c;
      }

      .cls-39 {
        fill: #d2ba6b;
      }

      .cls-40 {
        fill: #c0993a;
      }

      .cls-41 {
        fill: #a88f33;
      }

      .cls-42 {
        fill: #e3c571;
      }

      .cls-43 {
        fill: #d8b65b;
      }

      .cls-44 {
        fill: #d3ae4d;
      }

      .cls-45 {
        fill: #f4efc8;
      }

      .cls-46 {
        fill: #ebcc73;
      }

      .cls-47 {
        fill: #e5c66b;
      }

      .cls-48 {
        fill: #e6bd62;
      }

      .cls-49 {
        fill: #b6933f;
      }

      .cls-50 {
        fill: #c49937;
      }

      .cls-51 {
        fill: #dfc068;
      }

      .cls-52 {
        fill: #c99e3d;
      }

      .cls-53 {
        fill: #b58634;
      }

      .cls-54 {
        fill: #e6c367;
      }

      .cls-55 {
        fill: #dcba5a;
      }

      .cls-56 {
        fill: #e9ce77;
      }

      .cls-57 {
        fill: #cdae50;
      }

      .cls-58 {
        fill: #d2a83e;
      }

      .cls-59 {
        fill: #c29637;
      }

      .cls-60 {
        fill: #ac8132;
      }

      .cls-61 {
        fill: #a67a2e;
      }

      .cls-62 {
        fill: #8c6228;
      }

      .cls-63 {
        fill: #cba94c;
      }

      .cls-64 {
        fill: #be9c44;
      }

      .cls-65 {
        fill: #a17c34;
      }

      .cls-66 {
        fill: #92723a;
      }

      .cls-67 {
        fill: #b18e3e;
      }

      .cls-68 {
        fill: #543e26;
      }

      .cls-69 {
        fill: #806031;
      }

      .cls-70 {
        fill: #b6903c;
      }

      .cls-71 {
        fill: #685026;
      }

      .cls-72 {
        fill: #d4b968;
      }

      .cls-73 {
        fill: #cca849;
      }

      .cls-74 {
        fill: #585136;
      }

      .cls-75 {
        fill: #252211;
      }

      .cls-76 {
        fill: #c3b378;
      }

      .cls-77 {
        fill: #e6d89c;
      }

      .cls-78 {
        fill: #6f674d;
      }

      .cls-79 {
        fill: #ac924c;
      }

      .cls-80 {
        fill: #9f8e57;
      }

      .cls-81 {
        fill: #eac970;
      }

      .cls-82 {
        fill: #d7bc6b;
      }

      .cls-83 {
        fill: #453a25;
      }

      .cls-84 {
        fill: #84754b;
      }

      .cls-85 {
        fill: #f7f7e7;
      }

      .cls-86 {
        fill: #f8f6de;
      }

      .cls-87 {
        fill: #d4c38b;
      }

      .cls-88 {
        fill: #e2d59d;
      }

      .cls-89 {
        fill: #cbac5a;
      }

      .cls-90 {
        fill: #d6bc6f;
      }

      .cls-91 {
        fill: #dfc677;
      }

      .cls-92 {
        fill: #c4a859;
      }

      .cls-93 {
        fill: #927d49;
      }

      .cls-94 {
        fill: #6e6342;
      }

      .cls-95 {
        fill: #39331f;
      }

      .cls-96 {
        fill: #292311;
      }

      .cls-97 {
        fill: #3f3824;
      }

      .cls-98 {
        fill: #2d2815;
      }

      .cls-99 {
        fill: #82764f;
      }

      .cls-100 {
        fill: #2d2816;
      }

      .cls-101 {
        fill: #574f35;
      }

      .cls-103 {
        fill: #dec270;
      }

      .cls-104 {
        fill: #cbaf59;
      }

      .cls-105 {
        fill: #e3c677;
      }

      .cls-106 {
        fill: #ecd592;
      }

      .cls-107 {
        fill: rgba(255,255,255,0.8);
      }
    </style>
    <clipPath id="clip-path">
      <circle id="Ellipse_1805" data-name="Ellipse 1805" class="cls-1" cx="32" cy="32" r="32" transform="translate(-24921 -24457)"/>
    </clipPath>
    <clipPath id="clip-path-2">
      <circle id="Ellipse_1807" data-name="Ellipse 1807" class="cls-1" cx="32" cy="32" r="32" transform="translate(-24123 -23674)"/>
    </clipPath>
    <clipPath id="clip-path-3">
      <circle id="Ellipse_2221" data-name="Ellipse 2221" class="cls-1" cx="32" cy="32" r="32" transform="translate(-24083 -9037)"/>
    </clipPath>
    <clipPath id="clip-path-4">
      <circle id="Ellipse_1806" data-name="Ellipse 1806" class="cls-1" cx="32" cy="32" r="32" transform="translate(-24871 -24457)"/>
    </clipPath>
  </defs>
  <g id="Group_775" data-name="Group 775" transform="translate(24921 24457)">
    <g id="Mask_Group_76" data-name="Mask Group 76" class="cls-2">
      <g id="Group_720" data-name="Group 720" transform="translate(-798 -783)">
        <g id="Mask_Group_11" data-name="Mask Group 11" class="cls-3">
          <g id="Mask_Group_471" data-name="Mask Group 471" class="cls-4" transform="translate(-40 -14637)">
            <g id="Page-1" transform="translate(-24083 -9037)">
              <circle id="Oval" class="cls-5" cx="32" cy="32" r="32"/>
              <path id="Polygon" class="cls-6" d="M32.188,11.164,50.232,21.582V42.418L32.188,52.836,14.143,42.418V21.582Z"/>
              <path id="Path" class="cls-7" d="M24.379,19.561l-1.686,7.632H41.121l-1.8-7.632Z"/>
              <path id="Path-2" class="cls-7" d="M22.626,29.8l-4.989,3.74,6.8,11.908h2.735l3.212-3.02v-1.5l-3.335-3.2v-5.1Z"/>
              <path id="Path-2-2" data-name="Path-2" class="cls-7" d="M38.372-29.745l-4.989-3.742,6.8-11.908h2.735l3.211,3.02v1.5l-3.335,3.2v5.1Z" transform="translate(79.513) rotate(180)"/>
              <path id="Path-3" class="cls-8"/>
              <path id="Path-4" class="cls-7" d="M27.068,28.362l1.623,4.257-.5,4.771,7.4-.024-.452-4.747,1.6-4.257Z"/>
            </g>
          </g>
        </g>
      </g>
    </g>
    <g id="Mask_Group_75" data-name="Mask Group 75" class="cls-9">
      <g id="Layer_2" data-name="Layer 2" transform="translate(-24871 -24457)">
        <g id="Layer_1" data-name="Layer 1">
          <g id="Layer_1-2" data-name="Layer_1">
            <circle id="Ellipse_1851" data-name="Ellipse 1851" class="cls-10" cx="32" cy="32" r="32"/>
            <circle id="Ellipse_1852" data-name="Ellipse 1852" class="cls-11" cx="30.975" cy="30.975" r="30.975" transform="translate(1.025 1.025)"/>
            <circle id="Ellipse_1853" data-name="Ellipse 1853" class="cls-12" cx="30.322" cy="30.322" r="30.322" transform="translate(1.678 1.678)"/>
            <path id="Path_17673" data-name="Path 17673" class="cls-13" d="M13.991,28.583c-.181-.166-.373-.331-.549-.5s-.357-.331-.538-.5l-.539-.512c-.088-.088-.181-.166-.269-.254s-.191-.166-.28-.243c-.715-.678-1.434-1.356-2.138-2.035.73.668,1.445,1.331,2.175,2.009l.254.254c.088.088.181.166.269.254l.538.5c.181.166.357.331.539.512s.357.347.539.512ZM4.5,28.48s2.6.269,3.868.45c1.175.166,4.852.73,4.852.73Zm0,0c.73.062,1.46.14,2.19.217.373.036.73.077,1.087.114l.549.062.539.077,2.175.347,1.087.181c.357.062.715.13,1.087.192-.357-.036-.73-.088-1.087-.14l-1.087-.155L8.87,29.055c-.181-.026-.357-.062-.539-.088L7.782,28.9c-.357-.036-.73-.088-1.087-.13-.73-.088-1.46-.181-2.19-.295Zm8.461,1.858s-2.775.7-3.713.974c-.922.254-3.713,1.1-3.713,1.1l7.425-2.076Z"/>
            <path id="Path_17674" data-name="Path 17674" class="cls-13" d="M12.966,30.338c-.616.181-1.229.357-1.854.523l-1.854.5c-.616.181-1.229.357-1.843.539l-.922.254c-.305.088-.616.166-.932.254.305-.1.616-.207.922-.3l.922-.295c.616-.192,1.229-.373,1.843-.565.626-.155,1.243-.321,1.869-.471.6-.15,1.222-.3,1.849-.44h0ZM5.929,34.123c.305-.114,3.826-1.755,4.645-2.138.41-.192,1.6-.614,1.6-.614Z"/>
            <path id="Path_17675" data-name="Path 17675" class="cls-13" d="M5.929,34.123c.269-.1.523-.228.782-.347l.766-.357,1.538-.74c.512-.243,1.01-.512,1.538-.741.269-.114.539-.207.808-.295l.41-.129c.14-.036.269-.078.41-.114-.512.243-1.051.451-1.564.688-.512.254-1.036.461-1.564.689l-1.564.688c-.525.213-1.037.44-1.56.658h0Zm.341,1.434s3.189-1.869,4.287-2.47c.575-.321,2.434-1.243,2.434-1.243Z"/>
            <path id="Path_17676" data-name="Path 17676" class="cls-13" d="M6.271,35.557c.538-.331,1.087-.668,1.636-1.01l.819-.5c.28-.166.549-.321.834-.486s.549-.331.834-.487a2.988,2.988,0,0,1,.425-.217l.435-.217c.575-.28,1.15-.565,1.755-.808-.549.347-1.113.642-1.678.948-.28.155-.565.3-.844.451s-.549.321-.834.471c-.28.166-.549.321-.834.471l-.844.461-1.7.922h0Zm6.695-3.3s-1.983,1.522-2.625,2.009-2.532,1.854-2.532,1.854Z"/>
            <path id="Path_17677" data-name="Path 17677" class="cls-14" d="M24.347,44.531,23.332,42.61l.59-2.4,4.21-1.626L26.34,34.905l.885-3.713,1.662-3.325,5.137-.808,3.774-3.6,8.15.616,1.6,8.715L44.469,43.764l-1.755,5.68-7.115.269-3.3-2.289L28.427,45.81Z"/>
            <path id="Path_17678" data-name="Path 17678" class="cls-15" d="M36.826,44.469a6.01,6.01,0,0,1-2.662.347c-.486-.652-3.887-.958-3.887-.958a1.9,1.9,0,0,0-1.176.181,13.085,13.085,0,0,1-2.138.435c-.668.166-1.331-.7-1.843-.885a7.192,7.192,0,0,1-1.191-.652l-1.434-.14-2.879-1.217-4.574-4.556L13.8,38.968l-.383,2.408L14.8,44.229l3.723,3.391,7.259,1.843,4.3-1.268,5.39-2.278,1.352-1.45Z"/>
            <path id="Path_17679" data-name="Path 17679" class="cls-16" d="M11.034,28.365l.922-2.791,1.1-1.8,3.536-.3-1.062,3.1-2.956,5.261,1.227,4.7-2.175,1.087-.668-1.025-.538-2.351L10.382,31.6Z"/>
            <path id="Path_17680" data-name="Path 17680" class="cls-17" d="M15,44.277l-.678-.948a1.555,1.555,0,0,1-.077-.844c.1-.4.088-.425.036-.575s-.487-.668-.461-1.113-.036-.6.295-.958a1.2,1.2,0,0,0,.243-.948l.451.28.1-.155a.461.461,0,0,1,.166.331c.036-.28-.114-1.574.228-1.869s.948,1.382.948,1.382l-.373-2.434-.958-2.5-1.7-2.278-.1-2.512v-.217a8.452,8.452,0,0,0-1,2.15c-.155.652.217,1.445.14,2.382-.062.932-.14.859.088,1.229s.782,1.129.565,1.678c-.191.471-.844.14-.844.14a1.417,1.417,0,0,1-.305.523,1.159,1.159,0,0,0-.254-.512c-.011.088-.036.207-.036.207s-.114-.357-.228-.808c-.155-.6-.321-1.393-.471-1.817-.062.243-.217.984-.217.984l.088,1.139.425,1.564.41,1.024.4,1.253.346.842.28.642.243,1.445,1.175,1.242.627.28L15,44.277h0Z"/>
            <path id="Path_17681" data-name="Path 17681" class="cls-18" d="M11.65,26.087a9.844,9.844,0,0,0-1.087,2.879,19.038,19.038,0,0,0-.307,4.94,20.458,20.458,0,0,0,.689,4.07,22.682,22.682,0,0,0,1.47,3.454l.036-.078a5.457,5.457,0,0,1-.425-1.062c-.14-.549-.192-1.2-.321-1.5a7.142,7.142,0,0,1-.4-.911,3.894,3.894,0,0,0-.373-1.3,2.645,2.645,0,0,1-.3-1.036c-.052-.653.026-1.383-.036-1.983a7.976,7.976,0,0,1-.088-2.2c.1-.523.642-2.009.974-3.189.217-.756.088-1.393.486-2.051a5.791,5.791,0,0,0,.73-1.626c.1-.362-1.056,1.595-1.056,1.595h0Z"/>
            <path id="Path_17682" data-name="Path 17682" class="cls-19" d="M15.653,25.512a1.693,1.693,0,0,0-.642.357,9.34,9.34,0,0,0-.575.766,6.011,6.011,0,0,0-.523,1.129c-.228.451-.73,1.129-.792,1.372s-.166,1.382-.295,1.921a2.586,2.586,0,0,0,.129,1.2l.295-.062a.93.93,0,0,0,.3.642c.295.254.347-.86.347-.86L15,28.256l1.662-1.129.181-.911-1.186-.7h0Z"/>
            <path id="Path_17683" data-name="Path 17683" class="cls-20" d="M16.461,27.2a2.784,2.784,0,0,0-1.165.331c-.155.114-.217.207-.383.347a2.532,2.532,0,0,0-.766.819,5.432,5.432,0,0,0-.471,1.781c-.052.4-.052.766-.088,1.087A4.529,4.529,0,0,0,13.5,32.59c.052.5.565.756.614,1.32l1.062-.538,1-3.941L18.3,28.1l-1.2-1.346-.637.444h0Z"/>
            <path id="Path_17684" data-name="Path 17684" class="cls-21" d="M10.861,53.736l.013-.118c.155-1.331.181-2.34.295-2.972a7.8,7.8,0,0,0,.254-1.564,7.034,7.034,0,0,1-.026-1.346c.077-.549.616-1.2.6-1.652a1.4,1.4,0,0,0-.347-.808c-.155-.217-.28-.4-.28-.4s1.062-.73,1.051-3.671a.279.279,0,0,1,.062.026l.523,1.486.357.435,1.372,2.558L16.5,47.425l2.609,1.755,1.636,1.781.166,4.748-2.138,2.775-.35.634a30.416,30.416,0,0,1-7.565-5.383Z"/>
            <path id="Path_17685" data-name="Path 17685" class="cls-22" d="M17.393,58.278a1.463,1.463,0,0,1,.523-.973.581.581,0,0,1,.114.347,3.087,3.087,0,0,1,2.1-1.408,2.155,2.155,0,0,0,1.73-1.268l2.956-2.687,3.381-3.112,4.111-1.445,1.921-.471a1.062,1.062,0,0,1-.036.451,9.35,9.35,0,0,0,1.973-.5c.331-.129.642-.181.808-.01a1.775,1.775,0,0,1,.295,1.087c.4-.088.859-.471,1.229-.435.591.062,1.113.756,1.714.756.792,0,1.149-.487,1.7-.87.331-.228.808-.512,1.077-.7.642-.471,7.436-2.548,7.436-2.548l2.382.155L53.19,47.2l-.2,6.687-.076.074L42.08,59.619l-15.012,2.3a30.109,30.109,0,0,1-9.6-3.3l-.077-.341h0Z"/>
            <path id="Path_17686" data-name="Path 17686" class="cls-15" d="M11.771,54.586c.213-.446.405-.819.439-.953.027.269.075.859.174,1.487q-.31-.263-.613-.534Z"/>
            <path id="Path_17687" data-name="Path 17687" class="cls-23" d="M22.737,60.879l1.942-.54.166.052s.088.052.088.228c.243-.14.451-.114.6-.207.077.166.155.714.5.782a1.52,1.52,0,0,0,1.129-.45,7.535,7.535,0,0,1,1.149-.844,6.171,6.171,0,0,1,.321.688c.435-.347,1.191-1.755,2.268-1.73a4.086,4.086,0,0,1,1.5-1.807,3.255,3.255,0,0,1,2.408-.668,4.117,4.117,0,0,1,1.129-1.01,1.04,1.04,0,0,0,.932.062c.451-.207.958-1.01,1.626-1.113a1.57,1.57,0,0,1,1.036.217,16.9,16.9,0,0,1,3.288-2.574c-.052-.155-.155-.74,1.419-2.035.088.078.026.3.088.307a3.656,3.656,0,0,0,.9-.539,7.284,7.284,0,0,1,1.755-1.051,2.456,2.456,0,0,1,1.688.254.778.778,0,0,1,.243-.114,3.205,3.205,0,0,0,.471-.1,3.275,3.275,0,0,1,0,1.129,2.517,2.517,0,0,0,.512.217,2.315,2.315,0,0,1-.6.911c.269.129.305.28.688.41a7.6,7.6,0,0,0-.523.819c-.114.243-.523,1.253-.7,1.636s-.45,1.087-.575,1.229a9.84,9.84,0,0,1-.922,1.035c.307-.114,1.564-.5,2.1-.642-.159.233-.963,1.426-1.737,2.574a30.383,30.383,0,0,1-24.873,2.879Z"/>
            <path id="Path_17688" data-name="Path 17688" class="cls-24" d="M16.589,27.06a1.874,1.874,0,0,0-.538.062c-.088.062.451.192.616.254a1.415,1.415,0,0,1,.616.575,26.274,26.274,0,0,0,3.236,1.486l2.227-.114.768-1.061-1.46-1.279,1.024-3.019-1.356.217-3.262,1.946-1.636.627-.233.306Z"/>
            <path id="Path_17689" data-name="Path 17689" class="cls-25" d="M21.478,28.06a.349.349,0,0,0,.307.166,1.378,1.378,0,0,1,1.061.347c.3.373,1.113,1.564,1.113,1.564l1.957.7.126-2.3L23.905,27.05l-2.434.9v.114h.005Z"/>
            <path id="Path_17690" data-name="Path 17690" class="cls-26" d="M21.094,28.914a2.128,2.128,0,0,0,.808-.14c.451-.166,1.191-.523,1.512-.383.45.191.357.792.844,1.331.295.331.834.321,1.139.679s1.356.191,1.356.191l.4,2.15-1.6,2.051-.523,2.547H22.866l-1.976-.784L19.916,34.2,20.4,31.82l.692-2.906Z"/>
            <path id="Path_17691" data-name="Path 17691" class="cls-27" d="M25.279,29.017a.586.586,0,0,0,.166.026.429.429,0,0,0-.14.461c.052.3.217.668.078.9a1.12,1.12,0,0,1,.243.425c.088.254.114.487.688.523a1.209,1.209,0,0,0-.228.181,3.783,3.783,0,0,1,.6.668,4.944,4.944,0,0,0,.756-.18l.114.078.243-.1s-.228-.088-.062-.642c.155-.487.3-.461.307-.5a5.09,5.09,0,0,0,.114-.756,9.073,9.073,0,0,0,.14-1.087L28.134,27.2l-.932-.565-.758-.731-.715,1.346-.471.469-.036,1.165.057.13Z"/>
            <path id="Path_17692" data-name="Path 17692" class="cls-28" d="M27.521,27.506a6.331,6.331,0,0,1,.228.834.8.8,0,0,0,.036-.217s.129.715.155,1.01c.052-.011.1-.026.114.026a4.3,4.3,0,0,1,.1.948,2.582,2.582,0,0,1,.87-.87,1.521,1.521,0,0,1,.7-.28c.4-.01.688.254,1.165.254,1.149,0,2.19-.844,2.957-1.1a3.91,3.91,0,0,0,1.393-.642,3.639,3.639,0,0,0,.73-.911c.357-.614.73-1.149,1.1-1.217a2.314,2.314,0,0,1-.512.036s.114-.114.307-.269a1.194,1.194,0,0,1,.756-.347c.591,0,.885.088,1.217.088a1.655,1.655,0,0,0,.523-.088A2.084,2.084,0,0,0,40.5,25c.782.01,1.3.077,1.714.114s1.781-.114,2.175-.1a1.905,1.905,0,0,1,.741.181l-1.269-3.686L39.3,17.523l-2.713,1.921-4.174,4.173-4.039,1.5-.844.948v1.445Z"/>
            <path id="Path_17693" data-name="Path 17693" class="cls-29" d="M36.583,25.393s.114-.114.305-.269a1.19,1.19,0,0,1,.756-.347c.59,0,.885.088,1.217.088a1.648,1.648,0,0,0,.523-.088,2.088,2.088,0,0,0,1.129.243c.782.01,1.3.077,1.714.114s1.781-.114,2.175-.1a1.9,1.9,0,0,1,.74.181l-.575-1.662L43.9,22.282l-1.906-2.087-2.3-1.356c-.01-.01-.792-.217-.792-.217l-2.071,1.253-1.879,4.862L34.91,25.76l1.217.575c.305-.512.642-.922.958-.973-.285.031-.5.031-.5.031h0Z"/>
            <path id="Path_17694" data-name="Path 17694" class="cls-30" d="M36.557,25.74c-.181.01-.331-.026-.373-.155-.155-.435-.28-.5-.41-.5s-.305.28-.41.305-.228-.321-.228-.321l-.114-.052a6.939,6.939,0,0,0-1.139.948,9.458,9.458,0,0,1-1.59,1.538,17.16,17.16,0,0,1-1.946.3,2.521,2.521,0,0,0-.922.451c-.062.067.182.14.218.207s-.4.036-.435.1a1.673,1.673,0,0,0,.166.5.844.844,0,0,1,.357-.088c.4-.01.689.254,1.165.254,1.15,0,2.19-.844,2.957-1.1a3.909,3.909,0,0,0,1.393-.642,3.662,3.662,0,0,0,.73-.911,6.482,6.482,0,0,1,.58-.828h0Z"/>
            <path id="Path_17695" data-name="Path 17695" class="cls-31" d="M20.07,51.366a4.327,4.327,0,0,0-1.051-1.372c-.269-.28-.435-.512-.616-.678a8.3,8.3,0,0,0-1.036-.782c-.7-.523-1.47-.523-2.061-1.165a10.725,10.725,0,0,1-1.756-3.123c-.471-1.253-.6-1.652-.6-1.688s.13-.28.3-.243.166.357.207.435a2.569,2.569,0,0,0,.28.357A3.4,3.4,0,0,1,14.5,44.22a5.031,5.031,0,0,0-.181-.9s.911.575,1.688,1.175,1.1.808,1.331,1.191a18.413,18.413,0,0,0,1.024,1.688,29.046,29.046,0,0,0,3.789,1.408l1.68,1.252.834,1.828-.653,1.024-1.253.269-2.035-.911-.652-.884h0Z"/>
            <path id="Path_17696" data-name="Path 17696" class="cls-32" d="M15.549,45.069a4.745,4.745,0,0,0,1.46,1.32,14.008,14.008,0,0,0,3.723,1.383,10.423,10.423,0,0,0,2.19.331,31.516,31.516,0,0,0,4.645-.668,22.312,22.312,0,0,0,2.957-.41A15.207,15.207,0,0,0,33.838,45.8c.808-.373,1.548-.652,2.149-1.01a9.136,9.136,0,0,1,2.175-1.217,1.845,1.845,0,0,1-.885,1.129c.373-.011.885-.036.885-.036a16.614,16.614,0,0,0-1.372.958c-.539.41-1.253,1.1-1.983,1.564-.471.3-.984.512-1.321.689A5.927,5.927,0,0,0,31.8,49.1a.731.731,0,0,1,.207,0,4.035,4.035,0,0,0-1.165.347,1.575,1.575,0,0,0-.591.052c-.243.077-.565.254-.9.347a1.128,1.128,0,0,1-.626.078l.077.155s-.614-.011-.819.01c.036.01.026.026.026.026a.314.314,0,0,0-.1.036,1.069,1.069,0,0,1-.321.14c-.062.01-.114.01-.192.026.026.062.228.41.321.614-.077.052-1.243.932-1.243.932a.887.887,0,0,1,.088.181c.036.114.052.28.088.357.088.155.14.181.14.181s-.14.026-.383.088a6.727,6.727,0,0,1-.819.191,3.249,3.249,0,0,1-.331.026.9.9,0,0,1-.14,1.051c-.419.5-.549.575-.678.9a1.389,1.389,0,0,0-.207-.13.869.869,0,0,1-.4-.28,3.322,3.322,0,0,1-.155.487,6.053,6.053,0,0,0-.357.948c-.14-.155-.4-.461-.756-.4s-.642.549-.7.689c0-.088-.062-.155-.077-.052a3.935,3.935,0,0,1-1.3,2.268c-.01-.243-.01-.782-.036-.958a2.511,2.511,0,0,1-.973.575c-.73.321-.614.642-.614.642a1.605,1.605,0,0,1,.331-1.051c.4-.538.642-.792.642-.834a.23.23,0,0,0-.052-.114c-.052-.052-.155-.114-.155-.155a1.041,1.041,0,0,0,.642-.932,1.652,1.652,0,0,0-.435-1.035c-.026-.026.244-.217.207-.28-.026-.036-.357-.28-.4-.41a1.19,1.19,0,0,1,.052-.228.646.646,0,0,0,.052-.269,2.154,2.154,0,0,0-.207-.523,2.808,2.808,0,0,0,.295,0,2.568,2.568,0,0,1-.243-.487,6.3,6.3,0,0,0-.155-.642c.088.01.305.026.305,0,.011-.078-.191-.207-.1-.307a.52.52,0,0,1,.295.207,1.184,1.184,0,0,0-.383-.616A.94.94,0,0,1,20.3,51a1.016,1.016,0,0,1,.41.435s.181.14.461.347a5.023,5.023,0,0,0,1.382.87,1.434,1.434,0,0,0,.756.026,1.163,1.163,0,0,0,.321-.129.6.6,0,0,1,.114-.052,2.482,2.482,0,0,0-.191-.321c.088,0,.191.011.191.011s.062-.14-.217-.41c.062-.062.14-.1.14-.207a.612.612,0,0,1-.28-.191c.052-.036.129-.155.217-.191-.078-.062-.269-.321-.357-.347a1.628,1.628,0,0,0,.243-.114,2.979,2.979,0,0,1-.575-.207,3.422,3.422,0,0,0-.471-.331c-.13-.052-.357-.077-.451-.181a1.414,1.414,0,0,0,.331,0c.077,0,.114.01.14.01-.01-.036-.01-.114.192-.14a.946.946,0,0,0,.28-.088.715.715,0,0,1-.41-.217,1.594,1.594,0,0,0-.523-.4c-.129-.026-.373.088-.523.077a.472.472,0,0,1-.3-.129,4.332,4.332,0,0,1-2.216-.87,7.812,7.812,0,0,1-1.9-1.522,2.271,2.271,0,0,1-.357-.166c-.5-.259-1.186-.8-1.165-1.5h0Z"/>
            <path id="Path_17697" data-name="Path 17697" class="cls-33" d="M34.6,13.991a.672.672,0,0,1,.307.207.955.955,0,0,1-.155,1.372.885.885,0,0,0,.5.077,2.42,2.42,0,0,0-.652,1.139.434.434,0,0,0,.191.451,1.723,1.723,0,0,0-.347,1.024,4.149,4.149,0,0,1,.512-.487,13.6,13.6,0,0,1,1.269-.87.73.73,0,0,0,.036.269s.668-.549,1.229-.305c.254.114.14.471.14.471a.592.592,0,0,1,.591.114,11.033,11.033,0,0,1,.764,1.114,8.155,8.155,0,0,1,.486.668,8.449,8.449,0,0,1,.7,1.486c.01-.269.077-.688.844-.425a4.7,4.7,0,0,1,2.366,1.946c.73,1.112.911,2.367,1.279,2.845a4.054,4.054,0,0,1,.782,1.548,13.559,13.559,0,0,0,.652,4.158c.217-.87.549-2.8.549-2.8l.181-1.7.207-5.271-5.5-4.573-4.3-3.123-2.8.269.176.4h0Z"/>
            <path id="Path_17698" data-name="Path 17698" class="cls-34" d="M44.826,21.835s-.078-.512-1.372-1.382-2.3-.859-3.236-1.59c-.715-.575-1.46-1.9-1.946-2.33a3.172,3.172,0,0,1-.549-1.673l1.59-1.331,2.364-3.417,2-2.2.958,1.331,1.331,1.564.74,3.138.269,4.593-2.15,3.3Z"/>
            <path id="Path_17699" data-name="Path 17699" class="cls-35" d="M46.426,27.341a5.837,5.837,0,0,0-.254-2.061,37.962,37.962,0,0,0-1.434-3.652c-.14-.782-.036-.844.114-.932a2.289,2.289,0,0,0,1.024-1.538,1.459,1.459,0,0,1,1.269-1.165l.59-.435.9,2.242.782,2.025.243,1.548.181,1.32-.425,2.791-2.1,1.9-.891-2.039h0Z"/>
            <path id="Path_17700" data-name="Path 17700" class="cls-36" d="M17.165,58.45v-.057a.441.441,0,0,0,.114-.1c.036-.052.062-.114.088-.129a.975.975,0,0,1,.425-.078,3.271,3.271,0,0,0,.653.155,4.284,4.284,0,0,1,1.5-.166c1.036.191,1.279.9,1.88,1.294a1.19,1.19,0,0,0,.9.155h.14c.026,0,.217-.217.321-.207.207.01.228.181.357.191a11.626,11.626,0,0,1,1.191-.077.569.569,0,0,1,.373.372.575.575,0,0,1-.14.575,2.29,2.29,0,0,0-.688.819,2.91,2.91,0,0,1,.227.193,30.145,30.145,0,0,1-7.331-2.935Z"/>
            <path id="Path_17701" data-name="Path 17701" class="cls-37" d="M44.738,48.1a17.9,17.9,0,0,0,1.087-1.61c.28-.55-.885-7.513-.885-7.513l2.341-7.668-.062-2.5a22.947,22.947,0,0,1,.383-3.3c.321.575,1.321,1.269,1.538,1.636a19.047,19.047,0,0,0,.4-3.775,28.26,28.26,0,0,1,.652,3.262l.461,2,.6,2.123L51.92,33l.4,1.548.228.373.192.652.181.7.523,1.652.307,1.356.243,2.46a3.75,3.75,0,0,1,.114.575,2.4,2.4,0,0,1-.036.471,5.648,5.648,0,0,1,.052,1,1.408,1.408,0,0,1-.373,1.024,6.2,6.2,0,0,0-.523,2.05l-.575-.383a1.56,1.56,0,0,0-.155-1,1.01,1.01,0,0,0-1.087-.5,3.283,3.283,0,0,0-1.077.321,6.282,6.282,0,0,1-1.036.911,6.236,6.236,0,0,1-1.791.435,4.781,4.781,0,0,0-1.471.766,8.212,8.212,0,0,1-1.294.683h0Z"/>
            <path id="Path_17702" data-name="Path 17702" class="cls-38" d="M44.738,59.418s.034.022.1.058a30.413,30.413,0,0,0,9.694-7.185c-.03-1.048-.068-2.122-.111-2.52-.088-.844-.026-1.7-.052-2.2s-.305-2.522-.435-3.045a1.325,1.325,0,0,0-.451-.782,6.241,6.241,0,0,0-.254,1.229c0,.245-.052.834-.052.984-.036-.011-.052-.1-.052-.14-.052.129-.114.357-.14.383s.036-.217,0-.269-.1-.026-.088-.155a1.481,1.481,0,0,1,.036-.228,2.373,2.373,0,0,0-.269.808c-.114.575-.114.591-.155.642s-.243.269-.254.347c-.01.14.192.28.207.357.01.13-.181.73-.243,1.024s-.036.87-.1,1.165c-.052.269-.1.425-.28.538.129.026.254.062.254.062a1.914,1.914,0,0,1-.28,1.419c-.166.228-.207.331-.383.539a2.38,2.38,0,0,0-.642,1.1,1.853,1.853,0,0,1-.036-.254,12.238,12.238,0,0,0-.766.984c-.295.461-.7.435-.819.549a.545.545,0,0,0-.1.487c-.1.026-.295.062-.425.461a.969.969,0,0,1-.461.549,2.451,2.451,0,0,1-.689.217.836.836,0,0,1,.243.077,4.107,4.107,0,0,1-.834.591,1.743,1.743,0,0,0-.689.834.6.6,0,0,1-.5.383c.1.062.254.207.331.254a1.153,1.153,0,0,0-.652.321c-.362.3-.487.388-.653.414h0Z"/>
            <path id="Path_17703" data-name="Path 17703" class="cls-39" d="M37.533,61.817a2.928,2.928,0,0,1,.639-.339,13.654,13.654,0,0,1,2-.486,7.3,7.3,0,0,1,.973-.321c-.011.091-.019.176-.029.257a30.178,30.178,0,0,1-3.584.89Z"/>
            <path id="Path_17704" data-name="Path 17704" class="cls-40" d="M52.429,40.575a6.363,6.363,0,0,1-.461,1.46c-.3.565-.614,1.346-.614,1.346a2.463,2.463,0,0,1,.062-.523,14.708,14.708,0,0,0-1.536.973,5.2,5.2,0,0,0-.756.782,15.638,15.638,0,0,0,.539-1.652,33.276,33.276,0,0,0-3.019,2.651L43.821,47.9a9.767,9.767,0,0,1-1,.47c-.486.207-1.061.383-1.486.549a2.354,2.354,0,0,1,.549-.834,6.105,6.105,0,0,0,1.2-1.536,1.4,1.4,0,0,0-.01-1.036c-.14.036-.461.052-.678.114a1.325,1.325,0,0,0-.451.295,10.6,10.6,0,0,1,.523-1.843c-.269.01-.73.088-.73.088a6.569,6.569,0,0,1,1.741-1.827,5.662,5.662,0,0,0-.984.305c-.642.269-1.346.668-1.869.885a41.177,41.177,0,0,0,3.6-6.12c1.229-2.749,1.688-3.454,1.957-4.929a22.486,22.486,0,0,0,.14-2.775,18.624,18.624,0,0,0,.078-2.392,5.687,5.687,0,0,1,1.564,4.034,15.443,15.443,0,0,1-2.408,7.731c.307.088,1.1.192,1.921-1.229a16.738,16.738,0,0,0,1.1-2.408,2.139,2.139,0,0,1,.026.4,10.847,10.847,0,0,0,1.755-3.262,4.5,4.5,0,0,1-.078,2.905,2.874,2.874,0,0,1-1.087,1.61,2.448,2.448,0,0,0,.756-.321c.078.191.062.41.192.487s.305.207.331.331a3.792,3.792,0,0,0,.425-.668A14.145,14.145,0,0,0,51,40.03a1.053,1.053,0,0,0,1.087-.782,3.2,3.2,0,0,0-.062,1.73,2.036,2.036,0,0,0,.4-.4h0Z"/>
            <path id="Path_17705" data-name="Path 17705" class="cls-41" d="M38.975,12.034A3.052,3.052,0,0,1,37.9,12.2c-.59,0-.425-.228-1.346-.228-1.419,0-6.374.819-7.244.808a19.088,19.088,0,0,0,1.905.243l6.312.088,1.268-.1.471-.959Z"/>
            <path id="Path_17706" data-name="Path 17706" class="cls-42" d="M22.607,24.373a7.208,7.208,0,0,0-1.15,1.087,8.019,8.019,0,0,1-.911,1.165.8.8,0,0,0,.269-.036s0,.1-.062.129a.362.362,0,0,1,.295.1.526.526,0,0,0-.181.741.8.8,0,0,0,.565.305s-.088.254.28.228a20.944,20.944,0,0,1,2.087-.3,1.143,1.143,0,0,1,.932.642c.307.5.575.575.575.575a2.939,2.939,0,0,0,.14-1.15,3.419,3.419,0,0,0,.243-1.165l-.269-1.983-1.175-1.486-1.522.844-.114.295Z"/>
            <path id="Path_17707" data-name="Path 17707" class="cls-43" d="M24.052,24.078s.114.269.591.295a.268.268,0,0,0-.036.217c.01.088.026.217.026.217a.482.482,0,0,0,.14-.1c.026.114-.026.295,0,.425a.943.943,0,0,0,.077.228.457.457,0,0,1,.026-.052,2.036,2.036,0,0,0,.357.512.212.212,0,0,1,.026-.1.359.359,0,0,0,.062.181.189.189,0,0,1-.052-.036,5.912,5.912,0,0,0,.166,1.243.582.582,0,0,0,.062-.088c0-.026-.01.228-.036.41a1.789,1.789,0,0,0-.01.435,1.359,1.359,0,0,1,.305-.181A1.106,1.106,0,0,0,26.32,27a4.533,4.533,0,0,0,.207-.74,1.034,1.034,0,0,1,.1.307c.011.129.254.062.254.062l.052-.565.307-1.279.28-.792,1.346-2.1L31.3,20.023l2.123.487,1.791-2.434-3.086-1.854-2.92.305L26.558,20.2l-2.123,3.33-.383.549h0Z"/>
            <path id="Path_17708" data-name="Path 17708" class="cls-44" d="M39.348,18.765a3.372,3.372,0,0,0-.7.307c-.523.271-.885.357-1.087.756a1.958,1.958,0,0,0-.217.715,4.949,4.949,0,0,1,.565-.207c.217-.052.461-.036.435.052a.6.6,0,0,1-.1.166s.41-.01.4.192a1.068,1.068,0,0,1-.155.523c-.078.1-.4.254-.435.373-.088.243.036.254-.011.45a3.114,3.114,0,0,1-.766,1.217,6.532,6.532,0,0,0-.819,1.113,7.1,7.1,0,0,1-.425-.973c-.1.052-.652.357-.652.357L34.1,19.368l.026-.3a.792.792,0,0,0,.14-.4c-.191-.062-.217-.114-.471-.357a3.167,3.167,0,0,0-.885-.741.563.563,0,0,0-.451-.331c-.311-.062-.5-.114-.5-.114a.542.542,0,0,0,.243-.192,3.206,3.206,0,0,1-.766.078,3.208,3.208,0,0,0-.7.01c-.233.036-.512.14-.616-.217-.114-.088-.357-.01-.565.295s-.28.549-.678.668a1.39,1.39,0,0,1-.181.5,5.689,5.689,0,0,1-.539.668c-.383.451-.321,1.191-.932,1.755s.1-1.564.1-1.564l.984-2.355,2.8-2.739,4.35-.295.425,2.253,2.123.73,1.341,2.045h0Z"/>
            <path id="Path_17709" data-name="Path 17709" class="cls-33" d="M40.036,19.262l-1.828-2.635-1.279-.984s-.911-1.677-.973-1.729a12.054,12.054,0,0,0-1.46-.166l.1.254a.672.672,0,0,1,.307.207.955.955,0,0,1-.155,1.372.885.885,0,0,0,.5.077,2.42,2.42,0,0,0-.652,1.139.433.433,0,0,0,.191.45,1.724,1.724,0,0,0-.347,1.024,4.149,4.149,0,0,1,.512-.487,13.284,13.284,0,0,1,1.269-.87.731.731,0,0,0,.036.269s.668-.549,1.229-.305c.254.114.14.471.14.471a.592.592,0,0,1,.591.114,10.961,10.961,0,0,1,.766,1.113,8.192,8.192,0,0,1,.486.668,8.442,8.442,0,0,1,.7,1.486c.01-.207.052-.5.41-.5l-.544-.973Z"/>
            <path id="Path_17710" data-name="Path 17710" class="cls-45" d="M12.634,26.75a1.785,1.785,0,0,1,0-.948,9.535,9.535,0,0,0,.4-1.843,6.572,6.572,0,0,1,.668-2.071l1.662-.756,1.176.321.347,1.574-1.486.819a1.141,1.141,0,0,1-.5.626c-.419.28-1,.5-1.139.782a2.28,2.28,0,0,0-.181.549.778.778,0,0,0-.678.191.994.994,0,0,0-.269.756Z"/>
            <path id="Path_17711" data-name="Path 17711" class="cls-46" d="M15.99,26.33a.756.756,0,0,0-.243.307,6.237,6.237,0,0,1-.357-2.035c-.01-.885-.063-1.1.142-1.41s1.008-.627.894-1.176a.86.86,0,0,0-1.176-.59c-.41.1-.714.973-1.139,1.408-.321.331-.7.28-.808.461-.14.243-.011.487-.052.642a3.1,3.1,0,0,1-.373.668,6.685,6.685,0,0,0-1.372,2.5,4.27,4.27,0,0,1,.14-1.036l-.078-.129.512-1.678.331-1.382.741-2.315,1.3-2.366,1.269-1.419,1.32.088.155,1.983.756,3.723,1.59,1.957L17,26.242l-1.01.088h0Z"/>
            <path id="Path_17712" data-name="Path 17712" class="cls-47" d="M16.782,27.034a.644.644,0,0,1-.3.011c-.078-.041-.155-.088-.129-.14s.166-.14.166-.181a.145.145,0,0,0-.129-.155.141.141,0,0,0-.155.062.586.586,0,0,0-.207-.1,1.431,1.431,0,0,1,.166-.011,1.614,1.614,0,0,0-.451-.129c.129-.077.383-.305.549-.305s.269-.026.243-.114a.528.528,0,0,0-.295-.269c.052-.062.088-.155-.036-.41a.492.492,0,0,1-.036-.486A3.291,3.291,0,0,1,16.4,24.5a.834.834,0,0,1,.217-.269A2.724,2.724,0,0,1,17,24.063c.181-.062.331-.14.435-.062a.142.142,0,0,1,.062.181.934.934,0,0,1,.678.036,5.132,5.132,0,0,0,1.1.254l.28.565L17.7,26.626l-.766.383-.155.026h0Z"/>
            <path id="Path_17713" data-name="Path 17713" class="cls-48" d="M19.355,24.435a7.155,7.155,0,0,0-.7.523c.077.011.207.062.155.14a8.346,8.346,0,0,0-.642.6,3.96,3.96,0,0,0-.5.73,2.626,2.626,0,0,1-.87.6c.425,0,1.279-.523,1.6-.523a.315.315,0,0,0,.269.347,2.012,2.012,0,0,0,1.408-.321c.7-.425.471-.741.766-.948.565-.373.792-.7,1.1-.911a2.015,2.015,0,0,1,.471-.254s.01-.155.1-.14a.139.139,0,0,1,.114.088,3.177,3.177,0,0,1,1.229-.487.072.072,0,0,1-.036-.036s.052-.026.062-.052c0,0,.036-.052.062-.026s.062.217.114.3c.114-.052.331-.539.331-.539l.523-1.5V20.66l-.41.078-3.072,1.3-1.864,1.932-.217.461Z"/>
            <path id="Path_17714" data-name="Path 17714" class="cls-49" d="M28.2,17.73a1.736,1.736,0,0,0,.473-.192,2.137,2.137,0,0,1-.331.741,6.255,6.255,0,0,0-.5.859c-.217.425-.243,1.036-.451,1.3a.947.947,0,0,1,.295-.088,1.367,1.367,0,0,0-.295.373,1.77,1.77,0,0,1-.626.834,4.981,4.981,0,0,0-1.393.973c-.523.564-1.062,1.279-1.331,1.536a3.835,3.835,0,0,0,.383-1.051c.052-.321-.011-.7.077-1.129a3.688,3.688,0,0,1,.512-1.471,25.192,25.192,0,0,0,1.15-3.314l1.564-.5.471,1.119h0Z"/>
            <path id="Path_17715" data-name="Path 17715" class="cls-50" d="M27.07,16.782a4.361,4.361,0,0,0-.6,1.279c-.129.6-.011.549-.088.844a1.1,1.1,0,0,0,0,.549,1.949,1.949,0,0,1,.652-.642,5.343,5.343,0,0,0,1.024-.688,3.774,3.774,0,0,1,.87-.948c-.191-.026-.461-.114-.512-.1a11.59,11.59,0,0,1,1.346-.948,5.194,5.194,0,0,1,1.471-.984,6.363,6.363,0,0,1-.7,0c.1-.217.461-.321.819-.678s-.228-.885-.228-.885L28.389,15.23l-1.32,1.553Z"/>
            <path id="Path_17716" data-name="Path 17716" class="cls-51" d="M19.661,15.549l.062-.5L20.5,13.8l.818-2.2V8.59l-.062-1.74.129-1.139.1-.362.1-.14.668.347.922,1.253.088,2.418-.9,3.816-2.558,2.791Z"/>
            <path id="Path_17717" data-name="Path 17717" class="cls-41" d="M21.7,5.069s-.41.011-.5,1.714-.13,2.6-.192,3.443a18.5,18.5,0,0,1-.28,1.854,5.1,5.1,0,0,1-.347,1.59,3.655,3.655,0,0,1-.834,1.243,5.139,5.139,0,0,1-1.564.87,8.071,8.071,0,0,0-1.854.425,2.818,2.818,0,0,0-.766.487A9.779,9.779,0,0,0,13.3,19.485c-.922,1.818-1.843,6.949-1.843,6.949l.207-.347a3.29,3.29,0,0,1,.487-1.269c.451-.808.321-1.714.948-3.262a17.783,17.783,0,0,1,.922-2.009,7.46,7.46,0,0,1,2.025-2.47,6.4,6.4,0,0,1,2.47-.984l1.393-.922s.243-.471.565-1.01a6.539,6.539,0,0,0,1.149-2.827A26.2,26.2,0,0,0,21.38,7.25c.026-1.077.036-1.869.254-2.061s.062-.119.062-.119h0Z"/>
            <path id="Path_17718" data-name="Path 17718" class="cls-52" d="M21.7,13.2a19.776,19.776,0,0,0,.9-2.853c.052-.269.155-.538.181-.756a6.832,6.832,0,0,0,0-2.486,4.438,4.438,0,0,0-.885-1.331c-.254-.373-.373-.512-.321-.591a.574.574,0,0,1,.45-.191,1.542,1.542,0,0,1,1.1.512,6.676,6.676,0,0,1,.714,2.025l.332,2.064.844,2.6L21.7,13.2h0Z"/>
            <path id="Path_17719" data-name="Path 17719" class="cls-53" d="M27.469,11.625a.526.526,0,0,1-.321,0,.462.462,0,0,1-.207.435,17.489,17.489,0,0,0-2.253.088,1.73,1.73,0,0,1-1.243-1.419c-.207-.834.155-1.983.036-2.739a16.772,16.772,0,0,0-.461-1.678c-.026-.346-.052-.435-.052-.652a1.2,1.2,0,0,0-.295-.062c-.026-.1.026-.192-.088-.373a2.06,2.06,0,0,1,.984.549,1.853,1.853,0,0,1,.471.6,4.813,4.813,0,0,1,.973,1.15c.269.535.792,2.242.911,2.521a1.857,1.857,0,0,0,.307.487c.3.373.74.99,1.237,1.092h0Z"/>
            <path id="Path_17720" data-name="Path 17720" class="cls-41" d="M24.114,6.4a14.35,14.35,0,0,1,.844,1.574,7.143,7.143,0,0,0,.87,1.714c-.207-.6-.575-1.781-.792-2.2A5.046,5.046,0,0,0,24.114,6.4h0Z"/>
            <path id="Path_17721" data-name="Path 17721" class="cls-54" d="M20.593,14.913a7.568,7.568,0,0,0-1.5.642c-.321.166-.626.305-.922.435a16.085,16.085,0,0,1-2.242.844c.052.062.077.088.077.088a.652.652,0,0,0,.14.4c-.077.078-1.113.782-.808,3.138.207-.077.45-.181.486-.181.062.011.078.181.155.181a1.039,1.039,0,0,0,.6-.451,3.5,3.5,0,0,0,.668,2.5c.155-.181.549-.782.549-.782l.01-.191a5.2,5.2,0,0,1,.254-1.279,3.4,3.4,0,0,1,.642-1.062l2.216-3.164-.331-1.113h0Z"/>
            <path id="Path_17722" data-name="Path 17722" class="cls-55" d="M18.522,19.558a1.224,1.224,0,0,1-.331.166,1.281,1.281,0,0,1,.217-1.01,13.515,13.515,0,0,0,1.356-1.741,3.776,3.776,0,0,1,1.321-2.33c1.243-1.113,1.729-1.5,1.729-1.5l2.009-1.01,2.47.973L26.066,17.92l-.953,2.253-3.789-.714-2.8.1h0Z"/>
            <path id="Path_17723" data-name="Path 17723" class="cls-56" d="M19.968,18.252l.471-.59v-.42a2.679,2.679,0,0,0,1.087-.715c.564-.575,1.346-1.678,2.035-1.61s.756,1.5.782,1.9A10.892,10.892,0,0,0,24.6,18.6c.155.487-1.678,2.33-1.678,2.33l-1.245.948-1.707-3.63Z"/>
            <path id="Path_17724" data-name="Path 17724" class="cls-57" d="M21.427,23.166s.383-.6.1-.73A4.427,4.427,0,0,1,22,21.67a3.869,3.869,0,0,1,.922-1.2,4.007,4.007,0,0,0,1.253-1.548,4.079,4.079,0,0,0,.114-.885,1.681,1.681,0,0,0,.243.166,1.447,1.447,0,0,1,.575,1.393,2.287,2.287,0,0,1-.41,1.269,6.093,6.093,0,0,1-.549.487c-.244.166-.331.357-.741.373a.49.49,0,0,1,.14-.078.952.952,0,0,0-.653.155c-.228.207-.713.844-.956,1.036-.243.155-.512.331-.512.331h0Z"/>
            <path id="Path_17725" data-name="Path 17725" class="cls-58" d="M38.643,13.095a6.236,6.236,0,0,0-1.905-.373c-1.087-.036-2.677.026-4.236.036-1.678.01-3.2-.575-5.313-.678-.347-.207-1.229-1.113-3.982.808.166-.01,2-.425,2.635.373a3.2,3.2,0,0,1,.373,2.459c-.166.715-.7,1.755-.922,2.486s-.166,1.114-.321,1.626-.5.766-.3,1.356c.269-.166.41-.166.859-1.175s.357-1.73,1.1-2.584a16.832,16.832,0,0,1,2.408-2.33,8.974,8.974,0,0,1,7.974-.383c.927-.1,1.621-1.621,1.621-1.621h0Z"/>
            <path id="Path_17726" data-name="Path 17726" class="cls-59" d="M24.756,12.39a.475.475,0,0,0-.026-.114.831.831,0,0,0-.14-.207,6.645,6.645,0,0,0-1.372-.114c-.808.088-1.538,1.087-1.88,1.6a9.458,9.458,0,0,1-1.227,1.714.171.171,0,0,0-.026-.114s.026.036-.026.088-.052.077-.026.1l.078.077a6.346,6.346,0,0,0,1.714-1.229,8.635,8.635,0,0,1,2.242-1.6,3.154,3.154,0,0,1,.688-.2h0Z"/>
            <path id="Path_17727" data-name="Path 17727" class="cls-60" d="M42.434,8.5s-.166.207-.373.435c-.461.487-1.062,1.035-1.574,1.6-.486.539-1.035.958-1.652,1.662S37.5,13.68,37.323,13.908a1.689,1.689,0,0,0-.295.792c-.088-.062-.191-.129-.191-.129a1.3,1.3,0,0,0,.155.228c.129.181.331.41.435.549a1.673,1.673,0,0,1,.269.59c.062.01.461.088.958-.73S39.8,13.494,39.8,13.494l1.036-1.538.653-1.3.819-1.46.125-.694h0Z"/>
            <path id="Path_17728" data-name="Path 17728" class="cls-41" d="M43.5,7.451a7.892,7.892,0,0,0-.87.819c-.243.307-.819,1.113-.819,1.113l.207-.026,1.051-.932.41-.73.021-.243Z"/>
            <path id="Path_17729" data-name="Path 17729" class="cls-61" d="M43.3,48.6a1.081,1.081,0,0,1,.228-.678,4.926,4.926,0,0,0,1.46-2.025,13.3,13.3,0,0,0,.668-1.714,7.514,7.514,0,0,1-1.741,1.139c.155-.321.243-.549.321-.715-.088-.077-.461-.166-.5-.207.207-.207.321-.715.74-1.051.539-.41,1.522-1.113,2.287-1.741A15.25,15.25,0,0,0,49.23,39.1a.937.937,0,0,1,.14.269s-.756.984-1.149,1.61a1.535,1.535,0,0,0-.321.844l.715-.307s.207.766-.73,1.932c.41-.155.575-.062.808-.192a3.631,3.631,0,0,0-1.408,1.486,6.393,6.393,0,0,1-2.268,2.635A18.791,18.791,0,0,0,43.3,48.6h0Z"/>
            <path id="Path_17730" data-name="Path 17730" class="cls-62" d="M40.5,13.634a5.713,5.713,0,0,0-.487,1.574c-.01.166-.052.3-.052.487a5.955,5.955,0,0,1-.1,1.626.859.859,0,0,0-.13-.269c-.077.217-.217.9-.331,1.149a5.4,5.4,0,0,1-.155-1.419c.011-.678.026-.808.026-.948a4.15,4.15,0,0,1-.217.652c-.077-.14-.166-.321-.269-.471a2.931,2.931,0,0,1-.207.331c-.011-.062-.036-.228-.052-.461a6.562,6.562,0,0,1-.01-.689,3.12,3.12,0,0,1,.7-1.191,9.956,9.956,0,0,0,1.279-2.113c.166-.357.87-1.843.87-1.843H41.9l-.782,1.781s-.471.973-.714,1.331-.756,1.383-.984,1.781c.166-.217.305-.331.471-.539a8.529,8.529,0,0,0,.606-.771h0Z"/>
            <path id="Path_17731" data-name="Path 17731" class="cls-63" d="M43.506,7.384a2.229,2.229,0,0,1-.41.741c-.321.383-1.01.9-1.346,1.3a3.528,3.528,0,0,0-.642,2.775,4.654,4.654,0,0,1,.808-1.46,11.2,11.2,0,0,0,1.331-1.905,3.2,3.2,0,0,0,.305-1.01l.1-.129-.062-.3L43.5,7.384Z"/>
            <path id="Path_17732" data-name="Path 17732" class="cls-41" d="M53.991,41.729a5.654,5.654,0,0,1-.269-1.077c-.062-.513.1-.614-.088-1.2-.114-.357-.321-.307-.373-.357a3.048,3.048,0,0,1-.078-.885,3.316,3.316,0,0,0-.062-.844c-.077-.062-.129-.114-.243-.5a5.49,5.49,0,0,0-.254-.688c-.062-.114-.244-.217-.244-.331,0-.228.207-.347.207-.41-.01-.129-.166-.026-.207-.062-.052-.062.13-.435.062-.487-.026-.026-.207.192-.254.13s-.114-.679-.207-1.087-.181-.688-.191-.808S51.075,31,50.9,30.514a12.338,12.338,0,0,1-.347-1.253,6.466,6.466,0,0,0-.114-.689c-.026.052-.01.305-.052.3s-.166-.9-.207-1.036a7.2,7.2,0,0,1-.307-.958c-.052-.347-.166-1.253-.243-1.869s-.114-.87-.114-1.024a6.381,6.381,0,0,0-.062-1.129,10.52,10.52,0,0,0-.487-1.905c-.347-.87-1.269-3.1-1.434-3.651,0-.14.181-.062.181-.062s.45,1.129.782,2a13.392,13.392,0,0,0,.7,1.714,6.433,6.433,0,0,1,.766,2.33c.217,1.4.295,2.687.425,3.547A9.218,9.218,0,0,0,50.64,28.1c.14.471.357.958.642,1.7a11.271,11.271,0,0,1,.523,1.6c.114.575.114,1.01.181,1.295.062.243.155.73.373,1.434s.538,1.61.756,2.175a12.038,12.038,0,0,1,.679,2.574,24.78,24.78,0,0,1,.2,2.848h0Z"/>
            <path id="Path_17733" data-name="Path 17733" class="cls-64" d="M43.532,7.322l-.026.062a.109.109,0,0,1,.062.13,3.1,3.1,0,0,1-.026.425c-.026.181-.077.321-.088.435a2.18,2.18,0,0,1-.307,1.217c-.1.191-.166.357-.217.471a1.4,1.4,0,0,1-.269.451c.181-.1.834-.512,1.165-.451a2.429,2.429,0,0,0-.792.715,1.781,1.781,0,0,0,.614,0,8.546,8.546,0,0,1,1.781-.254c.616.036.373-.74.373-.74L45.09,8.218,43.744,7.27l-.212.052Z"/>
            <path id="Path_17734" data-name="Path 17734" class="cls-65" d="M47.042,19.034a4.791,4.791,0,0,1-.844-2.662,47.929,47.929,0,0,1-.191-5.12l-.487-1.191a2.777,2.777,0,0,0-.357-1.087c-.255-.295-.756-.792-.984-1.036s-.487-.575-.642-.627a1.775,1.775,0,0,1,1.755-.87,1.86,1.86,0,0,1,1.88,1,9.777,9.777,0,0,1,1,3.652,17.708,17.708,0,0,1,.192,3.148,17.821,17.821,0,0,1-.41,2.459,5.71,5.71,0,0,1-.911,2.335Z"/>
            <path id="Path_17735" data-name="Path 17735" class="cls-62" d="M45.158,20.8a1.017,1.017,0,0,0,.575-.13,1.617,1.617,0,0,0,1.419-.6,1.21,1.21,0,0,1-.114.948,2.171,2.171,0,0,1,.347-.217,3.265,3.265,0,0,1-.575,2.216.9.9,0,0,1,.668-.243,2.636,2.636,0,0,1-.228,1.662.675.675,0,0,1-.668.228,1.3,1.3,0,0,0,0-.217c-.01-.14-.062-.28-.026-.373a1.858,1.858,0,0,1-.539-.373,3.358,3.358,0,0,1-1.077-1.688.666.666,0,0,1,.487-.73.576.576,0,0,1-.114-.14.786.786,0,0,0-.155-.341h0Z"/>
            <path id="Path_17736" data-name="Path 17736" class="cls-66" d="M41.165,14.286s-.026-.036-.166.129c.026-.166.052-.321.062-.471a1.625,1.625,0,0,1,.254-.383c-.078.155-.13.295-.13.295a2.086,2.086,0,0,1,.471-.575c.191-.155.435-.228.538-.373a.957.957,0,0,0,.114-.207,3.221,3.221,0,0,0,.642-.653c.052-.062.129-.129.181-.191.088-.036.295-.129.538-.254.254-.14.539-.331.715-.41.347-.155.715-.14.885-.383.129-.036.269-.425.243-.756a3.136,3.136,0,0,1,1.512,2.024,7.339,7.339,0,0,1-.373,3.112,4.763,4.763,0,0,1-.461,1.548c-.321.425-1.356,1.024-1.61,1.321-.217.243-.87.859-.844,1.3.026.331.435.512.523.575s.088.14.254.1.228-.114.3-.114.077.026.114.026A.373.373,0,0,0,45,19.943s-.026.471-1.129.614c-.078.011-.155.036-.254.052a.632.632,0,0,0,.347-.254c-.155-.026-.6-.052-.715-.088a1.377,1.377,0,0,1,.254-.305c.088-.077-.01-.1-.088-.062a4.146,4.146,0,0,0-.383.295,3.731,3.731,0,0,1-.451.41,1.01,1.01,0,0,1,.192-.885c-.062.01-.182.191-.3.155a1.649,1.649,0,0,1,.036-.565,2.584,2.584,0,0,1,.4-.642l1.626-2.905.347-2.2-3.723.723h0Z"/>
            <path id="Path_17737" data-name="Path 17737" class="cls-67" d="M41.077,14.41s-.088.062.088.181a1.977,1.977,0,0,1-.166.254c-.088.1-.181.166-.217.254a1.414,1.414,0,0,0-.14.383,1.887,1.887,0,0,1-.243.9,3.824,3.824,0,0,0-.228.435,3.223,3.223,0,0,0-.269.512,5.366,5.366,0,0,0-.088.678l.155-.191a1.457,1.457,0,0,1-.228.373c.062-.052.243-.181.549-.451a13.623,13.623,0,0,1,1.9-1.434,2.77,2.77,0,0,1-.616.114c.129-.129,1.294-1.5,1.905-1.626a.244.244,0,0,0,.052-.166L43,14.571l-1.062.228-.155-.819-.71.43Z"/>
            <path id="Path_17738" data-name="Path 17738" class="cls-68" d="M42.765,19.071a1.438,1.438,0,0,0-.269.487,1.631,1.631,0,0,1-.254-.347.892.892,0,0,0-1.175-.5,2.17,2.17,0,0,1,0-.487,2.682,2.682,0,0,0,.808-.714A3.306,3.306,0,0,0,42.5,16.5c.1-.078.28-.207.512-.357.331-.228.73-.539.792-.885a2.117,2.117,0,0,1-.984.192c.192-.088.487-.181.451-.565.078-.052.14-.088.14-.088a.512.512,0,0,0-.181-.026c-.011-.036-.026-.088-.114-.062s-.1.026-.114.062a.551.551,0,0,0-.243.062,3.749,3.749,0,0,1-.425.305c.036-.062.088-.155.088-.155a1.8,1.8,0,0,0-.435.1,9.038,9.038,0,0,0-1.1.523c.036-.062.052-.1.077-.114s.088-.026.088-.036a.375.375,0,0,1-.01-.14,4.751,4.751,0,0,1,.41-.7,1.372,1.372,0,0,0,.217-.591l.792-.4,2.227-.512,1.445.088-.181,1L45.1,15.948l-.73,1.59-.834.974-.766.559h0Z"/>
            <path id="Path_17739" data-name="Path 17739" class="cls-69" d="M46.374,14.746a12.948,12.948,0,0,1-1.113,1.243c.155-.331,1.113-2.3,1.46-2.853-.077-.062-.181-.062.062-1.024-.207.486-.28.74-.45.87a.321.321,0,0,1-.307.088.216.216,0,0,0,.026-.129s-.73-.088-1.229-.088a7.336,7.336,0,0,0-2.035.487,8.311,8.311,0,0,0-.834.295c-.155.129-.243.269-.321.305-.062.036-.357.129-.425.228s-.166.217-.166.243-.026.062.052.036c.026-.01.217-.114.435-.243.295-.166.652-.357.911-.471a4.219,4.219,0,0,1,1.3-.305,8.13,8.13,0,0,1,1.175-.207,9.858,9.858,0,0,1,1.1.026c-.062.052-.114.114-.088.331a1.617,1.617,0,0,1-.1.28c-.155.425-.45,1.129-.614,1.486-.228.486-.486.9-.614,1.149a8.362,8.362,0,0,1-.688,1.279c-.279.357-.425.575-.512.653s-.715.538-.668.7a3.457,3.457,0,0,0,1.356-.9,10.88,10.88,0,0,1,1.036-1.269,3.461,3.461,0,0,0,.922-1.3,5.722,5.722,0,0,1,.326-.911h0Z"/>
            <path id="Path_17740" data-name="Path 17740" class="cls-70" d="M27.625,22.783a1.627,1.627,0,0,1-.373.7c-.254.228-.7.425-.756.808s.451.575.451.575a1.992,1.992,0,0,0-.28.808,5.347,5.347,0,0,0,.026.766.341.341,0,0,0-.1.1.845.845,0,0,0,.28.538c.254.207.471.331.6.28a1.221,1.221,0,0,1,.052.13s.192-.487.321-.911.243-.373.295-.958a5.613,5.613,0,0,1,.614-1.59l.384-.858-.626-.487-.885.093Z"/>
            <path id="Path_17741" data-name="Path 17741" class="cls-71" d="M28.79,23.627a3.769,3.769,0,0,0-.357.425,1.244,1.244,0,0,1-.538.523c-.243.088-.4.088-.383.331s.243.347.373.471a.606.606,0,0,1,.192.591.592.592,0,0,0,.347-.357c.129-.28,1.034-1.983,1.034-1.983H28.79Z"/>
            <path id="Path_17742" data-name="Path 17742" class="cls-72" d="M32.358,19.7a.511.511,0,0,0,0-.357c-.078-.155-.549-.207-.782-.383a.926.926,0,0,0-.782-.228c.036-.088.181-.28.062-.321a1.407,1.407,0,0,0-.652.243c-.114.088-.373.191-.425.254s-.14.181-.192.129c-.052-.036-.077-.129-.166-.078a2.105,2.105,0,0,0-.59.6,3.073,3.073,0,0,1-.782,1.165c-.528.512-.756.844-.6,1.036s.228.052.254.217a1.4,1.4,0,0,1-.026.487c-.062.269-.166.523-.026.575.357.114.7-.1.782-.036.155.14-.088.642.28.74a1.143,1.143,0,0,0,.741-.088l1.356-.73,1.3-.688.668-1.321-.358-1.1-.068-.114Z"/>
            <path id="Path_17743" data-name="Path 17743" class="cls-73" d="M31.078,22.851a.544.544,0,0,1,.052-.653c.28-.306.678-.435.834-.626a.239.239,0,0,0-.114-.077,1.031,1.031,0,0,1,.451-.425.431.431,0,0,0-.295-.14c-.254,0-.41.155-.642.155s-.254-.114-.254-.114.383-.036.347-.207-.1-.181-.1-.181a3.887,3.887,0,0,0,.87-.471.947.947,0,0,0,.14-.435c.088,0,.6-.269.808-.155s.062.425.062.425a5.105,5.105,0,0,0,.947-.934c.28.026.41-.191.614-.191.254,0,.653.347.73,1.087a4.65,4.65,0,0,1,.052,1.419,6.546,6.546,0,0,0,.1,1.781c.088.357.295.321.295.321a.58.58,0,0,1-.181.28.865.865,0,0,0-.14.6,2.561,2.561,0,0,0,.078.28,1.3,1.3,0,0,0-.207.321.364.364,0,0,1-.331.217,1.605,1.605,0,0,0-.228,0c-.166.011-.217.036-.321,0s-.181-.078-.14-.41-1.279-1.1-1.279-1.1l-2.15-.766h0Z"/>
            <path id="Path_17744" data-name="Path 17744" class="cls-74" d="M28.609,26.123s.471.627,2.408.627a4.872,4.872,0,0,0,1.434-.14,3.912,3.912,0,0,0,1.766-1.279c.7-.834.549-1.175.549-1.175l-.41-.062-1.331.181-3.939,1.678-.478.171Z"/>
            <path id="Path_17745" data-name="Path 17745" class="cls-75" d="M30.053,26.278s-1.678.373-1.678-.688a3.691,3.691,0,0,1,1.295-2.315,4.862,4.862,0,0,1,.911-.41H32.13l.295.782L32.3,25.335l-2.242.942Z"/>
            <path id="Path_17746" data-name="Path 17746" class="cls-76" d="M31.6,23.182s-.321-.3-1.051.1a2.629,2.629,0,0,0-1.357,1.983c-.036.668.549,1.165,1.46,1.191a4.643,4.643,0,0,0,1.295-.1c-.052-.062-.321-.4-.321-.4L31.6,23.182h0Z"/>
            <path id="Path_17747" data-name="Path 17747" class="cls-77" d="M31.286,23.347s-.077-.062-.307.062a5.028,5.028,0,0,0-.688.565,2.8,2.8,0,0,0-.307.254c-.321.383-.591,1.01-.435,1.321s.668.668,1.973.425l-.239-2.625h0Z"/>
            <path id="Path_17748" data-name="Path 17748" class="cls-75" d="M30.861,23.99a1.649,1.649,0,0,0-.207.834,1.373,1.373,0,0,0,1.383,1.419c.834.052,1.393-1.2,2-1.688a1.453,1.453,0,0,1,.74-.383A6.872,6.872,0,0,0,33.046,23c-1.243-.668-2.636-.756-3.392.269.357-.026,1.512-.321,1.512-.321l.565.181-.87.865h0Z"/>
            <path id="Path_17749" data-name="Path 17749" class="cls-78" d="M32.487,24.668c-.036-.077-.062-.181.088-.207s.217-.011.269.1.1.207.026.254a.358.358,0,0,1-.383-.15Zm-.243-.73s-.052.036-.026-.036c.01-.088.078-.243.243-.207s.13.217.1.269a.269.269,0,0,1-.269.1.086.086,0,0,1-.052-.129Z"/>
            <path id="Path_17750" data-name="Path 17750" class="cls-79" d="M18.227,24.269a1.6,1.6,0,0,0,.885.3,2.4,2.4,0,0,0,1.356-.808c.166-.181.307-.373.461-.523a2.747,2.747,0,0,0,.28-.28c.088-.1.181-.295.228-.357a4.746,4.746,0,0,1-.451.347,5.331,5.331,0,0,1-.668.347c-.14.052-1.59.819-1.59.819l-.5.159Z"/>
            <path id="Path_17751" data-name="Path 17751" class="cls-80" d="M18.853,20.443a2.086,2.086,0,0,1,.668-.254,12.465,12.465,0,0,1,1.279-.181l.7.307.28,1.062-.512,1.1-.652.41L19.879,21.7l-1.024-1.253h0Z"/>
            <path id="Path_17752" data-name="Path 17752" class="cls-81" d="M17.932,21.39l-.244.182a1.583,1.583,0,0,0,.114-.461,4.267,4.267,0,0,1,.715-1.678,5.32,5.32,0,0,1,.383-.461.259.259,0,0,0-.207.052,2.479,2.479,0,0,1,.715-.729c.331-.2.461-.269.808-.1s.435.254.689.243a.777.777,0,0,0,.471-.28s.052.166-.14.549a7.723,7.723,0,0,1-.948,1.165l-1.574,1.077-.782.444h0Z"/>
            <path id="Path_17753" data-name="Path 17753" class="cls-82" d="M19.1,20.313s1.139.155,1.486-.166c.01.036.052.036.052.062a.09.09,0,0,1-.026.052.834.834,0,0,1,.114-.01.673.673,0,0,0,.14.026.808.808,0,0,0,.114-.011.194.194,0,0,1-.078.13c.052,0,.1.01.1.052s.01.166-.052.192a.235.235,0,0,1-.155-.011.639.639,0,0,0,.078.28.584.584,0,0,0,.614.347s.155.373-.5,1.2c-.088.114-.181.269-.295.4a1.513,1.513,0,0,0-.1.305,2.59,2.59,0,0,0,1.419-1.393,7.314,7.314,0,0,0,.321-2.827,1.456,1.456,0,0,0-.114-.565.489.489,0,0,0-.766-.088,9.357,9.357,0,0,1-1.269,1.32,4.324,4.324,0,0,1-1.087.7h0Z"/>
            <path id="Path_17754" data-name="Path 17754" class="cls-74" d="M17.73,21.712a.958.958,0,0,0-.331.614,2.008,2.008,0,0,0,.228,1.294,1.306,1.306,0,0,0,1,.741,1.1,1.1,0,0,0,.425-.088,2.686,2.686,0,0,0,.575-.357c.254-.191.461-.357.435-.373C20,23.517,18.5,22.274,18.5,22.274l-.565-.63-.2.068Z"/>
            <path id="Path_17755" data-name="Path 17755" class="cls-83" d="M19.149,23.772a1.314,1.314,0,0,0,.487-.14c.181-.114-1.062-1.346-1.062-1.346l.088,1.331Z"/>
            <path id="Path_17756" data-name="Path 17756" class="cls-84" d="M17.828,21.618a1.794,1.794,0,0,0-.155.373,6.532,6.532,0,0,0,.114,1.3.945.945,0,0,0,.834.678,1.181,1.181,0,0,0,.642-.207c0-.052-.383-.1-.487-.3a1.741,1.741,0,0,1-.1-.614c-.01-.166-.01-.347.052-.41a1.331,1.331,0,0,0,.166-.6l.5-.923h-.654l-.782.487Z"/>
            <path id="Path_17757" data-name="Path 17757" class="cls-75" d="M17.636,21.9a2.838,2.838,0,0,1,.973-.834,1,1,0,0,1,.668-.062l-.269.689-.383.425.026.217a1.327,1.327,0,0,0,.321.973,1,1,0,0,0,.834.383,1.086,1.086,0,0,0,.885-.715,2.01,2.01,0,0,0-.036-1.921,1.565,1.565,0,0,0-1.321-.715,1.847,1.847,0,0,0-1.7,1.559h0Z"/>
            <path id="Path_17758" data-name="Path 17758" class="cls-85" d="M30.783,24.207c-.191-.088-.01-.626.181-.792a1.35,1.35,0,0,1,.86-.383c.155-.01.305.088.28.192a1.538,1.538,0,0,1-.549.652C31.218,24.14,31,24.305,30.783,24.207Z"/>
            <path id="Path_17759" data-name="Path 17759" class="cls-86" d="M20.427,21.271a.37.37,0,0,1,.357.254c.036.166-.088.5-.357.5-.217,0-.331-.269-.331-.347a.4.4,0,0,1,.052-.181A.3.3,0,0,1,20.427,21.271Z"/>
            <path id="Path_17760" data-name="Path 17760" class="cls-87" d="M18.408,21.39a1.2,1.2,0,0,0-.523.512,1.358,1.358,0,0,0-.1.819,2.005,2.005,0,0,0,.243.564.39.39,0,0,0,.3.181.523.523,0,0,0,.269-.383,2.73,2.73,0,0,1,.181-1.051c.15-.321-.362-.642-.362-.642h0Z"/>
            <path id="Path_17761" data-name="Path 17761" class="cls-88" d="M18.46,21.364c-.062.036-.166.088-.14.155s.243.1.321.254a.542.542,0,0,1,.062.4.631.631,0,0,0,.181-.13c.114-.129.254-.305.373-.305.078,0,.155.036.228.036.114,0,.228-.036.243-.155.026-.155-.217-.3-.357-.269a.34.34,0,0,0-.052-.357c-.114-.1-.471.078-.549.13s-.311.243-.311.243h0Z"/>
            <path id="Path_17762" data-name="Path 17762" class="cls-89" d="M26.687,32.243l.766-.226.217.155s.155.331.4.373c-.078.166-.28.307-.269.425a.359.359,0,0,0,.114.207,1.782,1.782,0,0,0,.668,2.287c-.321.129-.73.307-.948.41a1.677,1.677,0,0,1,.626.228c.14.126.14.166.269.243s.207.181.181.228c-.088-.052-.383-.207-.435-.062S27,36.6,27,36.6l-2.071.4a.374.374,0,0,0-.14-.4c-.254-.228-.564.01-.9-.243-.435-.331-.451-.715-.59-.859a2.737,2.737,0,0,1,1.1-.307.457.457,0,0,1-.062-.347c.062-.181.321-.3.243-.512.114-.026.166-.026.451-.383.269-.357.435-.435.642-.461a.945.945,0,0,0,.715-.357c.269-.254.181-.471.181-.471s.176-.057.114-.414h0Z"/>
            <path id="Path_17763" data-name="Path 17763" class="cls-90" d="M24.425,32.358c.01-.052.052-.078.331-.052s2.05-.166,2.532-.191a15.856,15.856,0,0,1,3.034.166c.834.176,1.678.383,2.087.487s.539.155.523.207a.15.15,0,0,1-.155.088c-.052-.01-1.408-.425-1.827-.512a16.537,16.537,0,0,0-2.662-.307,13.947,13.947,0,0,0-1.662.062,13.333,13.333,0,0,1-1.973.14c-.307-.036-.244-.036-.228-.088h0Z"/>
            <path id="Path_17764" data-name="Path 17764" class="cls-91" d="M28.593,36.417A4.214,4.214,0,0,1,30.038,37.7a.555.555,0,0,1-.166.782s.6,0,.523.331a4.991,4.991,0,0,1-1.7,1.061,2.757,2.757,0,0,1-.984.331c-.321.052-1.2-.1-1.383.155a.505.505,0,0,0-.052.565,2.925,2.925,0,0,0,.471.088s-.088.243-.958.269-1.087.088-1.139.181.166.036.565.1.958.1.958.1a1.765,1.765,0,0,1-.652.28,10.834,10.834,0,0,0-1.636.425,1.509,1.509,0,0,0,.41.228,2.594,2.594,0,0,0-.575.207c.077.052.181.114.181.114a3.581,3.581,0,0,1-.689.653,5.631,5.631,0,0,1-2.216.678c-1.253-.331-1.408-1.7-1.714-1.807-.461-.155-.678.155-1.087-.062a2.555,2.555,0,0,1,.471-.295c-.207-.1-1.279-.782-1.279-.782a7.943,7.943,0,0,0-.373-.714c-.207-.357-.512-.834-.741-1.253a10.2,10.2,0,0,0-.973-1.869c.078-.1.347-.088.347-.088l3.775,1.243,6.694.194,1.741-2.485.74.088Z"/>
            <path id="Path_17765" data-name="Path 17765" class="cls-92" d="M18.677,40.207a.587.587,0,0,0,.14.114,2.029,2.029,0,0,1,.451.347c.052-.077.181-.217.41,0s.512.062.688.114.191.088.191.088a1.3,1.3,0,0,1,.331-.181c.14-.052.305-.088.487-.14a2.724,2.724,0,0,1,.471-.088c.114.077.523.512,2.164-.129,1.548-.6,1.905-.668,2.164-.575.026-.062.052-.181.451-.166a3.083,3.083,0,0,0-.331-.73l-1.828-.626h-1l-3,.549-1.661.948-.129.478Z"/>
            <path id="Path_17766" data-name="Path 17766" class="cls-93" d="M17.678,39.156a.969.969,0,0,0,.451.575,2.593,2.593,0,0,1,.538.471s.078-.1.14-.207.114-.243.217-.28c.207-.088.678.077.782.052.088-.026.062-.207.155-.207.217-.011.357.14.435.14s.269-.01.295-.052.036-.471.331-.679a.886.886,0,0,1,.819-.077c0,.077.01.269.217.28a1.054,1.054,0,0,1,.41.036c.182.062.4-.01.5.295.088-.026.3-.052.243-.347a1.5,1.5,0,0,0,.41-.435c.052-.077.14-.166.207-.28a.844.844,0,0,1,.688.217c-.088.062-.14.1-.166.166a1.862,1.862,0,0,1,.207.243c.078.1.13.228.228.254a8.567,8.567,0,0,0,.973,0,1.958,1.958,0,0,1,.844.254c.052-.026.052-.036.181-.01s.228.036.088-.129c.077.036.166.114.243.036a.508.508,0,0,1,.357-.217c.217-.026.3.01.383-.217.114-.28-.28-.28-.28-.28s.181-.166.383-.383a1.747,1.747,0,0,0,.59-.885.625.625,0,0,0-.538-.756l-3.164.973-3.868-.192-3.3,1.641h0Z"/>
            <path id="Path_17767" data-name="Path 17767" class="cls-94" d="M14.835,30.017a1.11,1.11,0,0,0-.166.435c-.063.305-.036.269-.088.487s-.689,2.382-.45,3.112.653,1,.911,1.59a2.3,2.3,0,0,1,.129.321c.088.383.011.678.114,1.062a1.174,1.174,0,0,0,.269.435c.307.321.808.626,1.024.844.305.321.74.974,1.294,1.036a1.867,1.867,0,0,0,1.062-.295,8.834,8.834,0,0,1,.819-.614,3.056,3.056,0,0,1,.688-.207,3.118,3.118,0,0,1,1.1-.052,10.629,10.629,0,0,0,1.741.347,4.736,4.736,0,0,0,1.129-.155c.74-.217,1.636-.591,2.227-.756.347-.1.626-.129.911-.191a1.965,1.965,0,0,0,1.129-.565c-.155-.181-.347-.461-1.383-.451a18.276,18.276,0,0,0-3.2.782,2.691,2.691,0,0,1-1.7-.078c-.731-.272-.755-.452-.755-.452a3.276,3.276,0,0,1-1.089-1.906,3.41,3.41,0,0,1,.834-3.314.548.548,0,0,0,.166-.461,2.085,2.085,0,0,0,.4-1.434c-.166-.689-1.227-.549-1.227-.549l-5.887,1.03h0Z"/>
            <path id="Path_17768" data-name="Path 17768" class="cls-95" d="M15.72,32.321a.537.537,0,0,0-.062.28c.01.14.052.321.471.73a.894.894,0,0,1,.28.756,1.308,1.308,0,0,0,.668-.192c.383-.181.512.14.512.14a1.082,1.082,0,0,1,.357-.114.782.782,0,0,0,.321-.1,4.615,4.615,0,0,0,.844.678c.357.192.565.321.741.192a.49.49,0,0,0,.155-.451,1.345,1.345,0,0,0-.155-.269c-.114-.166-.3-.357-.307-.512-.026-.357.269-.782.207-.885s-.295-.129-.87.078a12.95,12.95,0,0,1-3.164-.326h0Z"/>
            <path id="Path_17769" data-name="Path 17769" class="cls-96" d="M17.077,34.636s-.295-.28-.191-1.636a1.685,1.685,0,0,1,.373.036A2.939,2.939,0,0,1,17.077,34.636Z"/>
            <path id="Path_17770" data-name="Path 17770" class="cls-75" d="M14.975,28.981a.81.81,0,0,0,.114-.1,2.571,2.571,0,0,0-.192,2.164,2.87,2.87,0,0,0,2.532,2.138,2.9,2.9,0,0,0,2.522-1.408c.28-.347.6-.782.885-1.077.425-.461.756-.591.756-1.036,0-.911-.932-1.321-2.3-1.73a5.234,5.234,0,0,0-3.252-.079,1.778,1.778,0,0,0-1.062,1.129h0Z"/>
            <path id="Path_17771" data-name="Path 17771" class="cls-97" d="M19.381,35.045l.1-.052s.026-.41.191-.4a.321.321,0,0,1,.228.321.192.192,0,0,1-.217.191.509.509,0,0,1-.305-.062Z"/>
            <path id="Path_17772" data-name="Path 17772" class="cls-98" d="M18.92,33.3s.1-.036.228.088a1.857,1.857,0,0,1,.689.036.524.524,0,0,1,.181.166,1.8,1.8,0,0,1-.808,0C18.92,33.5,18.92,33.3,18.92,33.3Z"/>
            <path id="Path_17773" data-name="Path 17773" class="cls-99" d="M21.225,33.382a1.281,1.281,0,0,0-.575-.28c-.052-.01-.062.026-.1.026s-.036-.088-.036-.088l-.168.088s-.026.036.062.1.207.114.243.217a.89.89,0,0,0,.052.155.554.554,0,0,0,.28-.052c.088-.052.254-.137.243-.171h0Z"/>
            <path id="Path_17774" data-name="Path 17774" class="cls-100" d="M18.61,34.434a.436.436,0,0,1,.4-.373.4.4,0,0,1,.425.321l-.207.207c0-.005-.155-.223-.614-.155Z"/>
            <path id="Path_17775" data-name="Path 17775" class="cls-101" d="M20.862,32.9a1.082,1.082,0,0,1-.616.269.244.244,0,0,1,0-.321c.114-.166.243-.217.373-.166A.3.3,0,0,1,20.862,32.9Z"/>
            <path id="Path_17776" data-name="Path 17776" class="cls-99" d="M21.644,33.15c.011-.052-.026-.062,0-.088s.166-.077.192-.052c.01.011,0,.052,0,.1a.245.245,0,0,1-.026.14.209.209,0,0,1-.191.062c-.052-.015-.062-.088-.062-.1C21.582,33.2,21.644,33.176,21.644,33.15Zm.884-.559c0-.026.088-.078.14-.078.077,0,.077.062.088.078.026.01.026-.011.052.036s.062.129.036.181a.189.189,0,0,1-.155.077A1.379,1.379,0,0,1,22.528,32.591Z"/>
            <path id="Path_17777" data-name="Path 17777" class="cls-94" d="M20.748,33.269a.723.723,0,0,1,.269.155c-.052.036-.13.077-.13.077a.388.388,0,0,0-.14-.233Z"/>
            <path id="Path_17778" data-name="Path 17778" class="cls-74" d="M20.495,32.129c-.026-.026.077-.088.14-.077s.088.052.155.062.078-.026.1-.052.114-.01.129,0a.288.288,0,0,1,.026.036A.143.143,0,0,1,21.1,32a.163.163,0,0,1,.14-.026.768.768,0,0,1,.052.191c-.01.026-.166.062-.192.036a1.84,1.84,0,0,0,.155.217c.015.026-.114.088-.166.078a2.113,2.113,0,0,1-.6-.362Zm.678-.859a.12.12,0,0,0-.052-.062c-.036-.01-.155,0-.155.062a1.922,1.922,0,0,0,.217.591c.13.181.217.331.305.373a.12.12,0,0,0,.155-.052,3.133,3.133,0,0,0,.026-.668,6.143,6.143,0,0,0-.052-.911.138.138,0,0,0-.166.026,4.838,4.838,0,0,0-.28.642h0Z"/>
            <path id="Path_17779" data-name="Path 17779" class="cls-101" d="M20.712,33.921a.419.419,0,0,0-.357-.036c-.166.078-.155.383-.155.383a.245.245,0,0,0,.228-.026.7.7,0,0,0,.285-.321Z"/>
            <path id="Path_17780" data-name="Path 17780" class="cls-99" d="M21.054,34.33c-.01-.1-.1-.1-.1-.155a.116.116,0,0,1,.114-.088c.052,0,.1.062.166.1s.155.1.166.181-.1.295-.228.295-.088-.233-.114-.337Zm1-.14s-.207.062-.192,0,.062-.077.13-.077a.2.2,0,0,1,.129-.062.112.112,0,0,1,.077.026s.14-.062.181-.026.011.036.036.078a.364.364,0,0,1,.062.155c0,.041-.155.129-.28.114C22.053,34.366,22.079,34.216,22.053,34.19Zm1.206-.233s.062.036.011.078a.843.843,0,0,1-.373.114c-.155,0-.295.026-.295-.026s.129-.155.207-.181a.165.165,0,0,1,.13-.062c.062,0,.305-.026.373-.036s.114.026.077.077c-.015.036-.129.036-.129.036Zm.357-1.6s-.078.166-.166.166-.088-.036-.088-.062.088-.129.077-.155c-.026,0-.088,0-.077-.062s.088-.114.166-.1a.341.341,0,0,1,.207-.077c.088,0,.166.026.166.077s-.1.166-.14.192c-.041.041-.093.068-.145.026Zm-1.181,3.06s-.1.011-.1.062c0,.026.026.026.062.011a.281.281,0,0,0,.062-.011c.01.011.01.062.088.062a.492.492,0,0,0,.181-.062c.062-.026.114-.052.114-.1a.154.154,0,0,0-.155-.13.206.206,0,0,0-.114.026s-.026-.052-.114,0-.078.052-.052.078c.046.041.031.068.031.068Zm-.585.539c0-.026.129-.078.166-.062a.66.66,0,0,1,.14.228c0,.026-.129.088-.181.088a.24.24,0,0,1-.14-.1c0-.01.062-.026.062-.036.015-.026-.046-.088-.046-.114Zm-.41-.756c.026-.01.026-.036.062-.062a.089.089,0,0,1,.078-.01.126.126,0,0,1,.088-.062c.062-.01.114,0,.1.026,0,.078.052.129.052.191s-.036.14-.166.192a.916.916,0,0,1-.331.026.171.171,0,0,1-.026-.166.43.43,0,0,1,.14-.134h0Z"/>
            <path id="Path_17781" data-name="Path 17781" class="cls-94" d="M21.606,35.236s-.088.052-.088.078a.23.23,0,0,0-.01.077c0,.015.114-.01.129-.026S21.606,35.263,21.606,35.236Z"/>
            <path id="Path_17782" data-name="Path 17782" class="cls-74" d="M20.836,34.993a1.089,1.089,0,0,1,.207.026c.052.026.088.078.036.14s-.1.155-.217.14-.254-.077-.254-.129a.248.248,0,0,1,.062-.181c.052-.041.077-.015.166.005h0Z"/>
            <path id="Path_17783" data-name="Path 17783" class="cls-101" d="M20.774,35.045a1.461,1.461,0,0,0-.207.192c-.052.062-.305.383-.383.45a.976.976,0,0,1,.088-.129.53.53,0,0,0-.217.28c-.062.192.347.3.616.373s.373.1.373.1a2.892,2.892,0,0,1-.254-.471c-.1-.243-.155-.269-.088-.383.052-.114.13-.191.13-.28C20.8,35.1,20.774,35.045,20.774,35.045Z"/>
            <path id="Path_17784" data-name="Path 17784" class="cls-75" d="M14.871,35.454a.315.315,0,0,0,.114,0,5.274,5.274,0,0,1,1.73-.254,9.252,9.252,0,0,1,1.869.307c1.062.28,2.382.834,3.236,1.15.228.088.451.243.614.305a3.911,3.911,0,0,0,1.062.321,4.151,4.151,0,0,0,1.393-.191c.59-.13,1.6-.192,2.485-.321a5.077,5.077,0,0,0,.844-.191,4.444,4.444,0,0,1-2.392.958,7.484,7.484,0,0,1-2.061.026,6.288,6.288,0,0,1-1.165-.207c-.305-.088-.932-.321-1.7-.512-.539-.14-1.139-.243-1.828-.373a21.622,21.622,0,0,1-4.2-1.015Z"/>
            <line id="Line_4" data-name="Line 4" class="cls-102" x1="4.313" y1="4.028" transform="translate(9.677 24.86)"/>
            <path id="Path_17785" data-name="Path 17785" class="cls-13" d="M12.966,32.254c-.41.347-.844.678-1.268,1l-1.279.983c-.435.321-.859.652-1.295.973s-.87.626-1.331.922c.41-.347.844-.668,1.279-.984s.886-.625,1.305-.945l1.279-.984c.44-.321.865-.652,1.31-.963ZM10.7,35.879s.461-.383,1.036-.922a22.173,22.173,0,0,1,1.869-1.677l-2.905,2.6Z"/>
            <path id="Path_17786" data-name="Path 17786" class="cls-13" d="M10.7,35.878c.228-.228.471-.45.715-.668l.373-.321c.114-.1.244-.217.357-.331.228-.228.451-.471.678-.7a4.354,4.354,0,0,1,.357-.331.966.966,0,0,1,.207-.14.605.605,0,0,1,.217-.114c-.052.078-.114.114-.166.181-.062.052-.114.114-.166.166-.114.114-.243.217-.357.321-.243.207-.5.41-.74.626s-.471.451-.715.668c-.264.223-.507.44-.761.649Zm3.1-2.071s-1.688,1.652-2.035,1.921Z"/>
            <path id="Path_17787" data-name="Path 17787" class="cls-13" d="M13.8,33.807a5.511,5.511,0,0,1-.487.5l-.512.487c-.166.166-.321.331-.5.5s-.347.307-.539.451l.5-.487c.166-.166.347-.305.523-.471l.5-.487C13.452,34.123,13.618,33.957,13.8,33.807Zm.077.9a10.765,10.765,0,0,1-.549,1.269c-.435.87-1.087,1.957-1.372,2.512l1.921-3.78Z"/>
            <path id="Path_17788" data-name="Path 17788" class="cls-13" d="M13.877,34.7a1.454,1.454,0,0,1-.114.523,5.143,5.143,0,0,1-.207.487c-.078.155-.166.321-.254.471s-.191.305-.269.461l-.523.922c-.181.307-.357.616-.549.911a8.445,8.445,0,0,1,.471-.948c.181-.307.347-.614.512-.932a5.251,5.251,0,0,0,.217-.486c.077-.166.155-.321.217-.471.077-.166.14-.321.217-.471a3.049,3.049,0,0,1,.28-.466Z"/>
            <path id="Path_17789" data-name="Path 17789" class="cls-103" d="M15.72,38.949a2.563,2.563,0,0,0-.461,1.538C15.4,40.036,15.575,39.348,15.72,38.949Zm.487.68s-.181,1.843-.331,2.749A11.1,11.1,0,0,0,16.207,39.629ZM19.6,42.487a19.479,19.479,0,0,0-.782,2.879c.166-.644.487-1.959.782-2.881Z"/>
            <path id="Path_17790" data-name="Path 17790" class="cls-104" d="M21.39,38.81s1.243,2.05,2.175,3.8A8.622,8.622,0,0,0,21.39,38.81Z"/>
            <path id="Path_17791" data-name="Path 17791" class="cls-105" d="M24.73,41.828a37.7,37.7,0,0,1,1.843,3.723A5.69,5.69,0,0,0,24.73,41.828Z"/>
            <path id="Path_17792" data-name="Path 17792" class="cls-106" d="M34.548,44.851c.207-.129.616-.834.973-1.01a2.448,2.448,0,0,0,.948-.575,2.282,2.282,0,0,1,1.113-.9c.984-.425.307-.974.307-.974a3.177,3.177,0,0,1,.347-.295.982.982,0,0,0,.523-.834A3.628,3.628,0,0,0,38.029,38c.549-.114,1.6-.191,2.253-.357a3.219,3.219,0,0,0,1.1-.461,1.257,1.257,0,0,1,.269-1.486,8.66,8.66,0,0,0,1.7-2.025,4.973,4.973,0,0,0-3.123.4,2.376,2.376,0,0,1,.3.166,5.855,5.855,0,0,0-1.59.679c-.741.626-.834,1.139-1.636,1.522s-1.61.28-2.278.59a6.014,6.014,0,0,0-1.01.689c.052.062-.01.166.088.254-.062.088-.425.678-.792.678.036.14.347.243.347.243a1.67,1.67,0,0,1-.808.207A5.88,5.88,0,0,0,34.2,40.227c-.062.129-.321.321-.217.565s.41.575,1.59.844a10.433,10.433,0,0,1-2.253.036,3.73,3.73,0,0,0-1.688-.036c.062.062.228.062.373.228-.155.01-1.129-.114-1.46.321a2.823,2.823,0,0,0-.471,1.688.441.441,0,0,0-.269.565c.088.321.549.425.844.626.295.217.321.295.6.243.295-.062.73-.357.984-.357a.661.661,0,0,1,.435.191s.689-.331.756-.269.01.461.077.523a4.959,4.959,0,0,0,1.051-.544Z"/>
            <path id="Path_17793" data-name="Path 17793" class="cls-107" d="M49.6,24.13a16.29,16.29,0,0,0-11.236-9.905H15.539l.088,8.513h4.546V41.745H15.539v8.5H37.732c5.349,0,9.636-5.375,9.636-5.375C54.234,35.123,49.6,24.13,49.6,24.13ZM37.851,39.14s-1.741,2.512-3.635,2.512H30.427l-.09-18.895H35.2s2.253.471,3.827,4.929C39.027,27.687,41.113,34.07,37.851,39.14Z"/>
          </g>
        </g>
      </g>
    </g>
  </g>
</svg>
