<svg xmlns="http://www.w3.org/2000/svg" xmlns:xlink="http://www.w3.org/1999/xlink" width="114" height="64" viewBox="0 0 114 64">
  <defs>
    <style>
      .cls-1, .cls-8 {
        fill: #fff;
      }

      .cls-2 {
        clip-path: url(#clip-path);
      }

      .cls-3 {
        fill: #231f20;
      }

      .cls-3, .cls-7, .cls-8, .cls-9 {
        fill-rule: evenodd;
      }

      .cls-4 {
        fill: #009f55;
      }

      .cls-5 {
        clip-path: url(#clip-path-2);
      }

      .cls-6 {
        fill: #103f68;
      }

      .cls-7, .cls-9 {
        fill: none;
      }

      .cls-7 {
        stroke: #fff;
        stroke-width: 2.125px;
      }

      .cls-9 {
        stroke: #979797;
        stroke-width: 0.125px;
      }
    </style>
    <clipPath id="clip-path">
      <circle id="Ellipse_1706" data-name="Ellipse 1706" class="cls-1" cx="32" cy="32" r="32" transform="translate(17084 -23990)"/>
    </clipPath>
    <clipPath id="clip-path-2">
      <circle id="Ellipse_1943" data-name="Ellipse 1943" class="cls-1" cx="32" cy="32" r="32" transform="translate(-24083 -9037)"/>
    </clipPath>
  </defs>
  <g id="Group_10853" data-name="Group 10853" transform="translate(-16874 23990)">
    <g id="Mask_Group_358" data-name="Mask Group 358" class="cls-2" transform="translate(-160)">
      <g id="logo" transform="translate(17084 -23990)">
        <path id="Path_18508" data-name="Path 18508" class="cls-1" d="M32,63.461A31.461,31.461,0,1,0,.539,32,31.461,31.461,0,0,0,32,63.461Z"/>
        <path id="Path_18509" data-name="Path 18509" class="cls-3" d="M32,1.079A30.921,30.921,0,1,0,62.921,32,30.921,30.921,0,0,0,32,1.079ZM0,32A32,32,0,1,1,32,64,32,32,0,0,1,0,32Z"/>
        <path id="Path_18510" data-name="Path 18510" class="cls-4" d="M32,59.22A27.22,27.22,0,1,0,4.779,32,27.22,27.22,0,0,0,32,59.22Z"/>
        <path id="Path_18511" data-name="Path 18511" class="cls-3" d="M32,5.858A26.142,26.142,0,1,0,58.142,32,26.142,26.142,0,0,0,32,5.858ZM3.7,32A28.3,28.3,0,1,1,32,60.3,28.3,28.3,0,0,1,3.7,32Z"/>
        <path id="Path_18512" data-name="Path 18512" class="cls-1" d="M43.783,44.252a2.782,2.782,0,0,1-1.206.417,1.958,1.958,0,0,1-1.053-.044q-.088-.044-.175-.307a.83.83,0,0,0-.176-.395.275.275,0,0,0-.11-.066,12.264,12.264,0,0,0-1.886-.833,18.076,18.076,0,0,0-4.891-1.075q-1.294-3.093-1.4-3.378-.768-1.952-.482-2.237L48.893,19.84q.153-.154.943.066a2.27,2.27,0,0,1,1.031.5,6.5,6.5,0,0,1,.7,1.4,5.32,5.32,0,0,0,.987,1.6,5.331,5.331,0,0,0,2.3,1.119q1.535.395,1.689.724a7.329,7.329,0,0,1,.395,2.72A5.347,5.347,0,0,1,56.7,30.5q-.154.241-1.1.263a1.666,1.666,0,0,1-1.206-.241,1,1,0,0,1-.285-.417q-.044-.176-.11-.2a17.692,17.692,0,0,0-1.886-1.053,9.273,9.273,0,0,0-3.663-1.119L44.88,31.312A21.241,21.241,0,0,1,47.687,32.5q.395.307.482,2.457Q48.3,37.1,47.906,37.5a1.3,1.3,0,0,1-.877.263,2.017,2.017,0,0,1-1.009-.176q-.219-.219-.812-.724a16.03,16.03,0,0,0-4.343-1.535l-2.3,2.3q1.053.263,2.7.855a7.477,7.477,0,0,1,1.952.855,6.285,6.285,0,0,1,.57,2.5Q44.09,44.033,43.783,44.252Z"/>
        <path id="Path_18513" data-name="Path 18513" class="cls-3" d="M49.178,20.319,32.862,36.634a1.774,1.774,0,0,0,.043.288,10.2,10.2,0,0,0,.479,1.452v0c.066.172.487,1.187,1.272,3.062a18.605,18.605,0,0,1,4.7,1.076,12.83,12.83,0,0,1,1.931.85.806.806,0,0,1,.264.175,1.31,1.31,0,0,1,.312.623,2.316,2.316,0,0,0,.629-.029h0a2.5,2.5,0,0,0,.877-.264,2.185,2.185,0,0,0,.02-.332,12.649,12.649,0,0,0-.148-1.625V41.9c-.087-.724-.176-1.276-.265-1.666a3.411,3.411,0,0,0-.124-.435.815.815,0,0,0-.039-.088c-.015-.01-.043-.029-.091-.056-.083-.046-.2-.1-.353-.17-.307-.135-.737-.3-1.294-.495h0q-1.633-.588-2.646-.84l-.924-.231L40.7,34.727l.3.076q1.691.431,2.81.826a7.615,7.615,0,0,1,1.705.788l.023.016.021.018c.344.293.6.523.774.686a1.682,1.682,0,0,0,.678.085,1.636,1.636,0,0,0,.4-.054.37.37,0,0,0,.108-.047.492.492,0,0,0,.037-.093,2.183,2.183,0,0,0,.077-.419,10.455,10.455,0,0,0,0-1.622v-.011a11.2,11.2,0,0,0-.155-1.607,2.186,2.186,0,0,0-.109-.4c-.007-.017-.013-.03-.018-.04a20.35,20.35,0,0,0-2.634-1.106l-.842-.27,4.365-4.365.233.007a9.782,9.782,0,0,1,3.883,1.172,18.209,18.209,0,0,1,1.911,1.064.673.673,0,0,1,.272.272,1.089,1.089,0,0,1,.1.257.31.31,0,0,0,.018.029,1.1,1.1,0,0,0,.126.146.459.459,0,0,0,.17.057,2.693,2.693,0,0,0,.631.029h.013a3.2,3.2,0,0,0,.632-.062l.053-.014a2.3,2.3,0,0,0,.112-.582A11.776,11.776,0,0,0,56.4,28v-.012a13.708,13.708,0,0,0-.115-1.623,3.285,3.285,0,0,0-.205-.83l-.006,0a1.453,1.453,0,0,0-.241-.125,8.133,8.133,0,0,0-1.112-.352h-.006l-.006,0A5.829,5.829,0,0,1,52.175,23.8a5.833,5.833,0,0,1-1.1-1.765l0-.006,0-.006c-.151-.366-.281-.657-.389-.874a2.278,2.278,0,0,0-.225-.386h0a.281.281,0,0,0-.042-.034,1.125,1.125,0,0,0-.148-.085,3.855,3.855,0,0,0-.575-.213A2.961,2.961,0,0,0,49.178,20.319ZM56.1,25.553l0,0Zm.219,4.578h0ZM43.36,43.944a.041.041,0,0,1,0-.011A.043.043,0,0,1,43.36,43.944Zm-10.5-7.372a.037.037,0,0,1,0,.008A.035.035,0,0,1,32.865,36.571ZM49.244,19.242a3.88,3.88,0,0,1,.737.145h.009a4.915,4.915,0,0,1,.747.279,1.639,1.639,0,0,1,.543.4,3.163,3.163,0,0,1,.366.6c.124.249.264.563.42.94a4.8,4.8,0,0,0,.872,1.431A4.84,4.84,0,0,0,55,24.013a9.085,9.085,0,0,1,1.262.4,2.475,2.475,0,0,1,.43.229,1,1,0,0,1,.341.376,4.06,4.06,0,0,1,.323,1.189,14.733,14.733,0,0,1,.126,1.749,12.793,12.793,0,0,1-.019,1.708,2.575,2.575,0,0,1-.309,1.124,1.075,1.075,0,0,1-.678.418,4.21,4.21,0,0,1-.853.091,3.718,3.718,0,0,1-.887-.049,1.381,1.381,0,0,1-.72-.35,1.591,1.591,0,0,1-.41-.608,17,17,0,0,0-1.721-.953l0,0,0,0a9.354,9.354,0,0,0-3.213-1.05l-2.8,2.8q.926.361,2.062.922l.049.024.043.034a1.176,1.176,0,0,1,.345.488,3.216,3.216,0,0,1,.171.6,12.192,12.192,0,0,1,.174,1.765,11.447,11.447,0,0,1,0,1.794,3.237,3.237,0,0,1-.121.633,1.278,1.278,0,0,1-.3.526,1.809,1.809,0,0,1-1.24.421,2.542,2.542,0,0,1-1.28-.238l-.072-.038-.057-.057c-.127-.127-.375-.349-.758-.676a6.852,6.852,0,0,0-1.431-.645q-.959-.339-2.42-.721L39.6,37.357q.813.247,1.844.618c.567.2,1.025.374,1.368.524.171.075.321.147.445.216a1.549,1.549,0,0,1,.339.242,1.306,1.306,0,0,1,.274.461,4.448,4.448,0,0,1,.167.579c.1.442.195,1.036.283,1.772a13.6,13.6,0,0,1,.158,1.769,2.893,2.893,0,0,1-.051.593.9.9,0,0,1-.329.558l0,0h0a3.308,3.308,0,0,1-1.437.508,2.447,2.447,0,0,1-1.359-.089l-.007,0-.007,0a.767.767,0,0,1-.315-.314,1.721,1.721,0,0,1-.131-.305l-.008-.024-.006-.025a1,1,0,0,0-.033-.117A11.736,11.736,0,0,0,39,43.533l-.005,0-.005,0a17.533,17.533,0,0,0-4.746-1.043l-.328-.026-.127-.3c-.857-2.048-1.33-3.185-1.409-3.39a11.126,11.126,0,0,1-.529-1.617,2.48,2.48,0,0,1-.067-.586.885.885,0,0,1,.235-.611L48.512,19.459a.756.756,0,0,1,.4-.2A1.307,1.307,0,0,1,49.244,19.242Z"/>
        <path id="Path_18514" data-name="Path 18514" class="cls-1" d="M20.685,44.283A2.8,2.8,0,0,0,21.9,44.7a1.966,1.966,0,0,0,1.057-.044q.088-.044.176-.308a.834.834,0,0,1,.176-.4.276.276,0,0,1,.11-.066,12.32,12.32,0,0,1,1.894-.837,18.152,18.152,0,0,1,4.911-1.079q1.3-3.105,1.409-3.391.771-1.96.484-2.246L15.554,19.772q-.154-.154-.947.066a2.277,2.277,0,0,0-1.035.507,6.518,6.518,0,0,0-.7,1.409,5.343,5.343,0,0,1-.991,1.608,5.353,5.353,0,0,1-2.312,1.123q-1.542.4-1.7.727a7.357,7.357,0,0,0-.4,2.731,5.366,5.366,0,0,0,.242,2.533q.154.242,1.1.264a1.672,1.672,0,0,0,1.211-.242,1.006,1.006,0,0,0,.286-.418q.044-.176.11-.2a17.76,17.76,0,0,1,1.894-1.057A9.309,9.309,0,0,1,15.994,27.7l3.59,3.59a21.326,21.326,0,0,0-2.819,1.189q-.4.308-.484,2.467-.132,2.158.264,2.555a1.306,1.306,0,0,0,.881.264,2.025,2.025,0,0,0,1.013-.176q.22-.22.815-.727a16.1,16.1,0,0,1,4.361-1.542l2.312,2.312q-1.057.264-2.709.859a7.509,7.509,0,0,0-1.96.859,6.312,6.312,0,0,0-.573,2.511Q20.377,44.063,20.685,44.283Z"/>
        <path id="Path_18515" data-name="Path 18515" class="cls-3" d="M15.539,19.186a.758.758,0,0,1,.4.2L32.5,35.95a.889.889,0,0,1,.235.614,2.493,2.493,0,0,1-.067.588,11.18,11.18,0,0,1-.531,1.624c-.08.206-.554,1.348-1.414,3.4l-.128.305-.33.026A17.612,17.612,0,0,0,25.5,43.558l0,0-.005,0a11.783,11.783,0,0,0-1.8.792,1,1,0,0,0-.034.117l-.006.025-.008.024a1.732,1.732,0,0,1-.132.307.77.77,0,0,1-.316.315l-.007,0-.007,0a2.458,2.458,0,0,1-1.365.089,3.321,3.321,0,0,1-1.443-.511h0l0,0a.9.9,0,0,1-.33-.561,2.906,2.906,0,0,1-.051-.6,13.67,13.67,0,0,1,.159-1.777c.089-.739.183-1.335.284-1.779a4.479,4.479,0,0,1,.168-.581,1.311,1.311,0,0,1,.275-.463,1.559,1.559,0,0,1,.341-.243c.124-.069.275-.142.447-.217.344-.151.8-.327,1.374-.526q1.035-.373,1.852-.621L23.45,35.922q-1.469.383-2.43.724a6.889,6.889,0,0,0-1.437.647c-.384.328-.633.551-.761.678l-.058.058-.072.038a2.554,2.554,0,0,1-1.285.239,1.817,1.817,0,0,1-1.245-.423,1.284,1.284,0,0,1-.3-.528,3.251,3.251,0,0,1-.121-.636,11.5,11.5,0,0,1,0-1.8,12.219,12.219,0,0,1,.175-1.773,3.219,3.219,0,0,1,.171-.6,1.182,1.182,0,0,1,.347-.49l.044-.034.049-.024q1.14-.562,2.071-.926l-2.813-2.813a9.394,9.394,0,0,0-3.226,1.054l0,0,0,0a17.067,17.067,0,0,0-1.728.957,1.6,1.6,0,0,1-.412.611,1.387,1.387,0,0,1-.723.352,3.735,3.735,0,0,1-.891.049,4.213,4.213,0,0,1-.856-.092,1.079,1.079,0,0,1-.681-.42,2.587,2.587,0,0,1-.31-1.129,12.845,12.845,0,0,1-.019-1.716,14.776,14.776,0,0,1,.126-1.756,4.076,4.076,0,0,1,.324-1.194,1,1,0,0,1,.342-.377,2.493,2.493,0,0,1,.432-.23,9.126,9.126,0,0,1,1.268-.405,4.861,4.861,0,0,0,2.07-.983,4.828,4.828,0,0,0,.876-1.437c.156-.378.3-.694.421-.944a3.174,3.174,0,0,1,.367-.6,1.647,1.647,0,0,1,.545-.4,4.931,4.931,0,0,1,.75-.28h.009a3.9,3.9,0,0,1,.74-.145A1.312,1.312,0,0,1,15.539,19.186Zm-.783,1.172a3.864,3.864,0,0,0-.578.214,1.119,1.119,0,0,0-.149.085.279.279,0,0,0-.042.034h0a2.285,2.285,0,0,0-.226.388c-.109.219-.24.51-.391.878l0,.006,0,.006a5.852,5.852,0,0,1-1.1,1.773,5.852,5.852,0,0,1-2.549,1.262l-.006,0H9.7a8.166,8.166,0,0,0-1.116.353,1.453,1.453,0,0,0-.242.125l-.005,0a3.294,3.294,0,0,0-.206.833,13.75,13.75,0,0,0-.116,1.63v.012a11.833,11.833,0,0,0,.015,1.571,2.3,2.3,0,0,0,.112.584l.053.015a3.226,3.226,0,0,0,.635.062H8.84a2.692,2.692,0,0,0,.633-.029.466.466,0,0,0,.171-.057,1.094,1.094,0,0,0,.127-.147.264.264,0,0,0,.018-.029,1.1,1.1,0,0,1,.1-.258.675.675,0,0,1,.273-.273,18.27,18.27,0,0,1,1.919-1.069,9.82,9.82,0,0,1,3.9-1.177l.234-.007,4.383,4.383-.845.271a20.431,20.431,0,0,0-2.645,1.11c-.005.011-.011.024-.018.041a2.185,2.185,0,0,0-.109.4,11.251,11.251,0,0,0-.155,1.613v.011a10.5,10.5,0,0,0,0,1.629,2.2,2.2,0,0,0,.077.421.488.488,0,0,0,.037.093.376.376,0,0,0,.108.047,1.635,1.635,0,0,0,.4.055,1.687,1.687,0,0,0,.681-.086c.17-.163.432-.394.777-.688l.021-.018.023-.016a7.648,7.648,0,0,1,1.712-.791q1.122-.4,2.822-.829l.3-.076,3.207,3.207-.928.232q-1.02.255-2.657.843h0c-.56.2-.991.362-1.3.5-.155.068-.271.125-.354.171-.048.027-.077.046-.092.056a.79.79,0,0,0-.039.089,3.417,3.417,0,0,0-.124.437c-.089.391-.178.946-.266,1.673v.01a12.708,12.708,0,0,0-.149,1.632,2.2,2.2,0,0,0,.02.333,2.51,2.51,0,0,0,.881.265h0a2.314,2.314,0,0,0,.632.029,1.314,1.314,0,0,1,.313-.625.811.811,0,0,1,.265-.176,12.886,12.886,0,0,1,1.939-.854,18.678,18.678,0,0,1,4.721-1.08c.788-1.883,1.211-2.9,1.277-3.075v0a10.212,10.212,0,0,0,.481-1.457,1.767,1.767,0,0,0,.043-.289L15.268,20.252A2.97,2.97,0,0,0,14.756,20.358ZM31.648,36.571a.037.037,0,0,1,0,.008A.037.037,0,0,1,31.648,36.571Zm-10.538,7.4s0,0,0-.011A.047.047,0,0,1,21.11,43.973ZM8.314,25.507l0,0Z"/>
      </g>
    </g>
    <g id="Mask_Group_366" data-name="Mask Group 366" class="cls-5" transform="translate(40957 -14953)">
      <g id="Page-1" transform="translate(-24083 -9037)">
        <circle id="Oval" class="cls-6" cx="32" cy="32" r="32"/>
        <path id="Polygon" class="cls-7" d="M32.188,11.164,50.232,21.582V42.418L32.188,52.836,14.143,42.418V21.582Z"/>
        <path id="Path" class="cls-8" d="M24.379,19.561l-1.686,7.632H41.121l-1.8-7.632Z"/>
        <path id="Path-2" class="cls-8" d="M22.626,29.8,17.637,33.54l6.8,11.908h2.735l3.212-3.02v-1.5l-3.335-3.2v-5.1Z"/>
        <path id="Path-2-2" data-name="Path-2" class="cls-8" d="M38.372-29.745l-4.989-3.742,6.8-11.908h2.735l3.211,3.02v1.5l-3.335,3.2v5.1Z" transform="translate(79.513) rotate(180)"/>
        <path id="Path-3" class="cls-9"/>
        <path id="Path-4" class="cls-8" d="M27.068,28.362l1.623,4.257-.5,4.771,7.4-.024-.452-4.747,1.6-4.257Z"/>
      </g>
    </g>
  </g>
</svg>
