<svg xmlns="http://www.w3.org/2000/svg" xmlns:xlink="http://www.w3.org/1999/xlink" width="114" height="65" viewBox="0 0 114 65">
  <defs>
    <style>
      .cls-1, .cls-5 {
        fill: #fff;
      }

      .cls-2 {
        clip-path: url(#clip-path);
      }

      .cls-3 {
        fill: #103f68;
      }

      .cls-4, .cls-6 {
        fill: none;
      }

      .cls-4 {
        stroke: #fff;
        stroke-width: 2.125px;
      }

      .cls-10, .cls-11, .cls-4, .cls-5, .cls-6, .cls-8, .cls-9 {
        fill-rule: evenodd;
      }

      .cls-6 {
        stroke: #979797;
        stroke-width: 0.125px;
      }

      .cls-7 {
        clip-path: url(#clip-path-2);
      }

      .cls-8 {
        fill: #7f46f0;
      }

      .cls-9 {
        fill: #d34fa0;
      }

      .cls-10 {
        fill: #0aa5e8;
      }

      .cls-11 {
        fill: #38e4de;
      }
    </style>
    <clipPath id="clip-path">
      <circle id="Ellipse_1857" data-name="Ellipse 1857" class="cls-1" cx="32" cy="32" r="32" transform="translate(-24083 -9037)"/>
    </clipPath>
    <clipPath id="clip-path-2">
      <circle id="Ellipse_1872" data-name="Ellipse 1872" class="cls-1" cx="32" cy="32" r="32" transform="translate(1504.801 87)"/>
    </clipPath>
  </defs>
  <g id="Group_9753" data-name="Group 9753" transform="translate(-18079 23246)">
    <g id="Mask_Group_326" data-name="Mask Group 326" class="cls-2" transform="translate(42162 -14209)">
      <g id="Page-1" transform="translate(-24083 -9037)">
        <circle id="Oval" class="cls-3" cx="32" cy="32" r="32"/>
        <path id="Polygon" class="cls-4" d="M32.188,11.164,50.232,21.582V42.418L32.188,52.836,14.143,42.418V21.582Z"/>
        <path id="Path" class="cls-5" d="M24.379,19.561l-1.686,7.632H41.121l-1.8-7.632Z"/>
        <path id="Path-2" class="cls-5" d="M22.626,29.8,17.637,33.54l6.8,11.908h2.735l3.212-3.02v-1.5l-3.335-3.2v-5.1Z"/>
        <path id="Path-2-2" data-name="Path-2" class="cls-5" d="M38.372-29.745l-4.989-3.742,6.8-11.908h2.735l3.211,3.02v1.5l-3.335,3.2v5.1Z" transform="translate(79.513) rotate(180)"/>
        <path id="Path-3" class="cls-6"/>
        <path id="Path-4" class="cls-5" d="M27.068,28.362l1.623,4.257-.5,4.771,7.4-.024-.452-4.747,1.6-4.257Z"/>
      </g>
    </g>
    <circle id="Ellipse_1662" data-name="Ellipse 1662" class="cls-1" cx="32" cy="32" r="32" transform="translate(18129 -23246)"/>
    <g id="Mask_Group_338" data-name="Mask Group 338" class="cls-7" transform="translate(16623.199 -23332)">
      <g id="Layer_x0020_1" transform="translate(1512.985 93)">
        <g id="_2302127387760">
          <path id="Path_17403" data-name="Path 17403" class="cls-8" d="M75.509,178.873v6.961a12.1,12.1,0,0,1-12.082,12.082H55.183v-9.163h8.08a3.089,3.089,0,0,0,3.083-3.083v-8.08h9.163Z" transform="translate(-46.019 -148.1)"/>
          <path id="Path_17404" data-name="Path 17404" class="cls-9" d="M19.043,122.408H12.082A12.1,12.1,0,0,0,0,134.49v8.244H9.163v-8.08a3.089,3.089,0,0,1,3.083-3.083h8.08v-9.163Z" transform="translate(0 -102.082)"/>
          <path id="Path_17405" data-name="Path 17405" class="cls-10" d="M178.873,75.509h6.961a12.1,12.1,0,0,0,12.082-12.082V55.183h-9.163v8.08a3.089,3.089,0,0,1-3.083,3.083h-8.08v9.163Z" transform="translate(-148.1 -46.019)"/>
          <path id="Path_17406" data-name="Path 17406" class="cls-11" d="M122.408,19.043V12.082A12.1,12.1,0,0,1,134.49,0h8.244V9.163h-8.08a3.089,3.089,0,0,0-3.083,3.083v8.08h-9.163Z" transform="translate(-102.082)"/>
        </g>
      </g>
    </g>
    <g id="Mask_Group_339" data-name="Mask Group 339" class="cls-7" transform="translate(16623.199 -23332)">
      <g id="Layer_x0020_1-2" data-name="Layer_x0020_1" transform="translate(1512.985 93)">
        <g id="_2302127387760-2" data-name="_2302127387760">
          <path id="Path_17407" data-name="Path 17407" class="cls-8" d="M75.509,178.873v6.961a12.1,12.1,0,0,1-12.082,12.082H55.183v-9.163h8.08a3.089,3.089,0,0,0,3.083-3.083v-8.08h9.163Z" transform="translate(-46.019 -148.1)"/>
          <path id="Path_17408" data-name="Path 17408" class="cls-9" d="M19.043,122.408H12.082A12.1,12.1,0,0,0,0,134.49v8.244H9.163v-8.08a3.089,3.089,0,0,1,3.083-3.083h8.08v-9.163Z" transform="translate(0 -102.082)"/>
          <path id="Path_17409" data-name="Path 17409" class="cls-10" d="M178.873,75.509h6.961a12.1,12.1,0,0,0,12.082-12.082V55.183h-9.163v8.08a3.089,3.089,0,0,1-3.083,3.083h-8.08v9.163Z" transform="translate(-148.1 -46.019)"/>
          <path id="Path_17410" data-name="Path 17410" class="cls-11" d="M122.408,19.043V12.082A12.1,12.1,0,0,1,134.49,0h8.244V9.163h-8.08a3.089,3.089,0,0,0-3.083,3.083v8.08h-9.163Z" transform="translate(-102.082)"/>
        </g>
      </g>
    </g>
    <g id="Mask_Group_340" data-name="Mask Group 340" class="cls-7" transform="translate(16623.199 -23332)">
      <g id="Layer_x0020_1-3" data-name="Layer_x0020_1" transform="translate(1512.985 93)">
        <g id="_2302127387760-3" data-name="_2302127387760">
          <path id="Path_17411" data-name="Path 17411" class="cls-8" d="M75.509,178.873v6.961a12.1,12.1,0,0,1-12.082,12.082H55.183v-9.163h8.08a3.089,3.089,0,0,0,3.083-3.083v-8.08h9.163Z" transform="translate(-46.019 -148.1)"/>
          <path id="Path_17412" data-name="Path 17412" class="cls-9" d="M19.043,122.408H12.082A12.1,12.1,0,0,0,0,134.49v8.244H9.163v-8.08a3.089,3.089,0,0,1,3.083-3.083h8.08v-9.163Z" transform="translate(0 -102.082)"/>
          <path id="Path_17413" data-name="Path 17413" class="cls-10" d="M178.873,75.509h6.961a12.1,12.1,0,0,0,12.082-12.082V55.183h-9.163v8.08a3.089,3.089,0,0,1-3.083,3.083h-8.08v9.163Z" transform="translate(-148.1 -46.019)"/>
          <path id="Path_17414" data-name="Path 17414" class="cls-11" d="M122.408,19.043V12.082A12.1,12.1,0,0,1,134.49,0h8.244V9.163h-8.08a3.089,3.089,0,0,0-3.083,3.083v8.08h-9.163Z" transform="translate(-102.082)"/>
        </g>
      </g>
    </g>
  </g>
</svg>
