<svg xmlns="http://www.w3.org/2000/svg" xmlns:xlink="http://www.w3.org/1999/xlink" width="114" height="64" viewBox="0 0 114 64">
  <defs>
    <style>
      .cls-1, .cls-10 {
        fill: #fff;
      }

      .cls-2 {
        clip-path: url(#clip-path);
      }

      .cls-3, .cls-4 {
        fill: #43b446;
      }

      .cls-4 {
        opacity: 0.61;
      }

      .cls-5 {
        clip-path: url(#clip-path-2);
      }

      .cls-6 {
        clip-path: url(#clip-path-3);
      }

      .cls-7 {
        clip-path: url(#clip-path-4);
      }

      .cls-8 {
        fill: #103f68;
      }

      .cls-11, .cls-9 {
        fill: none;
      }

      .cls-9 {
        stroke: #fff;
        stroke-width: 2.125px;
      }

      .cls-10, .cls-11, .cls-9 {
        fill-rule: evenodd;
      }

      .cls-11 {
        stroke: #979797;
        stroke-width: 0.125px;
      }
    </style>
    <clipPath id="clip-path">
      <circle id="Ellipse_2444" data-name="Ellipse 2444" class="cls-1" cx="32" cy="32" r="32" transform="translate(-22297 -24761)"/>
    </clipPath>
    <clipPath id="clip-path-2">
      <circle id="Ellipse_1806" data-name="Ellipse 1806" class="cls-1" cx="32" cy="32" r="32" transform="translate(-22247 -24761)"/>
    </clipPath>
    <clipPath id="clip-path-3">
      <circle id="Ellipse_1807" data-name="Ellipse 1807" class="cls-1" cx="32" cy="32" r="32" transform="translate(-24123 -23674)"/>
    </clipPath>
    <clipPath id="clip-path-4">
      <circle id="Ellipse_2221" data-name="Ellipse 2221" class="cls-1" cx="32" cy="32" r="32" transform="translate(-24083 -9037)"/>
    </clipPath>
  </defs>
  <g id="Group_13097" data-name="Group 13097" transform="translate(22297 24761)">
    <circle id="Ellipse_1805" data-name="Ellipse 1805" class="cls-1" cx="32" cy="32" r="32" transform="translate(-22297 -24761)"/>
    <g id="Mask_Group_502" data-name="Mask Group 502" class="cls-2">
      <g id="layer1" transform="translate(-22377.178 -24785.246)">
        <g id="g829" transform="translate(58.829 64.744)">
          <path id="circle822" class="cls-3" d="M32.029.028a32,32,0,1,0,32,32,32,32,0,0,0-32-32Zm0,3.113A28.887,28.887,0,1,1,3.142,32.028,28.887,28.887,0,0,1,32.029,3.142Z" transform="translate(21.32 -40.527)"/>
          <g id="g830" transform="translate(5.19 -0.827)">
            <g id="g867" transform="translate(-873.529 -994.029)">
              <path id="path4846" class="cls-3" d="M918.547,996.7a10.454,10.454,0,0,1-8.483-7.023,8.139,8.139,0,0,1-.506-3.29,8.389,8.389,0,0,1,.5-3.334,10.453,10.453,0,0,1,8.849-7.064c.8-.082,4.776-.082,5.523,0a10.425,10.425,0,0,1,7.694,16.044,10.553,10.553,0,0,1-6.953,4.614,55.192,55.192,0,0,1-6.626.053Z"/>
              <g id="g4886" transform="translate(519.836 795.651)">
                <path id="path4882" class="cls-3" d="M399.322,169.971a20.633,20.633,0,0,0-20.533,18.008h5.464a15.291,15.291,0,0,1,15.07-12.6l2.824-.011-.022-5.4Zm-20.533,23.456a20.7,20.7,0,0,0,20.533,18.008l2.808-.011v-5.4h-2.808a15.3,15.3,0,0,1-15.07-12.6Z"/>
                <path id="path4884" class="cls-4" d="M402.016,169.971l-.011,5.4,2.356.011a15.291,15.291,0,0,1,15.069,12.6h5.459a20.7,20.7,0,0,0-20.528-18.008Zm17.415,23.456a15.3,15.3,0,0,1-15.07,12.6l-2.286-.011.022,5.41,2.264.011a20.633,20.633,0,0,0,20.528-18.008Z"/>
              </g>
            </g>
          </g>
        </g>
      </g>
    </g>
    <g id="Mask_Group_505" data-name="Mask Group 505" class="cls-5">
      <g id="Group_720" data-name="Group 720" transform="translate(1876 -1087)">
        <g id="Mask_Group_11" data-name="Mask Group 11" class="cls-6">
          <g id="Mask_Group_471" data-name="Mask Group 471" class="cls-7" transform="translate(-40 -14637)">
            <g id="Page-1" transform="translate(-24083 -9037)">
              <circle id="Oval" class="cls-8" cx="32" cy="32" r="32"/>
              <path id="Polygon" class="cls-9" d="M32.188,11.164,50.232,21.582V42.418L32.188,52.836,14.143,42.418V21.582Z"/>
              <path id="Path" class="cls-10" d="M24.379,19.561l-1.686,7.632H41.121l-1.8-7.632Z"/>
              <path id="Path-2" class="cls-10" d="M22.626,29.8l-4.989,3.74,6.8,11.908h2.735l3.212-3.02v-1.5l-3.335-3.2v-5.1Z"/>
              <path id="Path-2-2" data-name="Path-2" class="cls-10" d="M38.372-29.745l-4.989-3.742,6.8-11.908h2.735l3.211,3.02v1.5l-3.335,3.2v5.1Z" transform="translate(79.513) rotate(180)"/>
              <path id="Path-3" class="cls-11"/>
              <path id="Path-4" class="cls-10" d="M27.068,28.362l1.623,4.257-.5,4.771,7.4-.024-.452-4.747,1.6-4.257Z"/>
            </g>
          </g>
        </g>
      </g>
    </g>
  </g>
</svg>
