<svg xmlns="http://www.w3.org/2000/svg" xmlns:xlink="http://www.w3.org/1999/xlink" width="114" height="64" viewBox="0 0 114 64">
  <defs>
    <style>
      .cls-1, .cls-8 {
        fill: #fff;
      }

      .cls-2 {
        clip-path: url(#clip-path);
      }

      .cls-3 {
        fill: #f5ac37;
      }

      .cls-4 {
        fill: #fefefd;
      }

      .cls-5 {
        clip-path: url(#clip-path-2);
      }

      .cls-6 {
        fill: #103f68;
      }

      .cls-7, .cls-9 {
        fill: none;
      }

      .cls-7 {
        stroke: #fff;
        stroke-width: 2.125px;
      }

      .cls-7, .cls-8, .cls-9 {
        fill-rule: evenodd;
      }

      .cls-9 {
        stroke: #979797;
        stroke-width: 0.125px;
      }
    </style>
    <clipPath id="clip-path">
      <circle id="Ellipse_1743" data-name="Ellipse 1743" class="cls-1" cx="32" cy="32" r="32" transform="translate(-24240 -10914)"/>
    </clipPath>
    <clipPath id="clip-path-2">
      <circle id="Ellipse_1741" data-name="Ellipse 1741" class="cls-1" cx="32" cy="32" r="32" transform="translate(-24083 -9037)"/>
    </clipPath>
  </defs>
  <g id="Group_9737" data-name="Group 9737" transform="translate(-17465 23138)">
    <g id="Group_9711" data-name="Group 9711" transform="translate(601 351)">
      <g id="Mask_Group_294" data-name="Mask Group 294" class="cls-2" transform="translate(41104 -12575)">
        <g id="Layer_x0020_1" transform="translate(-24240 -10914)">
          <path id="Path_17365" data-name="Path 17365" class="cls-3" d="M32,0A32,32,0,1,1,0,32,32,32,0,0,1,32,0Z"/>
          <path id="Path_17366" data-name="Path 17366" class="cls-4" d="M33.179,34.259H45.339c.259,0,.382,0,.4-.34a23.244,23.244,0,0,0,0-3.72c0-.24-.12-.34-.38-.34H21.16c-.3,0-.38.1-.38.38V33.8c0,.459,0,.459.48.459Zm11.2-8.559a.389.389,0,0,0,0-.279,7.908,7.908,0,0,0-.723-1.26,10.2,10.2,0,0,0-1.48-1.86,4.907,4.907,0,0,0-.92-.9,14.376,14.376,0,0,0-6-3.04,14.916,14.916,0,0,0-3.4-.36H21.118c-.3,0-.34.12-.34.38v7.1c0,.3,0,.38.38.38H44.237s.2-.04.24-.16h-.1Zm0,12.72a4.667,4.667,0,0,0-1.022,0H21.18c-.3,0-.4,0-.4.4v6.941c0,.32,0,.4.4.4H31.42a5.115,5.115,0,0,0,1.459-.1,15.244,15.244,0,0,0,4.342-.96,7.946,7.946,0,0,0,1.459-.68h.14A12.993,12.993,0,0,0,44.4,38.8s.14-.3-.017-.382ZM16.76,49.76V38.7c0-.261,0-.3-.32-.3H12.1c-.24,0-.34,0-.34-.32v-3.8H16.4c.259,0,.36,0,.36-.34v-3.76c0-.24,0-.3-.32-.3H12.1c-.24,0-.34,0-.34-.32V26.043c0-.22,0-.279.32-.279h4.3c.3,0,.38,0,.38-.38V14.6c0-.32,0-.4.4-.4h15a22.853,22.853,0,0,1,3.24.36,19.549,19.549,0,0,1,6.26,2.32,17.641,17.641,0,0,1,3.519,2.72,19.272,19.272,0,0,1,2.14,2.66,16.041,16.041,0,0,1,1.562,3.06.521.521,0,0,0,.6.42h3.58c.459,0,.459,0,.48.441v3.28c0,.32-.12.4-.441.4H50.337c-.279,0-.36,0-.34.36a20.431,20.431,0,0,1,0,3.659c0,.34,0,.38.382.38h3.158c.14.18,0,.36,0,.541a4.039,4.039,0,0,1,0,.7v2.421c0,.34-.1.441-.4.441h-3.78a.5.5,0,0,0-.58.38,15.993,15.993,0,0,1-4.2,6.12,24.089,24.089,0,0,1-2.14,1.719c-.8.461-1.58.94-2.4,1.32a21.624,21.624,0,0,1-4.72,1.5,24.609,24.609,0,0,1-4.68.38H16.755v-.02Z"/>
        </g>
      </g>
      <g id="Mask_Group_292" data-name="Mask Group 292" class="cls-5" transform="translate(40997 -14452)">
        <g id="Page-1" transform="translate(-24083 -9037)">
          <circle id="Oval" class="cls-6" cx="32" cy="32" r="32"/>
          <path id="Polygon" class="cls-7" d="M32.188,11.164,50.232,21.582V42.418L32.188,52.836,14.143,42.418V21.582Z"/>
          <path id="Path" class="cls-8" d="M24.379,19.561l-1.686,7.632H41.121l-1.8-7.632Z"/>
          <path id="Path-2" class="cls-8" d="M22.626,29.8,17.637,33.54l6.8,11.908h2.735l3.212-3.02v-1.5l-3.335-3.2v-5.1Z"/>
          <path id="Path-2-2" data-name="Path-2" class="cls-8" d="M38.372-29.745l-4.989-3.742,6.8-11.908h2.735l3.211,3.02v1.5l-3.335,3.2v5.1Z" transform="translate(79.513) rotate(180)"/>
          <path id="Path-3" class="cls-9"/>
          <path id="Path-4" class="cls-8" d="M27.068,28.362l1.623,4.257-.5,4.771,7.4-.024-.452-4.747,1.6-4.257Z"/>
        </g>
      </g>
    </g>
  </g>
</svg>
