<svg xmlns="http://www.w3.org/2000/svg" xmlns:xlink="http://www.w3.org/1999/xlink" width="114" height="64" viewBox="0 0 114 64">
  <defs>
    <style>
      .cls-1, .cls-10 {
        fill: #fff;
      }

      .cls-2 {
        fill: #041a3a;
      }

      .cls-3 {
        clip-path: url(#clip-path);
      }

      .cls-11, .cls-4, .cls-9 {
        fill: none;
      }

      .cls-5 {
        clip-path: url(#clip-path-2);
      }

      .cls-6 {
        clip-path: url(#clip-path-3);
      }

      .cls-7 {
        clip-path: url(#clip-path-4);
      }

      .cls-8 {
        fill: #103f68;
      }

      .cls-9 {
        stroke: #fff;
        stroke-width: 2.125px;
      }

      .cls-10, .cls-11, .cls-9 {
        fill-rule: evenodd;
      }

      .cls-11 {
        stroke: #979797;
        stroke-width: 0.125px;
      }
    </style>
    <clipPath id="clip-path">
      <circle id="Ellipse_2492" data-name="Ellipse 2492" class="cls-1" cx="32" cy="32" r="32" transform="translate(-21313 -24525)"/>
    </clipPath>
    <clipPath id="clip-path-2">
      <circle id="Ellipse_1806" data-name="Ellipse 1806" class="cls-1" cx="32" cy="32" r="32" transform="translate(-21263 -24525)"/>
    </clipPath>
    <clipPath id="clip-path-3">
      <circle id="Ellipse_1807" data-name="Ellipse 1807" class="cls-1" cx="32" cy="32" r="32" transform="translate(-24123 -23674)"/>
    </clipPath>
    <clipPath id="clip-path-4">
      <circle id="Ellipse_2221" data-name="Ellipse 2221" class="cls-1" cx="32" cy="32" r="32" transform="translate(-24083 -9037)"/>
    </clipPath>
  </defs>
  <g id="Group_13130" data-name="Group 13130" transform="translate(21313 24525)">
    <circle id="Ellipse_1805" data-name="Ellipse 1805" class="cls-2" cx="32" cy="32" r="32" transform="translate(-21313 -24525)"/>
    <g id="Mask_Group_527" data-name="Mask Group 527" class="cls-3">
      <g id="Layer_2" data-name="Layer 2" transform="translate(-21313 -24525)">
        <g id="Layer_1" data-name="Layer 1">
          <path id="Path_29931" data-name="Path 29931" class="cls-1" d="M53.173,19.733v24.52L32,56.507h-.2L10.827,44.253V19.733L31.813,7.507Z"/>
          <path id="Path_29932" data-name="Path 29932" class="cls-2" d="M39.147,41.853h12L49.2,39.067h0L40.867,27.293h0L32,14.76,23.133,27.293h0L14.8,39.067h0l-1.96,2.787h12L22.413,38.32H19.64l3.227-4.56h0l5.72,8.093h6.827l5.72-8.093,3.227,4.56H41.573Zm-5.56-3.533H30.413L25.08,30.707,32,20.853l6.973,9.813Z"/>
          <path id="Path_29933" data-name="Path 29933" class="cls-1" d="M56.973,32.947V46.44L46.307,52.613l1.333,2.333L59.64,48V32.947ZM17.587,8.253,4.333,16V30.253H7V17.52l11.907-6.933Zm-10.56,38.2V32.947H4.36V48l12.973,7.52,1.333-2.333ZM44,53.96,32,60.933,20.933,54.547,19.6,56.88,32,64l13.333-7.707ZM47.32,8.893l-1.333,2.333,11.027,6.307v12.72H59.68V16ZM31.76,0,19.92,6.893l1.333,2.333L31.76,3.107,43.6,9.88l1.333-2.333Z"/>
          <rect id="Rectangle_5420" data-name="Rectangle 5420" class="cls-1" width="2.693" height="6.52" transform="translate(30.427 2.373)"/>
          <rect id="Rectangle_5421" data-name="Rectangle 5421" class="cls-1" width="6.24" height="2.693" transform="translate(30.57 61.317) rotate(-89.2)"/>
          <rect id="Rectangle_5422" data-name="Rectangle 5422" class="cls-1" width="2.693" height="5.773" transform="translate(6.097 18.679) rotate(-59.9)"/>
          <rect id="Rectangle_5423" data-name="Rectangle 5423" class="cls-1" width="2.693" height="7.667" transform="matrix(0.479, -0.878, 0.878, 0.479, 51.13, 44.781)"/>
          <rect id="Rectangle_5424" data-name="Rectangle 5424" class="cls-1" width="6.947" height="2.693" transform="matrix(0.865, -0.502, 0.502, 0.865, 50.829, 19.575)"/>
          <rect id="Rectangle_5425" data-name="Rectangle 5425" class="cls-1" width="5.743" height="2.679" transform="translate(5.951 45.222) rotate(-30.174)"/>
          <rect id="Rectangle_5426" data-name="Rectangle 5426" class="cls-4" width="64" height="64"/>
        </g>
      </g>
    </g>
    <g id="Mask_Group_525" data-name="Mask Group 525" class="cls-5">
      <g id="Group_720" data-name="Group 720" transform="translate(2860 -851)">
        <g id="Mask_Group_11" data-name="Mask Group 11" class="cls-6">
          <g id="Mask_Group_471" data-name="Mask Group 471" class="cls-7" transform="translate(-40 -14637)">
            <g id="Page-1" transform="translate(-24083 -9037)">
              <circle id="Oval" class="cls-8" cx="32" cy="32" r="32"/>
              <path id="Polygon" class="cls-9" d="M32.188,11.164,50.232,21.582V42.418L32.188,52.836,14.143,42.418V21.582Z"/>
              <path id="Path" class="cls-10" d="M24.379,19.561l-1.686,7.632H41.121l-1.8-7.632Z"/>
              <path id="Path-2" class="cls-10" d="M22.626,29.8l-4.989,3.74,6.8,11.908h2.735l3.212-3.02v-1.5l-3.335-3.2v-5.1Z"/>
              <path id="Path-2-2" data-name="Path-2" class="cls-10" d="M38.372-29.745l-4.989-3.742,6.8-11.908h2.735l3.211,3.02v1.5l-3.335,3.2v5.1Z" transform="translate(79.513) rotate(180)"/>
              <path id="Path-3" class="cls-11"/>
              <path id="Path-4" class="cls-10" d="M27.068,28.362l1.623,4.257-.5,4.771,7.4-.024-.452-4.747,1.6-4.257Z"/>
            </g>
          </g>
        </g>
      </g>
    </g>
  </g>
</svg>
