<svg xmlns="http://www.w3.org/2000/svg" xmlns:xlink="http://www.w3.org/1999/xlink" width="114" height="64" viewBox="0 0 114 64">
  <defs>
    <style>
      .cls-1 {
        fill: #fff;
      }

      .cls-2 {
        clip-path: url(#clip-path);
      }

      .cls-3 {
        fill: url(#linear-gradient);
      }

      .cls-4 {
        clip-path: url(#clip-path-2);
      }

      .cls-5 {
        fill: #2775ca;
      }
    </style>
    <clipPath id="clip-path">
      <circle id="Ellipse_1805" data-name="Ellipse 1805" class="cls-1" cx="32" cy="32" r="32" transform="translate(-22625 -24761)"/>
    </clipPath>
    <linearGradient id="linear-gradient" y1="-28.715" x2="1" y2="-28.715" gradientUnits="objectBoundingBox">
      <stop offset="0" stop-color="#ff0003"/>
      <stop offset="0.231" stop-color="#fb1e20"/>
      <stop offset="0.514" stop-color="#ff0010"/>
      <stop offset="0.777" stop-color="#ff0003"/>
      <stop offset="1" stop-color="#ff4f51"/>
    </linearGradient>
    <clipPath id="clip-path-2">
      <circle id="Ellipse_1806" data-name="Ellipse 1806" class="cls-1" cx="32" cy="32" r="32" transform="translate(-22575 -24761)"/>
    </clipPath>
  </defs>
  <g id="Group_13060" data-name="Group 13060" transform="translate(22625 24761)">
    <g id="Mask_Group_484" data-name="Mask Group 484" class="cls-2">
      <g id="DNA_Logo" data-name="DNA Logo" transform="translate(-22625 -24761)">
        <path id="Path_29599" data-name="Path 29599" class="cls-3" d="M64,32A32,32,0,1,1,32,0,32,32,0,0,1,64,32Zm0,0"/>
        <g id="Group_13054" data-name="Group 13054">
          <path id="Path_29600" data-name="Path 29600" class="cls-1" d="M39.7,34.341A1.875,1.875,0,0,0,37.682,37.5c4.58,2.933,9.261,6.993,9.261,14.875a1.875,1.875,0,0,0,3.75,0C50.693,42.628,44.82,37.618,39.7,34.341Zm0,0"/>
          <path id="Path_29601" data-name="Path 29601" class="cls-1" d="M41.61,46.639H18.038A14.5,14.5,0,0,1,19.976,43.1H35a1.875,1.875,0,0,0,0-3.75h-11.3a62.583,62.583,0,0,1,9.177-5.566c4.251-2.266,8.646-4.61,11.993-7.891a18.7,18.7,0,0,0,5.818-14.014,1.875,1.875,0,0,0-3.75,0,18.44,18.44,0,0,1-.115,2.072H22.39a1.875,1.875,0,0,0,0,3.75H45.93a14.538,14.538,0,0,1-1.969,3.544H29.254a1.875,1.875,0,0,0,0,3.75h10.93A57.752,57.752,0,0,1,32,30c-9.045-4.851-14.943-8.833-14.943-18.125a1.875,1.875,0,0,0-3.75,0,18.673,18.673,0,0,0,5.644,13.841,40.159,40.159,0,0,0,9.1,6.41,40.808,40.808,0,0,0-8.927,6.235,18.7,18.7,0,0,0-5.818,14.014,1.875,1.875,0,0,0,3.75,0,18.427,18.427,0,0,1,.105-1.986H41.61a1.875,1.875,0,0,0,0-3.75Zm0,0"/>
        </g>
      </g>
    </g>
    <g id="Mask_Group_482" data-name="Mask Group 482" class="cls-4">
      <g id="usd-coin-usdc-logo" transform="translate(-22575 -24761)">
        <path id="Path_29593" data-name="Path 29593" class="cls-5" d="M32,64A32,32,0,1,0,0,32,31.923,31.923,0,0,0,32,64Z"/>
        <path id="Path_29594" data-name="Path 29594" class="cls-1" d="M40.8,37.067c0-4.667-2.8-6.267-8.4-6.933-4-.533-4.8-1.6-4.8-3.467s1.333-3.067,4-3.067c2.4,0,3.733.8,4.4,2.8a1,1,0,0,0,.933.667h2.133A.911.911,0,0,0,40,26.133V26a6.661,6.661,0,0,0-6-5.467v-3.2c0-.533-.4-.933-1.067-1.067h-2c-.533,0-.933.4-1.067,1.067V20.4c-4,.533-6.533,3.2-6.533,6.533,0,4.4,2.667,6.133,8.267,6.8,3.733.667,4.933,1.467,4.933,3.6s-1.867,3.6-4.4,3.6c-3.467,0-4.667-1.467-5.067-3.467a.974.974,0,0,0-.933-.8H23.867a.911.911,0,0,0-.933.933v.133c.533,3.333,2.667,5.733,7.067,6.4v3.2c0,.533.4.933,1.067,1.067h2c.533,0,.933-.4,1.067-1.067v-3.2c4-.667,6.667-3.467,6.667-7.067Z"/>
        <path id="Path_29595" data-name="Path 29595" class="cls-1" d="M25.2,51.067a19.952,19.952,0,0,1,0-37.467,1.338,1.338,0,0,0,.8-1.333V10.4a1.013,1.013,0,0,0-.8-1.067.8.8,0,0,0-.533.133,23.994,23.994,0,0,0,0,45.733.811.811,0,0,0,1.2-.533C26,54.533,26,54.4,26,54.133V52.267A1.776,1.776,0,0,0,25.2,51.067Zm14.133-41.6a.811.811,0,0,0-1.2.533c-.133.133-.133.267-.133.533V12.4a1.769,1.769,0,0,0,.8,1.333,19.952,19.952,0,0,1,0,37.467,1.338,1.338,0,0,0-.8,1.333V54.4a1.013,1.013,0,0,0,.8,1.067.8.8,0,0,0,.533-.133,24.1,24.1,0,0,0,0-45.867Z"/>
      </g>
    </g>
  </g>
</svg>
