<svg xmlns="http://www.w3.org/2000/svg" xmlns:xlink="http://www.w3.org/1999/xlink" width="114" height="65" viewBox="0 0 114 65">
  <defs>
    <style>
      .cls-1, .cls-10 {
        fill: #fff;
      }

      .cls-2 {
        clip-path: url(#clip-path);
      }

      .cls-3 {
        fill: #7f46f0;
      }

      .cls-10, .cls-11, .cls-3, .cls-4, .cls-5, .cls-6, .cls-9 {
        fill-rule: evenodd;
      }

      .cls-4 {
        fill: #d34fa0;
      }

      .cls-5 {
        fill: #0aa5e8;
      }

      .cls-6 {
        fill: #38e4de;
      }

      .cls-7 {
        clip-path: url(#clip-path-2);
      }

      .cls-8 {
        fill: #103f68;
      }

      .cls-11, .cls-9 {
        fill: none;
      }

      .cls-9 {
        stroke: #fff;
        stroke-width: 2.125px;
      }

      .cls-11 {
        stroke: #979797;
        stroke-width: 0.125px;
      }
    </style>
    <clipPath id="clip-path">
      <circle id="Ellipse_1876" data-name="Ellipse 1876" class="cls-1" cx="32" cy="32" r="32" transform="translate(1504.801 87)"/>
    </clipPath>
    <clipPath id="clip-path-2">
      <circle id="Ellipse_1858" data-name="Ellipse 1858" class="cls-1" cx="32" cy="32" r="32" transform="translate(-24083 -9037)"/>
    </clipPath>
  </defs>
  <g id="Group_9752" data-name="Group 9752" transform="translate(-18079 23143)">
    <circle id="Ellipse_1691" data-name="Ellipse 1691" class="cls-1" cx="32" cy="32" r="32" transform="translate(18079 -23143)"/>
    <circle id="Ellipse_1875" data-name="Ellipse 1875" class="cls-1" cx="32" cy="32" r="32" transform="translate(18080 -23143)"/>
    <g id="Mask_Group_341" data-name="Mask Group 341" class="cls-2" transform="translate(16574.199 -23229)">
      <g id="Layer_x0020_1" transform="translate(1512.985 93)">
        <g id="_2302127387760">
          <path id="Path_17415" data-name="Path 17415" class="cls-3" d="M75.509,178.873v6.961a12.1,12.1,0,0,1-12.082,12.082H55.183v-9.163h8.08a3.089,3.089,0,0,0,3.083-3.083v-8.08h9.163Z" transform="translate(-46.019 -148.1)"/>
          <path id="Path_17416" data-name="Path 17416" class="cls-4" d="M19.043,122.408H12.082A12.1,12.1,0,0,0,0,134.49v8.244H9.163v-8.08a3.089,3.089,0,0,1,3.083-3.083h8.08v-9.163Z" transform="translate(0 -102.082)"/>
          <path id="Path_17417" data-name="Path 17417" class="cls-5" d="M178.873,75.509h6.961a12.1,12.1,0,0,0,12.082-12.082V55.183h-9.163v8.08a3.089,3.089,0,0,1-3.083,3.083h-8.08v9.163Z" transform="translate(-148.1 -46.019)"/>
          <path id="Path_17418" data-name="Path 17418" class="cls-6" d="M122.408,19.043V12.082A12.1,12.1,0,0,1,134.49,0h8.244V9.163h-8.08a3.089,3.089,0,0,0-3.083,3.083v8.08h-9.163Z" transform="translate(-102.082)"/>
        </g>
      </g>
    </g>
    <g id="Mask_Group_327" data-name="Mask Group 327" class="cls-7" transform="translate(42212 -14106)">
      <g id="Page-1" transform="translate(-24083 -9037)">
        <circle id="Oval" class="cls-8" cx="32" cy="32" r="32"/>
        <path id="Polygon" class="cls-9" d="M32.188,11.164,50.232,21.582V42.418L32.188,52.836,14.143,42.418V21.582Z"/>
        <path id="Path" class="cls-10" d="M24.379,19.561l-1.686,7.632H41.121l-1.8-7.632Z"/>
        <path id="Path-2" class="cls-10" d="M22.626,29.8,17.637,33.54l6.8,11.908h2.735l3.212-3.02v-1.5l-3.335-3.2v-5.1Z"/>
        <path id="Path-2-2" data-name="Path-2" class="cls-10" d="M38.372-29.745l-4.989-3.742,6.8-11.908h2.735l3.211,3.02v1.5l-3.335,3.2v5.1Z" transform="translate(79.513) rotate(180)"/>
        <path id="Path-3" class="cls-11"/>
        <path id="Path-4" class="cls-10" d="M27.068,28.362l1.623,4.257-.5,4.771,7.4-.024-.452-4.747,1.6-4.257Z"/>
      </g>
    </g>
  </g>
</svg>
