<svg xmlns="http://www.w3.org/2000/svg" xmlns:xlink="http://www.w3.org/1999/xlink" width="114" height="64" viewBox="0 0 114 64">
  <defs>
    <style>
      .cls-1, .cls-9 {
        fill: #fff;
      }

      .cls-2 {
        clip-path: url(#clip-path);
      }

      .cls-3 {
        fill: #119afa;
      }

      .cls-4 {
        clip-path: url(#clip-path-2);
      }

      .cls-5 {
        clip-path: url(#clip-path-3);
      }

      .cls-6 {
        clip-path: url(#clip-path-4);
      }

      .cls-7 {
        fill: #103f68;
      }

      .cls-10, .cls-8 {
        fill: none;
      }

      .cls-8 {
        stroke: #fff;
        stroke-width: 2.125px;
      }

      .cls-10, .cls-8, .cls-9 {
        fill-rule: evenodd;
      }

      .cls-10 {
        stroke: #979797;
        stroke-width: 0.125px;
      }
    </style>
    <clipPath id="clip-path">
      <circle id="Ellipse_2490" data-name="Ellipse 2490" class="cls-1" cx="32" cy="32" r="32" transform="translate(-21641 -24525)"/>
    </clipPath>
    <clipPath id="clip-path-2">
      <circle id="Ellipse_1806" data-name="Ellipse 1806" class="cls-1" cx="32" cy="32" r="32" transform="translate(-21591 -24525)"/>
    </clipPath>
    <clipPath id="clip-path-3">
      <circle id="Ellipse_1807" data-name="Ellipse 1807" class="cls-1" cx="32" cy="32" r="32" transform="translate(-24123 -23674)"/>
    </clipPath>
    <clipPath id="clip-path-4">
      <circle id="Ellipse_2221" data-name="Ellipse 2221" class="cls-1" cx="32" cy="32" r="32" transform="translate(-24083 -9037)"/>
    </clipPath>
  </defs>
  <g id="Group_13128" data-name="Group 13128" transform="translate(21641 24525)">
    <circle id="Ellipse_1805" data-name="Ellipse 1805" class="cls-1" cx="32" cy="32" r="32" transform="translate(-21641 -24525)"/>
    <g id="Mask_Group_521" data-name="Mask Group 521" class="cls-2">
      <g id="Layer_2" data-name="Layer 2" transform="translate(-21636.66 -24525)">
        <g id="Layer_1" data-name="Layer 1">
          <path id="Path_29925" data-name="Path 29925" class="cls-3" d="M48.84,19.733v24.52L27.64,56.507h-.213L6.48,44.253V19.733L27.467,7.507Z"/>
          <path id="Path_29926" data-name="Path 29926" class="cls-1" d="M34.8,41.853h12l-1.947-2.787h0l-8.32-11.773h0L27.667,14.76l-8.88,12.533h0L10.453,39.067h0l-1.96,2.787h12l-2.44-3.533H15.307l3.227-4.56h0l5.72,8.093h6.813l5.72-8.093L40,38.32H37.24ZM29.24,38.32H26.08l-5.333-7.613,6.973-9.853,6.947,9.813Z"/>
          <path id="Path_29927" data-name="Path 29927" class="cls-3" d="M27.427,3.387l24.96,14.28V46.293L27.573,60.64,2.933,46.307V17.653L27.427,3.387m0-3.387L0,16V48L27.413,64h.213L55.32,48V16L27.413,0Z"/>
        </g>
      </g>
    </g>
    <g id="Mask_Group_523" data-name="Mask Group 523" class="cls-4">
      <g id="Group_720" data-name="Group 720" transform="translate(2532 -851)">
        <g id="Mask_Group_11" data-name="Mask Group 11" class="cls-5">
          <g id="Mask_Group_471" data-name="Mask Group 471" class="cls-6" transform="translate(-40 -14637)">
            <g id="Page-1" transform="translate(-24083 -9037)">
              <circle id="Oval" class="cls-7" cx="32" cy="32" r="32"/>
              <path id="Polygon" class="cls-8" d="M32.188,11.164,50.232,21.582V42.418L32.188,52.836,14.143,42.418V21.582Z"/>
              <path id="Path" class="cls-9" d="M24.379,19.561l-1.686,7.632H41.121l-1.8-7.632Z"/>
              <path id="Path-2" class="cls-9" d="M22.626,29.8l-4.989,3.74,6.8,11.908h2.735l3.212-3.02v-1.5l-3.335-3.2v-5.1Z"/>
              <path id="Path-2-2" data-name="Path-2" class="cls-9" d="M38.372-29.745l-4.989-3.742,6.8-11.908h2.735l3.211,3.02v1.5l-3.335,3.2v5.1Z" transform="translate(79.513) rotate(180)"/>
              <path id="Path-3" class="cls-10"/>
              <path id="Path-4" class="cls-9" d="M27.068,28.362l1.623,4.257-.5,4.771,7.4-.024-.452-4.747,1.6-4.257Z"/>
            </g>
          </g>
        </g>
      </g>
    </g>
  </g>
</svg>
