<svg xmlns="http://www.w3.org/2000/svg" xmlns:xlink="http://www.w3.org/1999/xlink" width="114" height="64" viewBox="0 0 114 64">
  <defs>
    <style>
      .cls-1 {
        fill: #fff;
      }

      .cls-2 {
        clip-path: url(#clip-path);
      }

      .cls-3 {
        clip-path: url(#clip-path-2);
      }

      .cls-4 {
        fill: #f4f499;
      }

      .cls-5 {
        fill: none;
        stroke: #000;
        stroke-miterlimit: 10;
        stroke-width: 0.533px;
      }

      .cls-6 {
        clip-path: url(#clip-path-3);
      }

      .cls-7 {
        fill: #2775ca;
      }
    </style>
    <clipPath id="clip-path">
      <circle id="Ellipse_1805" data-name="Ellipse 1805" class="cls-1" cx="32" cy="32" r="32" transform="translate(-23773 -24525)"/>
    </clipPath>
    <clipPath id="clip-path-2">
      <path id="Path_28352" data-name="Path 28352" class="cls-1" d="M0,0H64V64H0Z"/>
    </clipPath>
    <clipPath id="clip-path-3">
      <circle id="Ellipse_1806" data-name="Ellipse 1806" class="cls-1" cx="32" cy="32" r="32" transform="translate(-23723 -24525)"/>
    </clipPath>
  </defs>
  <g id="Group_1069" data-name="Group 1069" transform="translate(23773 24525)">
    <g id="Mask_Group_372" data-name="Mask Group 372" class="cls-2">
      <g id="svgexport-2" transform="translate(-23773 -24525)">
        <g id="Group_1065" data-name="Group 1065" class="cls-3">
          <circle id="Ellipse_2209" data-name="Ellipse 2209" class="cls-4" cx="32" cy="32" r="32"/>
          <g id="Group_1064" data-name="Group 1064">
            <path id="Path_28326" data-name="Path 28326" d="M75.448,25.989V66.16H39.768V25.989Zm.853-.853H38.915V67.013H76.3V25.136Z"/>
            <path id="Path_28327" data-name="Path 28327" d="M78.379,28.973V69.147H42.7V28.973h35.68Zm.853-.853h-36.6a.779.779,0,0,0-.781.779V70H79.232Z"/>
            <path id="Path_28328" data-name="Path 28328" d="M81.328,31.957V72.133H45.637V32.027a.059.059,0,0,1,.059-.061H81.328Zm.853-.845H45.7a.912.912,0,0,0-.912.915v40.96h37.4V31.112Z"/>
            <path id="Path_28329" data-name="Path 28329" d="M84.251,34.939V75.115H48.571V35.64a.707.707,0,0,1,.7-.7H84.251Zm.861-.853H49.272A1.555,1.555,0,0,0,47.72,35.64V75.968H85.1V34.085h.008Z"/>
            <path id="Path_28330" data-name="Path 28330" d="M87.184,37.925V78.1H51.507V38.789a.853.853,0,0,1,.853-.853H87.176Zm.845-.843H52.36a1.707,1.707,0,0,0-1.707,1.707v40.16H88.04V37.072l-.011.011Z"/>
            <path id="Path_28331" data-name="Path 28331" d="M90.12,40.909V81.085H54.448V42.08a1.173,1.173,0,0,1,1.173-1.173h34.5Zm.859-.853H55.619a2.027,2.027,0,0,0-2.027,2.027V81.939H90.979V40.053Z"/>
            <path id="Path_28332" data-name="Path 28332" d="M93.051,43.893V84.067H57.371V45.275a1.387,1.387,0,0,1,1.387-1.384H93.051Zm.853-.853H58.757a2.24,2.24,0,0,0-2.24,2.235V84.92H93.9V43.037Z"/>
            <path id="Path_28333" data-name="Path 28333" d="M95.987,46.88V87.048H60.309V48.285A1.4,1.4,0,0,1,61.7,46.877H95.987Zm.84-.853H61.7a2.256,2.256,0,0,0-2.259,2.256V87.9H96.829V46.027ZM78.805,4.259v17.3H51.925V4.259Zm.853-.853H51.072V22.413H79.659V3.405Z"/>
            <path id="Path_28334" data-name="Path 28334" d="M81.755,1.392v17.3H54.875V1.392Zm.853-.853H54.021V18.773a.773.773,0,0,0,.773.776H82.608Z"/>
            <path id="Path_28335" data-name="Path 28335" d="M84.248-1.048v17.3H57.432a.059.059,0,0,1-.059-.061V-1.048H84.248Zm.859-.853H56.52V16.192a.912.912,0,0,0,.912.915H85.1V-1.9h.005Z"/>
            <path id="Path_28336" data-name="Path 28336" d="M87.613-4.344v17.3H60.733v-17.3h26.88Zm.853-.853H59.88V13.813H88.467V-5.195ZM24.648,25.989V66.16H-11.029V25.989h35.68Zm.853-.853H-11.883V67.013H25.5V25.136Z"/>
            <path id="Path_28337" data-name="Path 28337" d="M21.712,28.973V69.147H-13.965V28.973h35.68Zm.08-.853H-14.821V70H22.565V28.9a.776.776,0,0,0-.779-.779Z"/>
            <path id="Path_28338" data-name="Path 28338" d="M18.72,31.957a.059.059,0,0,1,.056.061V72.125H-16.9V31.957Zm0-.853H-17.757V72.987H19.629V32.027a.915.915,0,0,0-.915-.915V31.1Z"/>
            <path id="Path_28339" data-name="Path 28339" d="M15.144,34.939a.7.7,0,0,1,.7.7V75.115h-35.68V34.939H15.144Zm.008-.853h-35.84V75.968H16.693V35.64a1.552,1.552,0,0,0-1.552-1.555h.008Z"/>
            <path id="Path_28340" data-name="Path 28340" d="M12.045,37.925a.853.853,0,0,1,.853.853V78.088h-35.68V37.928H12.045Zm-.008-.853H-23.632V78.949H13.76V38.789a1.707,1.707,0,0,0-1.707-1.707l-.016-.011Z"/>
            <path id="Path_28341" data-name="Path 28341" d="M8.795,40.909a1.176,1.176,0,0,1,1.176,1.173v39H-25.7V40.907h34.5Zm0-.853H-26.555V81.939H10.827V42.08a2.029,2.029,0,0,0-2.035-2.027Z"/>
            <path id="Path_28342" data-name="Path 28342" d="M5.659,43.893A1.387,1.387,0,0,1,7.04,45.275V84.067H-28.64V43.891h34.3Zm0-.853H-29.493V84.92H7.893V45.275a2.24,2.24,0,0,0-2.24-2.237Z"/>
            <path id="Path_28343" data-name="Path 28343" d="M2.7,46.88a1.4,1.4,0,0,1,1.4,1.405V87.053H-31.573V46.877H2.7Zm0-.853H-32.427V87.9H4.955V48.285A2.256,2.256,0,0,0,2.7,46.029l.005-.005ZM12.48,4.259v17.3H-14.4V4.259Zm.853-.853H-15.253V22.413H13.333Z"/>
            <path id="Path_28344" data-name="Path 28344" d="M9.547,1.392v17.3h-26.88V1.392ZM10.4.539H-18.187V19.547H9.651a.776.776,0,0,0,.773-.776V.539h-.019Z"/>
            <path id="Path_28345" data-name="Path 28345" d="M7.04-1.048v17.24a.059.059,0,0,1-.059.061H-19.835v-17.3H7.04ZM7.9-1.9H-20.688V17.107H6.981a.912.912,0,0,0,.912-.915V-1.9Z"/>
            <path id="Path_28346" data-name="Path 28346" d="M3.675-4.344v17.3h-26.88v-17.3H3.675ZM4.528-5.2H-24.059V13.813H4.528V-5.195ZM36.147,53.752V73.528H28.421V53.752ZM37,52.9H27.568V74.381H37Z"/>
            <path id="Path_28347" data-name="Path 28347" d="M33.605,56.48V69.947H30.981V56.48h2.624Zm.08-.853H30.907a.776.776,0,0,0-.776.765v14.4h4.331v-14.4a.771.771,0,0,0-.779-.776l.005.008ZM48.328-3.405V10.419H16.085V-3.405Zm.853-.853H15.232V11.272H49.181V-4.259Z"/>
            <path id="Path_28348" data-name="Path 28348" d="M45.88-1.293V8.312H18.539V-1.293Zm.853-.853H17.685V8.387a.776.776,0,0,0,.776.779H45.955a.781.781,0,0,0,.779-.776V-2.144Z"/>
            <path id="Path_28349" data-name="Path 28349" d="M43.3-5.744V6.115a.053.053,0,0,1-.053.053H21.168a.053.053,0,0,1-.061-.053V-5.744Zm.845-.853H20.253V6.115a.909.909,0,0,0,.912.907H43.243a.909.909,0,0,0,.907-.907V-6.6Z"/>
            <path id="Path_28350" data-name="Path 28350" d="M40.725-8.107V3.112a.7.7,0,0,1-.7.7H24.392a.7.7,0,0,1-.7-.7V-8.107Zm.853-.853H22.84V3.112a1.552,1.552,0,0,0,1.552,1.552H40.027a1.555,1.555,0,0,0,1.552-1.552Z"/>
            <path id="Path_28351" data-name="Path 28351" d="M38.395-8.107V.7a.856.856,0,0,1-.853.853H26.888A.853.853,0,0,1,26.035.7V-8.107h12.36Zm.867-.853H25.181V.7a1.707,1.707,0,0,0,1.707,1.707h10.64A1.707,1.707,0,0,0,39.235.7V-8.96ZM37,25.136V50.667H27.565V25.139H37ZM15.24,13h21.8v9.413H15.229L15.24,13Zm24.533,9.413h9.416V13H39.765l.008,9.413Z"/>
          </g>
        </g>
        <path id="Path_28353" data-name="Path 28353" class="cls-5" d="M63.733,32A31.733,31.733,0,1,1,32,.267,31.734,31.734,0,0,1,63.733,32Z"/>
      </g>
    </g>
    <g id="Mask_Group_375" data-name="Mask Group 375" class="cls-6">
      <g id="usd-coin-usdc-logo" transform="translate(-23723 -24525)">
        <path id="Path_28385" data-name="Path 28385" class="cls-7" d="M32,64A32,32,0,1,0,0,32,31.923,31.923,0,0,0,32,64Z"/>
        <path id="Path_28386" data-name="Path 28386" class="cls-1" d="M40.8,37.067c0-4.667-2.8-6.267-8.4-6.933-4-.533-4.8-1.6-4.8-3.467s1.333-3.067,4-3.067c2.4,0,3.733.8,4.4,2.8a1,1,0,0,0,.933.667h2.133A.911.911,0,0,0,40,26.133V26a6.661,6.661,0,0,0-6-5.467v-3.2c0-.533-.4-.933-1.067-1.067h-2c-.533,0-.933.4-1.067,1.067V20.4c-4,.533-6.533,3.2-6.533,6.533,0,4.4,2.667,6.133,8.267,6.8,3.733.667,4.933,1.467,4.933,3.6s-1.867,3.6-4.4,3.6c-3.467,0-4.667-1.467-5.067-3.467a.974.974,0,0,0-.933-.8H23.867a.911.911,0,0,0-.933.933v.133c.533,3.333,2.667,5.733,7.067,6.4v3.2c0,.533.4.933,1.067,1.067h2c.533,0,.933-.4,1.067-1.067v-3.2c4-.667,6.667-3.467,6.667-7.067Z"/>
        <path id="Path_28387" data-name="Path 28387" class="cls-1" d="M25.2,51.067a19.952,19.952,0,0,1,0-37.467,1.338,1.338,0,0,0,.8-1.333V10.4a1.013,1.013,0,0,0-.8-1.067.8.8,0,0,0-.533.133,23.994,23.994,0,0,0,0,45.733.811.811,0,0,0,1.2-.533C26,54.533,26,54.4,26,54.133V52.267A1.776,1.776,0,0,0,25.2,51.067Zm14.133-41.6a.811.811,0,0,0-1.2.533c-.133.133-.133.267-.133.533V12.4a1.769,1.769,0,0,0,.8,1.333,19.952,19.952,0,0,1,0,37.467,1.338,1.338,0,0,0-.8,1.333V54.4a1.013,1.013,0,0,0,.8,1.067.8.8,0,0,0,.533-.133,24.1,24.1,0,0,0,0-45.867Z"/>
      </g>
    </g>
  </g>
</svg>
