<svg xmlns="http://www.w3.org/2000/svg" xmlns:xlink="http://www.w3.org/1999/xlink" width="114" height="64" viewBox="0 0 114 64">
  <defs>
    <style>
      .cls-1 {
        fill: #fff;
      }

      .cls-2 {
        clip-path: url(#clip-path);
      }

      .cls-3 {
        fill: #2775ca;
      }

      .cls-4 {
        clip-path: url(#clip-path-2);
      }

      .cls-5 {
        fill: url(#linear-gradient);
      }

      .cls-6 {
        fill: url(#linear-gradient-2);
      }

      .cls-7 {
        fill: #997c43;
      }

      .cls-8 {
        fill: url(#linear-gradient-3);
      }
    </style>
    <clipPath id="clip-path">
      <circle id="Ellipse_202" data-name="Ellipse 202" class="cls-1" cx="32" cy="32" r="32" transform="translate(-24190 -10494)"/>
    </clipPath>
    <clipPath id="clip-path-2">
      <circle id="Ellipse_1788" data-name="Ellipse 1788" class="cls-1" cx="32" cy="32" r="32" transform="translate(16633 -23872)"/>
    </clipPath>
    <linearGradient id="linear-gradient" x1="0.863" y1="0.895" x2="0.137" y2="0.105" gradientUnits="objectBoundingBox">
      <stop offset="0" stop-color="#ba8500"/>
      <stop offset="0.502" stop-color="#fffad1"/>
      <stop offset="1" stop-color="#c29431"/>
    </linearGradient>
    <linearGradient id="linear-gradient-2" x1="0.245" y1="0.834" x2="0.755" y2="0.166" gradientUnits="objectBoundingBox">
      <stop offset="0" stop-color="#ba8500"/>
      <stop offset="0.502" stop-color="#ede28e"/>
      <stop offset="1" stop-color="#c29431"/>
    </linearGradient>
    <linearGradient id="linear-gradient-3" x1="0.886" y1="0.875" x2="0.114" y2="0.125" xlink:href="#linear-gradient"/>
  </defs>
  <g id="Group_11357" data-name="Group 11357" transform="translate(-16583 23872)">
    <g id="Mask_Group_50" data-name="Mask Group 50" class="cls-2" transform="translate(40773 -13378)">
      <g id="usd-coin-usdc-logo" transform="translate(-24190 -10494)">
        <path id="Path_5250" data-name="Path 5250" class="cls-3" d="M32,64A31.923,31.923,0,1,0,9.35,54.65,31.923,31.923,0,0,0,32,64Z"/>
        <path id="Path_5251" data-name="Path 5251" class="cls-1" d="M40.8,37.067c0-4.667-2.8-6.267-8.4-6.933-4-.533-4.8-1.6-4.8-3.467s1.333-3.067,4-3.067c2.4,0,3.733.8,4.4,2.8a1,1,0,0,0,.933.667h2.133A.911.911,0,0,0,40,26.133V26a6.661,6.661,0,0,0-6-5.467v-3.2c0-.533-.4-.933-1.067-1.067h-2c-.533,0-.933.4-1.067,1.067V20.4c-4,.533-6.533,3.2-6.533,6.533,0,4.4,2.667,6.133,8.267,6.8,3.733.667,4.933,1.467,4.933,3.6s-1.867,3.6-4.4,3.6c-3.467,0-4.667-1.467-5.067-3.467a.974.974,0,0,0-.933-.8H23.867a.911.911,0,0,0-.933.933v.133c.533,3.333,2.667,5.733,7.067,6.4v3.2c0,.533.4.933,1.067,1.067h2c.533,0,.933-.4,1.067-1.067v-3.2c4-.667,6.667-3.467,6.667-7.067Z"/>
        <path id="Path_5252" data-name="Path 5252" class="cls-1" d="M25.2,51.067a19.952,19.952,0,0,1,0-37.467,1.338,1.338,0,0,0,.8-1.333V10.4a1.013,1.013,0,0,0-.8-1.067.8.8,0,0,0-.533.133,23.994,23.994,0,0,0,0,45.733.811.811,0,0,0,1.2-.533C26,54.533,26,54.4,26,54.133V52.267a1.776,1.776,0,0,0-.8-1.2Zm14.133-41.6a.811.811,0,0,0-1.2.533c-.133.133-.133.267-.133.533V12.4a1.769,1.769,0,0,0,.8,1.333,19.952,19.952,0,0,1,0,37.467,1.338,1.338,0,0,0-.8,1.333V54.4a1.013,1.013,0,0,0,.8,1.067.8.8,0,0,0,.533-.133,24.1,24.1,0,0,0,0-45.867Z"/>
      </g>
    </g>
    <g id="Mask_Group_411" data-name="Mask Group 411" class="cls-4">
      <g id="Layer_x0020_1" transform="translate(16589.826 -23915.174)">
        <g id="_2717798304480">
          <circle id="Ellipse_2079" data-name="Ellipse 2079" class="cls-5" cx="32" cy="32" r="32" transform="translate(43.174 43.174)"/>
          <circle id="Ellipse_2080" data-name="Ellipse 2080" class="cls-6" cx="28.903" cy="28.903" r="28.903" transform="translate(46.271 46.271)"/>
          <path id="Path_19824" data-name="Path 19824" class="cls-7" d="M75.174,46.271a28.919,28.919,0,0,1,26.888,39.523A28.91,28.91,0,0,0,47.889,65.618,28.911,28.911,0,0,1,75.174,46.271Z"/>
          <path id="Path_19825" data-name="Path 19825" class="cls-7" d="M78.253,98.64a1.3,1.3,0,0,1,.216,0,1.019,1.019,0,0,1,.03,2.027q-.731.09-1.534.144c-.535.03-1.046.048-1.534.048A25.157,25.157,0,0,1,61.366,54.841a1.02,1.02,0,0,1,1.143,1.69l-.2.132A23.119,23.119,0,0,0,75.432,98.815c.5,0,.974-.018,1.413-.042S77.766,98.7,78.253,98.64ZM74.9,73.388a2.4,2.4,0,0,1,1.119.271L94.214,63.008,77.237,75.126a2.386,2.386,0,0,1,.1.7v.03l1.209.884a1.063,1.063,0,0,1,.132.1h0a1.212,1.212,0,0,1-.776,2.141,1.2,1.2,0,0,1-.926-.433l-.716-.7A2.451,2.451,0,0,1,73.49,77.8l-.944.674a1.212,1.212,0,1,1-1.305-2.015l1.233-.722a2.334,2.334,0,0,1,.385-1.233l-7.65-7.5,8.919,6.507A2.358,2.358,0,0,1,74.9,73.388Zm1.131-14.77a1.017,1.017,0,1,1,.06-2.033,19.17,19.17,0,0,1,9.472,2.893,1.02,1.02,0,0,1-1.076,1.732,17.112,17.112,0,0,0-8.456-2.592ZM66.027,54.576a1.02,1.02,0,0,1-.83-1.864A25.153,25.153,0,0,1,92.59,57.294,1.019,1.019,0,1,1,91.2,58.786c-.4-.373-.812-.728-1.239-1.076a23.119,23.119,0,0,0-14.53-5.13,23.278,23.278,0,0,0-7.752,1.335C67.121,54.113,66.574,54.33,66.027,54.576ZM93.342,84.82a1.022,1.022,0,0,1,1.822.926A22.145,22.145,0,0,1,54.9,83.99a1.029,1.029,0,0,1,.571-1.329,1.018,1.018,0,0,1,1.323.571c.06.138.12.283.18.427a20.1,20.1,0,0,0,36.162,1.558C93.2,85.085,93.276,84.952,93.342,84.82Zm-4.444,1.4a1.023,1.023,0,0,1,1.431-.174,1.02,1.02,0,0,1,.174,1.425A19.122,19.122,0,1,1,71.788,56.922a1.02,1.02,0,0,1,.734,1.864.987.987,0,0,1-.349.138A17.083,17.083,0,1,0,88.9,86.215ZM55.7,79.534a1.02,1.02,0,1,1-2,.385c-.132-.686-.235-1.389-.307-2.1s-.1-1.431-.1-2.117A22.152,22.152,0,0,1,87.827,57.349c.313.21.625.433.932.668a1.018,1.018,0,0,1-1.227,1.624l-.313-.229A20.1,20.1,0,0,0,55.334,75.7c0,.668.03,1.311.09,1.924.054.6.138,1.191.253,1.792Z"/>
          <path id="Path_19826" data-name="Path 19826" class="cls-8" d="M78.626,97.834a1.374,1.374,0,0,1,.223,0,1.019,1.019,0,0,1,.024,2.027c-.487.06-1,.108-1.528.138s-1.052.054-1.534.054A25.167,25.167,0,0,1,61.739,54.029a1.022,1.022,0,1,1,1.143,1.7l-.192.132A23.119,23.119,0,0,0,75.811,98.009c.5,0,.968-.018,1.413-.042S78.139,97.894,78.626,97.834ZM75.282,72.582a2.42,2.42,0,0,1,1.119.271L94.587,62.2,77.615,74.32a2.385,2.385,0,0,1,.1.7l-.006.03,1.215.884c.042.03.084.06.126.1h.006a1.212,1.212,0,0,1-.782,2.141,1.2,1.2,0,0,1-.926-.433l-.716-.7A2.451,2.451,0,0,1,73.863,77l-.938.668a1.211,1.211,0,1,1-1.311-2.009l1.233-.722a2.445,2.445,0,0,1,.385-1.233l-7.644-7.5L74.5,72.708A2.394,2.394,0,0,1,75.282,72.582Zm1.125-14.77a1.017,1.017,0,1,1,.066-2.033,19.123,19.123,0,0,1,9.466,2.893A1.02,1.02,0,1,1,84.862,60.4a17,17,0,0,0-4.053-1.852A17.3,17.3,0,0,0,76.407,57.812Zm-10-4.041a1.02,1.02,0,1,1-.83-1.864,25.165,25.165,0,0,1,27.393,4.583A1.019,1.019,0,0,1,91.58,57.98c-.4-.373-.818-.728-1.245-1.076A23.133,23.133,0,0,0,71,52.279a22.722,22.722,0,0,0-2.941.83C67.5,53.307,66.947,53.524,66.406,53.77ZM93.721,84.014a1.019,1.019,0,0,1,1.816.926A22.142,22.142,0,0,1,55.28,83.184a1.021,1.021,0,1,1,1.894-.764c.054.144.114.289.174.433A20.1,20.1,0,0,0,93.51,84.411C93.582,84.279,93.649,84.147,93.721,84.014Zm-4.45,1.4a1.013,1.013,0,0,1,.662-.379.984.984,0,0,1,.77.2,1.009,1.009,0,0,1,.174,1.425A19.122,19.122,0,1,1,72.161,56.116a1.021,1.021,0,0,1,.74,1.864,1.017,1.017,0,0,1-.355.138A17.085,17.085,0,1,0,89.27,85.41ZM56.08,78.728a1.023,1.023,0,0,1-2.009.385c-.132-.686-.235-1.389-.3-2.1s-.1-1.431-.1-2.117A22.144,22.144,0,0,1,88.2,56.543c.319.21.631.433.932.668a1.018,1.018,0,1,1-1.227,1.624l-.307-.229a20.156,20.156,0,0,0-5.413-2.778A20.1,20.1,0,0,0,55.707,74.891c0,.668.03,1.311.09,1.924.06.6.144,1.191.259,1.792Z"/>
        </g>
      </g>
    </g>
  </g>
</svg>
