<svg xmlns="http://www.w3.org/2000/svg" xmlns:xlink="http://www.w3.org/1999/xlink" width="114" height="64" viewBox="0 0 114 64">
  <defs>
    <style>
      .cls-1 {
        fill: #fff;
      }

      .cls-2 {
        clip-path: url(#clip-path);
      }

      .cls-3 {
        fill: #2c3851;
      }

      .cls-4 {
        clip-path: url(#clip-path-2);
      }

      .cls-5 {
        fill: #2775ca;
      }
    </style>
    <clipPath id="clip-path">
      <circle id="Ellipse_1630" data-name="Ellipse 1630" class="cls-1" cx="32" cy="32" r="32" transform="translate(17996 -23711)"/>
    </clipPath>
    <clipPath id="clip-path-2">
      <circle id="Ellipse_202" data-name="Ellipse 202" class="cls-1" cx="32" cy="32" r="32"/>
    </clipPath>
  </defs>
  <g id="Group_9759" data-name="Group 9759" transform="translate(-18836 23388)">
    <g id="Mask_Group_311" data-name="Mask Group 311" class="cls-2" transform="translate(890 323)">
      <g id="_0x2D03bECE6747ADC00E1a131BBA1469C15fD11e03" data-name="0x2D03bECE6747ADC00E1a131BBA1469C15fD11e03" transform="translate(17996 -23711.006)">
        <circle id="Ellipse_1756" data-name="Ellipse 1756" class="cls-3" cx="32" cy="32" r="32" transform="translate(0 0.005)"/>
        <g id="Group_9691" data-name="Group 9691">
          <path id="Path_17384" data-name="Path 17384" class="cls-1" d="M32,50.573a11.132,11.132,0,0,1-7.923-3.282L15.8,39.012a11.216,11.216,0,0,1,0-15.845l4.14-4.14a11.132,11.132,0,0,1,7.923-3.282H36.14a11.132,11.132,0,0,1,7.923,3.282l4.14,4.14a11.218,11.218,0,0,1,0,15.845l-8.279,8.278A11.128,11.128,0,0,1,32,50.573ZM27.86,20.192a6.714,6.714,0,0,0-4.779,1.98l-4.14,4.14a6.766,6.766,0,0,0,0,9.557l8.279,8.278a6.757,6.757,0,0,0,9.557,0l8.279-8.278a6.766,6.766,0,0,0,0-9.557l-4.14-4.14a6.714,6.714,0,0,0-4.779-1.98H27.86Z"/>
          <path id="Path_17385" data-name="Path 17385" class="cls-1" d="M32,44.617a6.394,6.394,0,0,1-4.551-1.886l-6.893-6.893a6.44,6.44,0,0,1,0-9.1L24,23.291a6.393,6.393,0,0,1,4.55-1.885h6.893A6.393,6.393,0,0,1,40,23.291l3.446,3.446a6.44,6.44,0,0,1,0,9.1l-6.893,6.893A6.386,6.386,0,0,1,32,44.617ZM28.554,25.808a1.993,1.993,0,0,0-1.438.6L23.669,29.85a2.038,2.038,0,0,0,0,2.876l6.893,6.893a2.06,2.06,0,0,0,2.876,0l6.893-6.894a2.037,2.037,0,0,0,0-2.876L36.883,26.4a1.993,1.993,0,0,0-1.438-.6H28.554Z"/>
          <path id="Path_17386" data-name="Path 17386" class="cls-1" d="M32,39.151,24.451,31.6l4.736-4.736h5.627L39.55,31.6Z"/>
        </g>
      </g>
    </g>
    <g id="Mask_Group_50" data-name="Mask Group 50" class="cls-4" transform="translate(18836 -23388)">
      <g id="usd-coin-usdc-logo" transform="translate(0)">
        <path id="Path_5250" data-name="Path 5250" class="cls-5" d="M32,64A31.923,31.923,0,1,0,9.35,54.65,32,32,0,0,0,32,64Z" transform="translate(0)"/>
        <path id="Path_5251" data-name="Path 5251" class="cls-1" d="M40.8,37.067c0-4.667-2.8-6.267-8.4-6.933-4-.533-4.8-1.6-4.8-3.467s1.333-3.067,4-3.067c2.4,0,3.733.8,4.4,2.8a1,1,0,0,0,.933.667h2.133A.911.911,0,0,0,40,26.133V26a6.661,6.661,0,0,0-6-5.467v-3.2c0-.533-.4-.933-1.067-1.067h-2c-.533,0-.933.4-1.067,1.067V20.4c-4,.533-6.533,3.2-6.533,6.533,0,4.4,2.667,6.133,8.267,6.8,3.733.667,4.933,1.467,4.933,3.6s-1.867,3.6-4.4,3.6c-3.467,0-4.667-1.467-5.067-3.467a.974.974,0,0,0-.933-.8H23.867a.911.911,0,0,0-.933.933v.133c.533,3.333,2.667,5.733,7.067,6.4v3.2c0,.533.4.933,1.067,1.067h2c.533,0,.933-.4,1.067-1.067v-3.2c4-.667,6.667-3.467,6.667-7.067Z" transform="translate(0)"/>
        <path id="Path_5252" data-name="Path 5252" class="cls-1" d="M25.2,51.067a19.952,19.952,0,0,1,0-37.467,1.338,1.338,0,0,0,.8-1.333V10.4a1.013,1.013,0,0,0-.8-1.067.8.8,0,0,0-.533.133,23.994,23.994,0,0,0,0,45.733.811.811,0,0,0,1.2-.533C26,54.533,26,54.4,26,54.133V52.267A1.776,1.776,0,0,0,25.2,51.067Zm14.133-41.6a.811.811,0,0,0-1.2.533c-.133.133-.133.267-.133.533V12.4a1.769,1.769,0,0,0,.8,1.333,19.952,19.952,0,0,1,0,37.467,1.338,1.338,0,0,0-.8,1.333V54.4a1.013,1.013,0,0,0,.8,1.067.8.8,0,0,0,.533-.133,24.1,24.1,0,0,0,0-45.867Z" transform="translate(0)"/>
      </g>
    </g>
  </g>
</svg>
