<svg xmlns="http://www.w3.org/2000/svg" xmlns:xlink="http://www.w3.org/1999/xlink" width="114" height="64" viewBox="0 0 114 64">
  <defs>
    <style>
      .cls-1 {
        fill: #fff;
      }

      .cls-2 {
        clip-path: url(#clip-path);
      }

      .cls-3 {
        fill: #2775ca;
      }

      .cls-4 {
        fill: #5a5564;
      }

      .cls-5 {
        fill: #f09242;
      }

      .cls-6 {
        fill: #282138;
      }
    </style>
    <clipPath id="clip-path">
      <circle id="Ellipse_681" data-name="Ellipse 681" class="cls-1" cx="32" cy="32" r="32"/>
    </clipPath>
  </defs>
  <g id="Group_12540" data-name="Group 12540" transform="translate(-16006 24242)">
    <g id="Mask_Group_9" data-name="Mask Group 9" class="cls-2" transform="translate(16006 -24242)">
      <g id="usd-coin-usdc-logo">
        <path id="Path_8173" data-name="Path 8173" class="cls-3" d="M32,64A32,32,0,1,0,0,32,31.923,31.923,0,0,0,32,64Z"/>
        <path id="Path_8174" data-name="Path 8174" class="cls-1" d="M40.8,37.067c0-4.667-2.8-6.267-8.4-6.933-4-.533-4.8-1.6-4.8-3.467s1.333-3.067,4-3.067c2.4,0,3.733.8,4.4,2.8a1,1,0,0,0,.933.667h2.133A.911.911,0,0,0,40,26.133V26a6.661,6.661,0,0,0-6-5.467v-3.2c0-.533-.4-.933-1.067-1.067h-2c-.533,0-.933.4-1.067,1.067V20.4c-4,.533-6.533,3.2-6.533,6.533,0,4.4,2.667,6.133,8.267,6.8,3.733.667,4.933,1.467,4.933,3.6s-1.867,3.6-4.4,3.6c-3.467,0-4.667-1.467-5.067-3.467a.974.974,0,0,0-.933-.8H23.867a.911.911,0,0,0-.933.933v.133c.533,3.333,2.667,5.733,7.067,6.4v3.2c0,.533.4.933,1.067,1.067h2c.533,0,.933-.4,1.067-1.067v-3.2c4-.667,6.667-3.467,6.667-7.067Z"/>
        <path id="Path_8175" data-name="Path 8175" class="cls-1" d="M25.2,51.067a19.952,19.952,0,0,1,0-37.467,1.338,1.338,0,0,0,.8-1.333V10.4a1.013,1.013,0,0,0-.8-1.067.8.8,0,0,0-.533.133,23.994,23.994,0,0,0,0,45.733.811.811,0,0,0,1.2-.533C26,54.533,26,54.4,26,54.133V52.267A1.776,1.776,0,0,0,25.2,51.067Zm14.133-41.6a.811.811,0,0,0-1.2.533c-.133.133-.133.267-.133.533V12.4a1.769,1.769,0,0,0,.8,1.333,19.952,19.952,0,0,1,0,37.467,1.338,1.338,0,0,0-.8,1.333V54.4a1.013,1.013,0,0,0,.8,1.067.8.8,0,0,0,.533-.133,24.1,24.1,0,0,0,0-45.867Z" transform="translate(0)"/>
      </g>
    </g>
    <circle id="Ellipse_680" data-name="Ellipse 680" class="cls-1" cx="32" cy="32" r="32" transform="translate(16056 -24242)"/>
    <g id="Layer_2" data-name="Layer 2" transform="translate(16056 -24242)">
      <g id="Layer_1" data-name="Layer 1">
        <g id="Page-1" transform="translate(0)">
          <g id="wbtc_colour" data-name="wbtc colour">
            <path id="Shape" class="cls-4" d="M87.847,22.9,86.09,24.658a24.877,24.877,0,0,1,0,33.576l1.757,1.757a27.39,27.39,0,0,0,0-37.131Z" transform="translate(-35.662 -9.47)"/>
            <path id="Shape-2" data-name="Shape" class="cls-4" d="M24.728,16.819a24.877,24.877,0,0,1,33.576,0l1.757-1.757a27.39,27.39,0,0,0-37.131,0Z" transform="translate(-9.499 -3.235)"/>
            <path id="Shape-3" data-name="Shape" class="cls-4" d="M16.819,58.305a24.877,24.877,0,0,1,0-33.558L15.061,22.99a27.39,27.39,0,0,0,0,37.131Z" transform="translate(-3.235 -9.523)"/>
            <path id="Shape-4" data-name="Shape" class="cls-4" d="M58.293,86.05a24.877,24.877,0,0,1-33.576,0L22.96,87.807a27.39,27.39,0,0,0,37.131,0Z" transform="translate(-9.511 -35.645)"/>
            <path id="Shape-5" data-name="Shape" class="cls-5" d="M57.713,37.321c-.351-3.667-3.515-4.9-7.515-5.272V27H47.1v4.956H44.633V27H41.563v5.084H35.29v3.31s2.284-.041,2.249,0A1.6,1.6,0,0,1,39.3,36.753V50.671a1.084,1.084,0,0,1-.375.756,1.072,1.072,0,0,1-.8.269c.041.035-2.249,0-2.249,0l-.586,3.7H41.5v5.166H44.6v-5.09H47.07v5.067h3.1V55.427c5.225-.316,8.868-1.6,9.325-6.5.369-3.936-1.482-5.694-4.44-6.4C56.852,41.644,57.965,40,57.713,37.321Zm-4.335,11c0,3.843-6.584,3.4-8.681,3.4V44.907C46.794,44.912,53.378,44.309,53.378,48.322Zm-1.435-9.606c0,3.515-5.494,3.087-7.24,3.087V35.6C46.449,35.6,51.943,35.054,51.943,38.715Z" transform="translate(-14.619 -11.185)"/>
            <path id="Shape-6" data-name="Shape" class="cls-6" d="M31.994,64A32,32,0,1,1,64,32,32,32,0,0,1,31.994,64Zm0-61.5a29.487,29.487,0,1,0,20.87,8.632A29.487,29.487,0,0,0,31.994,2.5Z" transform="translate(0 0)"/>
          </g>
        </g>
      </g>
    </g>
  </g>
</svg>
