<svg id="Group_11248" data-name="Group 11248" xmlns="http://www.w3.org/2000/svg" xmlns:xlink="http://www.w3.org/1999/xlink" width="114" height="64" viewBox="0 0 114 64">
  <defs>
    <style>
      .cls-1 {
        fill: #fff;
      }

      .cls-2 {
        clip-path: url(#clip-path);
      }

      .cls-3 {
        fill: #2775ca;
      }

      .cls-4 {
        clip-path: url(#clip-path-2);
      }

      .cls-5 {
        fill: #000420;
      }

      .cls-6, .cls-7 {
        fill-rule: evenodd;
      }

      .cls-6 {
        fill: url(#linear-gradient);
      }

      .cls-7 {
        fill: url(#linear-gradient-2);
      }
    </style>
    <clipPath id="clip-path">
      <circle id="Ellipse_202" data-name="Ellipse 202" class="cls-1" cx="32" cy="32" r="32"/>
    </clipPath>
    <clipPath id="clip-path-2">
      <circle id="Ellipse_1135" data-name="Ellipse 1135" class="cls-1" cx="32" cy="32" r="32" transform="translate(0 -0.001)"/>
    </clipPath>
    <linearGradient id="linear-gradient" x1="0.828" y1="0.427" x2="0.124" y2="0.565" gradientUnits="objectBoundingBox">
      <stop offset="0" stop-color="#50d546"/>
      <stop offset="0.512" stop-color="#ffeb17"/>
      <stop offset="1" stop-color="#ff8200"/>
    </linearGradient>
    <linearGradient id="linear-gradient-2" x1="0.17" y1="0.143" x2="1" y2="0.5" gradientUnits="objectBoundingBox">
      <stop offset="0" stop-color="#003de9"/>
      <stop offset="0.38" stop-color="#ff0058"/>
      <stop offset="1" stop-color="#81bb47"/>
    </linearGradient>
  </defs>
  <g id="Mask_Group_50" data-name="Mask Group 50" class="cls-2">
    <g id="usd-coin-usdc-logo" transform="translate(0)">
      <path id="Path_5250" data-name="Path 5250" class="cls-3" d="M32,64A31.923,31.923,0,1,0,9.35,54.65,32,32,0,0,0,32,64Z" transform="translate(0)"/>
      <path id="Path_5251" data-name="Path 5251" class="cls-1" d="M40.8,37.067c0-4.667-2.8-6.267-8.4-6.933-4-.533-4.8-1.6-4.8-3.467s1.333-3.067,4-3.067c2.4,0,3.733.8,4.4,2.8a1,1,0,0,0,.933.667h2.133A.911.911,0,0,0,40,26.133V26a6.661,6.661,0,0,0-6-5.467v-3.2c0-.533-.4-.933-1.067-1.067h-2c-.533,0-.933.4-1.067,1.067V20.4c-4,.533-6.533,3.2-6.533,6.533,0,4.4,2.667,6.133,8.267,6.8,3.733.667,4.933,1.467,4.933,3.6s-1.867,3.6-4.4,3.6c-3.467,0-4.667-1.467-5.067-3.467a.974.974,0,0,0-.933-.8H23.867a.911.911,0,0,0-.933.933v.133c.533,3.333,2.667,5.733,7.067,6.4v3.2c0,.533.4.933,1.067,1.067h2c.533,0,.933-.4,1.067-1.067v-3.2c4-.667,6.667-3.467,6.667-7.067Z" transform="translate(0)"/>
      <path id="Path_5252" data-name="Path 5252" class="cls-1" d="M25.2,51.067a19.952,19.952,0,0,1,0-37.467,1.338,1.338,0,0,0,.8-1.333V10.4a1.013,1.013,0,0,0-.8-1.067.8.8,0,0,0-.533.133,23.994,23.994,0,0,0,0,45.733.811.811,0,0,0,1.2-.533C26,54.533,26,54.4,26,54.133V52.267A1.776,1.776,0,0,0,25.2,51.067Zm14.133-41.6a.811.811,0,0,0-1.2.533c-.133.133-.133.267-.133.533V12.4a1.769,1.769,0,0,0,.8,1.333,19.952,19.952,0,0,1,0,37.467,1.338,1.338,0,0,0-.8,1.333V54.4a1.013,1.013,0,0,0,.8,1.067.8.8,0,0,0,.533-.133,24.1,24.1,0,0,0,0-45.867Z" transform="translate(0)"/>
    </g>
  </g>
  <g id="Mask_Group_250" data-name="Mask Group 250" class="cls-4" transform="translate(50)">
    <g id="pa" transform="translate(0 -0.001)">
      <g id="_-logo-with-text-D" data-name="-logo-with-text-D">
        <g id="sd">
          <circle id="Oval" class="cls-5" cx="32" cy="32" r="32"/>
          <g id="logo" transform="translate(11.175 10.812)">
            <path id="Path-9" class="cls-6" d="M.739,23.658,15.8,38.455q2.347,2.084,4.355,0l9.164-9.3,3.925-.054h.01L21.538,41.219q-3.729,2.912-7.051-.094L.711,26.93Zm40.445,4.379L27.794,41.369H24.465L37.857,28.037Z" transform="translate(-0.001 -0.049)"/>
            <path id="Path-8" class="cls-7" d="M19.06.6,4.212,15.125q-2.092,2,0,4.328h0L19.06,34.423l-3.284.028L1.532,20.761q-3.017-3.3-.095-7.008L14.991.6H19.06Zm2.924.94q3.319-3,7.045-.094L40.739,13.537h0l-3.928-.054L27.651,4.2q-2.006-2.08-4.352,0h0L8.248,18.972,8.22,15.706Zm4.982,6.1,6.3,5.872H30.032l-6.3-5.872Z" transform="translate(0 -0.014)"/>
          </g>
        </g>
      </g>
    </g>
  </g>
</svg>
