<svg xmlns="http://www.w3.org/2000/svg" xmlns:xlink="http://www.w3.org/1999/xlink" width="114" height="64" viewBox="0 0 114 64">
  <defs>
    <style>
      .cls-1, .cls-8 {
        fill: #fff;
      }

      .cls-2 {
        clip-path: url(#clip-path);
      }

      .cls-3 {
        fill: #000420;
      }

      .cls-4, .cls-5, .cls-7, .cls-8, .cls-9 {
        fill-rule: evenodd;
      }

      .cls-4 {
        fill: url(#linear-gradient);
      }

      .cls-5 {
        fill: url(#linear-gradient-2);
      }

      .cls-6 {
        fill: #103f68;
      }

      .cls-7, .cls-9 {
        fill: none;
      }

      .cls-7 {
        stroke: #fff;
        stroke-width: 2.125px;
      }

      .cls-9 {
        stroke: #979797;
        stroke-width: 0.125px;
      }
    </style>
    <clipPath id="clip-path">
      <circle id="Ellipse_1135" data-name="Ellipse 1135" class="cls-1" cx="32" cy="32" r="32"/>
    </clipPath>
    <linearGradient id="linear-gradient" x1="0.828" y1="0.427" x2="0.124" y2="0.565" gradientUnits="objectBoundingBox">
      <stop offset="0" stop-color="#50d546"/>
      <stop offset="0.512" stop-color="#ffeb17"/>
      <stop offset="1" stop-color="#ff8200"/>
    </linearGradient>
    <linearGradient id="linear-gradient-2" x1="0.17" y1="0.143" x2="1" y2="0.5" gradientUnits="objectBoundingBox">
      <stop offset="0" stop-color="#003de9"/>
      <stop offset="0.38" stop-color="#ff0058"/>
      <stop offset="1" stop-color="#81bb47"/>
    </linearGradient>
  </defs>
  <g id="Group_9811" data-name="Group 9811" transform="translate(-16101 23376)">
    <g id="Mask_Group_250" data-name="Mask Group 250" class="cls-2" transform="translate(16101 -23376)">
      <g id="pa">
        <g id="_-logo-with-text-D" data-name="-logo-with-text-D">
          <g id="sd">
            <circle id="Oval" class="cls-3" cx="32" cy="32" r="32"/>
            <g id="logo" transform="translate(11.378 10.68)">
              <path id="Path-9" class="cls-4" d="M.739,23.658,15.825,38.477q2.351,2.087,4.362,0l9.178-9.311,3.931-.054h.01L21.569,41.245q-3.735,2.917-7.062-.094L.711,26.935Zm40.505,4.385L27.834,41.4H24.5L37.912,28.043Z" transform="translate(0 -0.014)"/>
              <path id="Path-8" class="cls-5" d="M19.089.6,4.218,15.147q-2.095,2,0,4.335h0l14.87,14.992L15.8,34.5,1.535,20.792q-3.021-3.306-.095-7.018L15.014.6h4.075Zm2.928.942q3.324-3.005,7.056-.094L40.8,13.557h0L36.863,13.5l-9.17-9.294q-2.009-2.083-4.358,0h0L8.26,19l-.028-3.271Zm4.989,6.112,6.307,5.881H30.077L23.765,7.652Z" transform="translate(0 -0.014)"/>
            </g>
          </g>
        </g>
      </g>
    </g>
    <g id="Mask_Group_249" data-name="Mask Group 249" class="cls-2" transform="translate(16151 -23376)">
      <g id="Page-1">
        <circle id="Oval-2" data-name="Oval" class="cls-6" cx="32" cy="32" r="32"/>
        <path id="Polygon" class="cls-7" d="M32.188,11.164,14.143,21.582V42.418L32.188,52.836,50.232,42.418V21.582Z" transform="translate(-0.375)"/>
        <path id="Path" class="cls-8" d="M39.436,19.561l1.686,7.632H22.693l1.8-7.632Z" transform="translate(0.186)"/>
        <path id="Path-2" class="cls-8" d="M25.394,29.8l4.989,3.742-6.8,11.908H20.848l-3.212-3.02v-1.5l3.335-3.2v-5.1Z" transform="translate(15.98)"/>
        <path id="Path-2-2" data-name="Path-2" class="cls-8" d="M4.989,0,0,3.742,6.8,15.649H9.535l3.211-3.02v-1.5l-3.335-3.2v-5.1Z" transform="translate(17.87 29.745)"/>
        <path id="Path-3" class="cls-9" transform="translate(64)"/>
        <path id="Path-4" class="cls-8" d="M36.739,28.362l-1.623,4.257.5,4.771-7.4-.024.452-4.747-1.6-4.257Z" transform="translate(0.193)"/>
      </g>
    </g>
  </g>
</svg>
